{"glyphs":{"0":{"ha":957,"x_min":63,"x_max":876,"o":"m 393 -17 q 329 7 361 -7 q 254 43 297 21 q 208 67 211 65 l 192 76 q 63 463 63 239 q 125 715 63 592 q 294 899 188 839 q 322 913 303 903 q 349 926 342 922 q 372 937 357 931 q 397 946 388 943 q 421 951 407 949 q 449 953 435 953 q 626 892 531 953 q 782 754 721 831 q 842 623 807 722 q 876 488 876 524 q 860 411 876 431 l 860 300 q 821 221 821 267 q 825 197 821 208 q 797 158 803 189 q 775 121 792 128 q 778 132 775 124 q 782 146 782 140 q 750 110 758 110 q 749 111 749 110 q 672 35 725 53 l 697 60 q 663 48 681 60 q 636 35 644 36 q 525 17 625 31 q 517 17 524 17 q 506 18 510 18 q 490 10 492 18 q 505 10 494 10 q 522 11 515 11 q 551 0 551 11 q 393 -17 463 -17 m 569 7 q 604 12 582 6 q 636 18 626 18 l 636 10 q 608 1 636 6 q 569 -3 581 -3 l 569 7 m 338 51 q 392 33 357 33 q 449 60 428 33 q 371 68 382 68 l 369 67 q 367 67 368 67 q 361 67 365 67 q 354 68 357 68 q 336 56 336 68 l 338 51 m 490 61 q 449 42 453 61 q 457 41 450 42 q 468 40 464 40 q 515 60 507 40 l 504 61 q 490 61 493 61 m 525 51 q 560 42 538 42 q 647 64 588 42 q 706 94 706 86 l 706 124 q 717 122 708 124 q 731 121 726 121 q 749 136 749 121 q 743 151 749 143 q 738 167 738 158 l 739 179 q 752 175 744 179 q 763 171 760 171 q 806 250 776 171 q 835 351 835 329 q 830 374 835 361 q 825 394 825 386 l 833 401 q 844 522 844 417 l 832 522 q 792 665 832 593 q 689 738 751 738 q 679 733 679 738 q 703 717 679 717 q 722 719 719 717 l 706 693 q 714 661 711 692 q 728 631 717 631 q 739 635 733 631 l 722 608 q 733 583 726 604 q 756 561 739 561 q 775 565 769 561 q 756 510 756 553 q 765 488 756 488 q 774 492 768 488 q 782 497 781 496 q 765 446 765 464 q 774 403 765 433 q 782 360 782 372 q 736 224 782 318 q 654 121 690 129 q 663 107 663 113 q 644 101 663 106 q 607 85 626 96 q 585 60 588 75 q 578 70 585 64 q 569 76 572 76 q 547 67 563 76 q 525 51 531 57 m 268 85 l 286 68 q 306 97 306 82 q 268 85 271 97 m 328 78 q 311 68 315 78 q 338 76 332 68 l 333 78 q 328 78 329 78 m 251 111 l 251 100 q 276 111 254 100 l 251 111 m 217 436 q 272 187 217 271 q 483 103 328 103 q 672 197 606 103 q 739 421 739 292 q 735 437 739 422 q 731 453 732 451 q 714 547 731 492 q 695 596 713 551 q 662 683 678 640 q 646 728 646 726 q 489 822 557 822 q 415 792 456 822 q 346 763 374 763 q 249 624 281 718 q 217 436 217 531 m 183 154 q 231 111 206 111 q 243 117 235 111 q 251 131 251 124 q 208 156 251 156 q 195 155 206 156 q 183 154 185 154 m 183 188 q 219 176 186 176 q 217 193 219 193 q 208 179 214 193 l 183 188 m 147 243 l 147 229 q 161 186 147 186 l 165 188 l 200 231 q 147 243 200 243 m 140 274 l 140 265 l 194 265 q 183 300 194 300 l 140 274 m 114 331 q 123 306 114 324 q 136 289 132 289 q 167 308 151 289 q 183 343 183 326 l 132 351 q 122 342 129 351 q 114 331 114 333 m 169 421 q 136 403 154 421 q 114 369 118 386 l 185 369 q 181 401 185 381 q 169 421 176 421 m 97 433 q 97 427 97 432 q 96 419 96 422 q 106 401 96 403 q 122 410 108 403 q 142 422 136 418 q 157 431 147 425 q 170 442 167 438 q 174 453 174 447 l 106 471 q 97 433 97 471 m 114 565 l 97 478 q 183 547 183 517 q 164 567 183 560 q 132 574 144 574 q 114 565 131 574 m 183 507 q 152 501 172 507 q 132 488 132 494 l 132 478 l 183 478 l 183 507 m 122 590 q 168 582 164 582 q 146 599 168 599 q 135 595 143 599 q 122 590 126 592 m 183 651 q 200 642 186 642 q 210 642 207 642 q 215 647 213 643 q 217 660 217 651 q 183 651 192 660 m 192 744 q 163 692 163 725 q 217 711 217 692 l 192 744 m 243 750 q 256 736 243 736 q 268 744 268 736 l 243 754 l 243 750 m 679 763 q 706 751 681 751 l 717 753 q 731 754 726 754 q 715 768 731 758 q 697 779 699 778 q 686 772 693 779 q 679 763 679 765 m 635 807 q 663 786 635 786 q 675 787 667 786 q 688 788 683 788 q 635 807 676 807 m 276 832 q 332 804 292 804 q 325 833 332 817 q 307 849 318 849 q 276 832 290 849 m 610 842 q 619 813 610 813 q 636 822 631 813 q 610 842 622 842 m 490 882 q 517 860 500 869 q 555 844 533 851 q 585 832 576 836 l 603 847 q 515 886 575 886 l 517 890 q 517 897 517 894 q 508 908 517 908 q 490 899 492 899 q 487 903 488 900 q 483 908 486 907 q 465 908 479 908 q 407 889 415 908 l 449 889 q 429 864 429 881 l 483 864 l 490 882 m 363 874 q 371 857 363 861 q 381 873 376 860 q 389 889 385 886 q 363 874 363 889 z "},"1":{"ha":508,"x_min":60,"x_max":371,"o":"m 172 681 q 138 663 169 681 q 100 646 106 646 q 96 647 97 647 l 104 656 q 92 664 101 664 q 86 663 88 664 q 60 750 60 715 q 73 769 60 767 q 86 775 86 772 q 242 904 165 810 l 343 904 q 349 881 343 896 q 354 856 354 865 q 344 818 354 828 l 356 818 q 344 775 356 786 l 357 775 q 353 672 357 714 q 349 656 353 671 q 344 638 344 640 q 348 633 344 636 q 353 629 351 629 l 353 483 q 363 463 363 481 q 353 440 363 442 l 361 433 l 353 424 l 361 414 l 361 303 l 371 294 l 371 56 l 358 56 q 360 28 358 51 q 361 3 361 6 q 358 -7 361 0 q 353 -14 354 -14 l 310 -14 q 300 -1 311 -4 q 271 3 289 3 q 263 -2 268 3 q 258 -14 258 -7 q 207 64 207 33 q 215 82 207 78 l 206 82 q 215 167 206 140 q 217 338 215 233 q 219 490 219 443 q 199 638 219 615 q 197 650 197 642 q 194 663 196 658 q 191 672 193 667 q 184 678 189 676 q 172 681 179 681 m 242 72 q 335 25 242 25 l 335 89 l 318 99 q 344 143 344 108 q 335 185 344 185 q 308 180 326 185 q 285 175 290 175 q 320 194 299 175 q 342 226 342 213 l 301 226 q 311 233 303 228 q 324 240 319 238 q 332 249 328 243 q 336 263 336 256 q 331 275 336 272 q 310 278 325 278 q 336 313 336 293 q 318 331 336 331 q 327 338 321 332 q 335 347 333 344 q 301 433 335 433 q 285 424 289 433 q 318 449 299 442 l 318 526 l 310 535 l 318 544 l 318 860 q 307 865 318 863 q 285 869 296 868 l 274 869 q 258 860 261 869 l 268 851 q 202 800 240 839 q 147 750 164 761 q 129 740 144 747 q 109 726 114 733 q 104 701 104 718 q 163 726 133 701 q 203 750 193 750 q 242 732 225 750 q 231 714 231 729 q 242 699 231 706 q 237 686 242 694 q 232 672 232 678 q 249 593 246 625 q 251 469 251 561 q 251 401 251 442 q 250 356 250 360 q 261 303 261 344 l 274 303 q 275 296 275 299 q 258 288 268 288 q 254 233 258 267 q 250 183 250 200 q 251 174 250 176 q 256 169 251 171 q 268 167 260 167 q 249 122 249 154 q 276 131 261 122 q 310 140 292 140 q 272 113 303 131 q 242 72 242 96 m 310 64 l 313 64 q 320 61 314 64 q 326 56 326 58 q 285 47 303 47 q 310 64 297 60 m 301 835 l 310 835 q 274 813 301 822 q 242 800 246 803 q 301 835 265 835 z "},"2":{"ha":706,"x_min":32,"x_max":610,"o":"m 547 -12 l 419 -3 q 364 -15 408 -15 l 350 -15 l 350 -6 q 322 -13 339 -6 q 282 -22 304 -21 q 271 -17 282 -17 q 247 -19 260 -17 q 232 -22 233 -22 l 232 -12 l 129 -12 q 108 -2 115 -1 q 85 -8 100 -3 q 64 -14 71 -14 q 42 10 42 -14 l 43 22 l 188 175 q 251 259 192 192 q 310 350 310 326 q 309 353 310 351 q 308 357 308 356 q 419 542 419 485 l 419 572 q 428 600 419 581 q 438 622 438 619 l 436 629 q 362 759 401 718 q 240 800 322 800 q 181 790 206 800 q 147 768 157 781 q 124 742 138 756 q 93 725 110 729 l 103 715 q 94 692 103 706 q 75 679 85 679 q 32 792 32 679 q 50 819 32 811 q 49 811 49 817 q 56 790 49 803 q 64 769 64 778 q 96 783 81 769 q 111 814 111 796 q 103 834 111 825 q 85 844 96 843 q 93 861 93 853 q 165 907 104 893 q 274 921 225 921 q 531 793 425 921 q 549 749 542 779 q 565 707 557 719 q 564 612 565 644 q 553 533 563 579 q 522 450 543 488 q 393 278 457 354 q 358 242 383 267 q 315 197 332 217 q 299 167 299 178 q 556 133 299 133 l 556 117 q 567 121 558 117 q 579 125 576 125 q 608 26 608 125 q 609 15 608 24 q 610 1 610 6 q 590 -29 610 -29 q 547 -12 572 -29 m 179 22 q 224 11 181 11 q 257 13 246 11 q 285 21 268 14 q 311 47 303 28 q 319 99 319 67 l 308 99 l 239 29 q 232 39 232 29 q 258 72 232 47 q 283 103 283 97 q 274 115 283 111 q 231 96 251 115 q 202 64 210 76 q 179 22 194 51 m 167 39 q 154 34 163 39 q 144 29 146 29 q 149 28 146 29 q 154 28 151 28 q 171 39 165 28 l 167 39 m 342 39 l 342 28 q 380 35 375 28 q 385 82 385 42 l 342 39 m 461 72 l 429 39 q 444 38 442 38 q 471 56 471 38 q 461 72 471 69 m 486 68 q 500 38 486 38 q 520 62 507 38 q 533 100 533 86 q 526 100 532 100 q 517 100 519 100 q 510 99 515 100 q 502 97 504 99 q 496 94 500 96 q 490 88 492 92 q 488 80 489 85 q 486 68 486 75 m 547 90 l 522 39 l 565 39 l 556 90 l 547 90 m 410 99 q 408 80 410 92 q 403 58 406 68 q 401 47 401 49 l 410 47 l 454 90 q 410 99 449 99 m 356 100 q 335 64 335 100 l 368 99 q 361 100 367 99 l 356 100 m 328 269 l 308 269 q 277 234 308 268 q 209 152 246 200 q 163 72 172 104 q 216 94 194 72 q 260 165 238 117 q 290 226 282 213 q 310 247 293 232 q 328 269 328 263 m 342 314 q 331 296 331 307 l 351 296 q 342 314 351 308 m 350 335 q 357 326 350 331 q 368 321 364 321 q 387 338 375 324 q 397 357 399 353 q 350 335 379 357 m 389 389 q 378 372 378 389 l 379 372 q 403 382 381 372 q 389 389 396 389 m 410 411 q 414 406 410 408 q 424 401 418 403 q 432 397 431 399 l 436 399 l 454 433 q 441 429 453 433 q 419 421 429 425 q 410 411 410 417 m 499 511 q 461 497 461 511 q 479 483 461 483 q 499 511 499 483 m 479 578 l 514 561 q 532 640 532 582 q 531 669 532 646 q 531 699 531 693 l 514 725 l 471 681 q 469 676 469 679 q 492 658 469 664 q 514 636 514 653 l 494 614 q 476 582 476 590 q 479 578 476 578 m 471 793 q 444 758 464 772 l 499 758 q 471 793 499 765 m 390 846 q 403 793 390 793 q 414 796 406 793 q 434 803 422 799 q 454 810 446 807 q 425 834 444 822 q 390 846 406 846 m 144 826 q 163 818 144 818 q 192 832 172 818 q 224 846 211 846 q 228 845 225 846 q 232 844 231 844 l 257 876 q 250 877 256 876 q 243 878 244 878 q 144 826 144 878 m 378 844 q 350 826 360 838 q 366 827 361 826 q 374 832 371 828 q 378 844 378 836 m 290 875 q 247 844 271 875 l 342 844 q 353 872 353 844 q 320 867 339 872 q 290 863 301 863 l 290 875 z "},"3":{"ha":733,"x_min":42,"x_max":651,"o":"m 61 28 l 42 28 q 94 183 42 111 q 103 185 101 185 q 122 171 108 185 q 139 157 136 157 q 148 160 142 157 q 154 165 154 164 q 331 114 243 114 q 449 141 410 114 q 489 239 489 168 q 438 371 489 294 q 442 378 442 375 q 332 423 442 397 q 222 454 222 449 q 224 457 222 456 q 206 449 222 457 q 154 478 154 457 q 167 528 154 492 q 189 568 181 564 q 242 567 211 567 q 464 654 464 567 q 368 799 464 754 q 314 801 351 801 q 222 786 282 801 q 131 771 161 771 q 112 820 131 786 q 93 874 93 854 q 211 910 93 892 q 379 929 329 929 q 542 854 485 929 q 600 671 600 779 q 592 621 600 638 q 573 592 589 615 q 544 545 557 568 q 532 511 532 522 q 538 503 532 508 q 553 491 544 497 q 565 483 563 485 q 636 369 621 433 q 651 203 651 304 q 642 169 651 181 q 633 151 633 158 q 634 142 633 149 q 635 132 635 136 q 575 43 635 100 q 476 -14 515 -14 l 414 -15 q 339 -17 351 -17 q 292 -16 324 -17 q 233 -15 260 -15 q 206 -14 207 -14 q 61 21 61 4 l 61 28 m 121 11 l 154 3 l 154 11 l 121 11 m 386 63 q 393 40 389 60 q 407 21 397 21 q 438 25 429 21 q 452 47 446 29 q 463 71 458 64 l 472 63 q 497 97 483 72 l 497 89 q 486 67 492 76 q 479 51 481 57 q 478 31 478 46 q 561 81 513 31 q 610 165 610 131 q 600 200 610 192 l 628 200 q 626 265 628 240 q 621 326 625 290 q 607 383 617 361 q 581 425 597 404 q 537 456 564 446 q 474 465 510 465 q 447 464 457 465 l 453 465 q 467 469 460 467 q 481 475 474 471 q 489 483 488 479 q 479 492 481 492 q 463 483 471 492 l 411 500 q 497 542 453 510 q 542 611 542 574 q 526 631 542 621 q 500 640 511 640 q 421 551 500 582 q 428 535 428 546 q 417 522 428 528 q 388 511 406 517 q 360 500 369 506 l 368 492 l 317 492 l 326 500 l 292 500 l 308 518 l 265 518 l 265 532 q 196 504 196 532 q 223 481 196 488 q 287 475 250 475 q 326 474 324 475 q 398 444 347 469 q 479 419 449 419 q 476 404 479 408 q 472 397 472 400 q 479 381 472 388 l 497 388 l 489 397 l 549 397 q 525 388 546 388 q 497 371 504 388 q 508 346 503 371 q 517 293 513 321 q 524 260 521 265 q 565 226 531 244 l 532 226 l 532 149 q 504 114 524 142 l 504 132 q 476 114 500 129 q 436 87 451 99 q 411 63 421 75 l 411 82 q 382 76 399 82 q 356 71 365 71 q 300 81 308 81 q 260 64 283 81 q 238 28 238 47 q 270 37 250 28 q 300 46 290 46 l 300 18 q 386 63 382 18 m 224 97 q 178 72 204 97 q 151 28 151 47 q 224 71 199 28 q 213 38 213 60 l 224 38 l 265 81 q 224 97 232 97 m 86 58 q 118 46 86 46 q 142 58 128 46 q 163 85 157 71 l 138 85 q 154 101 140 94 q 172 114 168 108 q 160 125 168 119 q 141 135 151 131 q 129 140 131 139 q 98 110 110 140 q 86 58 86 81 m 539 132 q 540 136 539 133 q 540 140 540 139 q 560 110 560 111 q 558 107 558 108 q 539 132 539 114 m 540 268 q 574 251 563 268 l 565 243 l 540 268 m 532 303 l 540 303 q 592 286 561 303 l 572 286 q 532 303 544 286 m 565 350 l 565 338 l 583 338 q 561 328 581 328 l 556 328 q 549 329 550 329 q 565 350 549 350 m 374 535 q 343 525 353 535 l 354 525 q 386 535 376 525 l 374 535 m 504 654 l 554 636 q 567 672 561 636 q 574 724 574 708 q 561 742 574 742 q 552 740 558 742 q 543 739 546 739 q 532 749 533 739 q 543 747 536 747 q 560 768 560 747 q 558 782 560 782 l 514 833 q 506 835 510 835 q 467 828 493 835 q 417 822 440 822 q 431 810 417 817 q 458 801 444 804 l 472 799 l 454 792 q 483 742 465 785 q 504 697 501 700 l 497 679 l 514 671 q 504 654 504 671 m 247 808 q 247 813 247 808 q 240 818 247 818 q 233 808 233 818 q 240 799 233 799 q 247 808 247 799 m 251 856 q 197 833 213 853 l 221 833 q 251 856 251 833 m 467 868 q 423 856 443 867 q 403 833 403 846 q 438 839 417 835 q 474 847 458 843 l 489 850 q 467 868 476 868 m 144 842 q 144 846 144 842 q 138 850 144 850 q 131 842 131 850 q 138 833 131 833 q 144 842 144 833 m 292 850 q 308 843 299 843 q 317 850 317 843 l 292 850 m 368 885 q 356 889 368 889 q 343 886 343 889 q 356 882 343 882 q 368 885 367 882 z "},"4":{"ha":799,"x_min":6,"x_max":631,"o":"m 400 -1 q 401 30 400 3 q 401 76 401 57 q 386 201 401 172 q 321 231 371 231 l 321 240 q 304 231 318 231 l 297 240 q 283 235 292 240 q 268 229 275 229 q 244 240 249 229 q 180 227 244 233 q 89 221 115 221 l 89 231 q 83 226 89 229 q 74 222 76 222 q 63 231 71 231 q 53 229 57 231 q 47 226 50 228 q 39 222 43 224 l 39 233 q 22 234 28 233 q 11 242 17 235 q 6 261 6 249 q 24 295 6 271 q 67 347 43 319 q 99 386 92 374 q 122 417 104 392 q 143 446 139 443 q 224 600 171 518 q 297 719 278 682 l 297 722 q 299 728 299 725 q 297 733 299 729 l 297 736 q 356 871 322 808 q 413 933 390 933 q 457 924 429 933 q 500 914 485 914 q 510 890 500 907 q 519 857 519 874 q 515 618 519 783 q 510 376 510 453 l 519 361 l 613 361 q 624 317 618 361 q 631 264 631 272 q 519 242 631 242 l 519 -8 l 408 -8 l 400 -1 m 433 75 q 460 32 433 32 q 485 47 485 32 q 467 62 485 58 q 449 75 449 65 q 459 103 449 86 q 469 129 469 119 l 443 129 q 440 119 442 129 q 435 97 438 110 q 433 75 433 83 m 468 181 q 433 154 438 181 l 468 154 l 468 181 m 415 197 q 433 188 419 188 q 465 215 465 188 q 415 197 425 215 m 460 249 q 424 231 443 249 l 426 231 q 433 230 429 231 q 440 229 436 229 q 468 242 468 229 q 460 249 468 249 m 443 265 q 415 257 425 265 l 424 256 q 449 265 439 256 l 443 265 m 135 308 q 88 295 114 308 q 63 263 63 282 q 77 263 67 263 q 91 263 88 263 q 103 263 94 263 q 117 265 113 264 q 128 267 121 265 q 139 272 135 269 q 149 280 143 275 q 158 290 154 285 q 154 281 154 283 q 200 265 154 265 q 242 270 228 265 q 265 283 257 275 q 297 317 274 290 q 265 308 289 317 q 222 290 242 299 l 203 282 l 194 283 q 217 301 196 286 q 239 326 239 315 q 205 322 221 326 q 165 305 189 317 q 133 290 140 293 l 125 290 q 135 308 135 299 m 304 274 q 390 265 335 265 l 390 274 l 347 290 q 304 274 333 290 m 549 317 l 503 300 l 503 290 l 585 290 q 549 317 585 317 m 408 350 q 390 328 406 333 q 358 324 375 322 q 326 320 340 325 q 313 299 313 315 q 388 314 339 299 q 449 350 436 329 l 408 350 m 460 333 q 400 300 450 333 q 408 300 401 300 l 415 299 q 476 317 444 299 q 470 327 476 321 q 460 333 464 333 m 179 369 q 140 365 149 369 q 115 333 132 360 q 179 369 179 333 m 236 394 q 336 367 274 367 q 376 439 376 367 q 356 592 376 553 q 326 547 350 588 q 274 458 301 507 q 236 394 246 408 m 468 396 q 433 376 446 396 l 468 376 l 468 396 m 196 411 q 154 392 154 411 q 196 411 196 392 m 443 435 q 407 407 407 435 q 421 400 407 400 q 465 426 450 400 q 479 483 479 453 q 444 473 464 483 q 424 450 424 463 q 431 441 424 447 q 443 435 438 435 m 218 457 q 176 429 185 457 q 199 435 181 429 q 218 446 218 442 l 218 457 m 254 496 q 208 465 208 489 q 239 472 224 465 q 254 496 254 479 m 407 496 q 424 478 407 478 q 452 489 436 478 q 468 511 468 500 q 433 524 468 524 q 413 517 418 524 q 407 496 407 511 m 238 517 q 227 510 238 514 q 211 506 217 506 l 217 506 q 224 504 222 504 q 274 526 250 504 q 297 574 297 547 q 228 532 236 546 q 238 517 238 532 m 414 557 q 468 532 414 532 l 468 583 q 435 574 457 583 q 414 557 414 564 m 285 600 q 276 600 282 600 q 256 597 260 600 q 251 572 251 593 q 298 590 276 572 q 333 631 319 608 q 368 674 346 653 q 415 701 390 696 l 415 711 l 340 711 q 323 694 332 711 q 314 669 314 678 q 321 661 314 661 l 304 642 l 297 651 q 279 625 292 635 q 288 617 288 622 l 286 611 q 285 600 285 606 m 408 607 l 400 582 l 406 581 q 413 581 411 581 q 446 597 446 581 q 443 599 444 599 l 408 607 m 415 625 q 443 617 424 617 q 473 625 467 617 q 479 653 479 633 q 478 674 479 658 q 476 694 476 690 l 468 701 l 424 685 q 447 674 425 674 q 456 674 451 674 q 464 675 461 675 l 468 676 q 442 644 467 661 q 415 625 418 628 m 388 661 q 403 632 388 632 q 409 636 404 632 q 419 647 414 640 q 424 661 424 654 l 388 661 m 375 736 l 460 728 l 476 736 l 476 872 q 457 883 476 883 q 404 861 426 883 q 382 806 382 839 q 418 815 394 806 q 454 824 442 824 l 461 822 q 468 822 467 822 q 390 788 460 814 q 412 784 394 788 q 433 779 429 781 l 446 781 q 413 756 446 763 q 375 736 381 749 m 369 764 q 346 743 346 764 q 365 752 354 743 q 382 763 376 761 q 375 764 381 763 l 369 764 z "},"5":{"ha":736,"x_min":53,"x_max":629,"o":"m 215 -22 q 187 -24 213 -22 q 157 -25 161 -25 q 97 18 140 -24 q 53 81 53 60 q 63 138 53 104 q 92 171 74 171 q 190 149 122 171 q 294 128 258 128 q 378 143 354 128 q 440 214 403 158 l 440 218 q 422 249 440 231 q 447 264 436 250 q 457 292 457 278 q 451 305 457 299 q 446 315 446 311 l 456 315 q 413 399 456 369 q 311 429 371 429 l 303 425 q 293 419 294 419 l 286 429 q 278 428 285 429 q 267 428 271 428 q 157 454 256 428 q 147 463 150 461 q 121 454 136 463 q 96 489 96 454 q 109 599 96 526 q 122 707 122 671 q 118 742 122 719 q 114 775 114 764 q 120 853 114 797 q 131 908 126 908 l 243 908 l 250 900 l 260 908 q 378 917 301 908 q 496 926 456 926 q 519 926 499 926 q 542 925 539 925 l 535 917 q 539 917 536 917 l 542 918 q 568 808 568 918 q 432 785 568 785 l 432 796 l 414 789 l 268 789 l 268 617 q 304 608 268 608 q 322 601 319 608 q 329 590 325 593 q 351 581 340 583 q 374 578 361 579 q 396 575 388 576 q 492 542 458 550 q 515 522 497 539 q 538 504 532 504 q 542 506 540 504 q 629 306 629 439 q 624 255 629 279 q 608 201 618 231 q 593 154 597 171 l 499 60 l 492 60 l 492 43 q 432 8 492 39 q 326 -23 393 -10 q 215 -36 258 -36 l 215 -22 m 131 40 q 162 9 131 18 q 221 0 193 0 q 287 13 243 0 q 346 35 331 25 l 346 60 q 372 43 363 43 q 406 50 381 43 q 384 79 393 72 q 360 86 375 86 q 324 81 346 86 q 286 75 301 75 l 286 40 q 272 53 275 40 q 260 69 268 65 l 261 67 q 261 59 261 64 q 261 50 261 54 q 250 25 261 26 q 243 49 247 33 q 235 71 239 64 q 226 87 232 78 q 209 100 219 96 q 182 104 199 104 q 148 79 165 104 q 131 40 131 54 m 88 74 q 92 63 88 68 q 100 58 96 58 q 110 67 106 58 l 114 76 l 121 69 q 133 81 126 72 q 143 100 139 89 l 147 110 q 131 119 140 119 q 100 106 113 119 q 88 74 88 93 m 388 94 q 408 81 389 93 q 433 69 426 69 q 443 74 438 69 q 449 81 449 78 q 438 99 449 92 q 414 106 426 106 q 388 94 400 106 m 440 133 q 447 108 443 114 q 464 103 451 103 q 508 119 488 103 q 487 144 501 122 q 451 165 472 165 q 481 133 451 136 l 440 133 m 475 179 q 504 158 482 174 q 528 143 526 143 q 549 165 536 143 q 561 199 561 186 q 475 179 479 199 m 481 249 q 517 222 490 231 q 564 214 543 214 q 588 275 588 232 q 481 249 517 275 m 525 293 q 499 282 501 293 q 508 281 500 282 q 517 281 515 281 q 542 292 540 281 l 533 292 q 525 293 526 293 m 507 325 q 556 300 507 300 q 578 301 572 300 q 588 306 583 301 q 593 321 593 310 q 585 360 588 350 q 507 325 507 360 m 492 360 q 494 355 492 358 q 499 351 497 351 q 535 369 526 351 q 492 360 510 369 m 560 419 q 515 385 515 406 q 547 390 525 385 q 568 403 568 396 q 560 419 568 411 m 496 410 q 475 403 482 410 l 481 401 q 499 410 497 401 l 496 410 m 517 464 q 465 429 500 464 l 475 429 q 490 432 476 429 q 519 438 503 435 q 542 444 536 442 q 517 464 535 464 m 478 471 q 411 442 411 471 q 492 471 449 442 l 478 471 m 363 488 q 303 463 313 479 l 311 463 q 343 469 322 463 q 364 483 364 475 l 363 488 m 431 506 q 397 483 418 504 q 372 463 375 463 q 408 470 382 464 q 454 482 433 476 l 475 488 l 481 497 q 440 506 472 506 l 431 506 m 140 497 q 246 479 193 479 l 268 481 q 299 501 279 485 q 319 524 319 518 l 319 531 q 211 515 286 515 l 210 518 q 208 522 208 521 q 226 542 224 539 q 208 567 226 557 q 158 547 176 567 q 140 497 140 528 m 367 532 q 338 525 349 532 q 311 497 328 518 q 324 496 322 496 q 396 524 385 496 q 367 532 386 532 m 215 610 q 200 600 206 610 l 215 600 l 215 610 m 190 642 q 162 633 178 642 q 146 611 146 624 l 147 608 q 190 642 175 622 m 169 694 q 165 692 168 694 q 160 686 163 690 q 157 675 157 682 l 175 693 q 169 694 174 693 m 175 772 l 157 754 l 161 753 q 167 756 164 753 q 174 764 171 760 l 176 767 l 175 772 m 465 832 q 492 822 478 822 q 518 827 501 822 q 535 839 535 832 q 508 875 535 860 l 465 832 m 196 867 q 147 847 157 867 q 157 847 149 847 l 165 846 q 208 865 194 846 q 201 867 207 865 l 196 867 z "},"6":{"ha":764,"x_min":63,"x_max":721,"o":"m 279 0 q 263 -1 278 0 q 244 -1 249 -1 q 201 29 233 -1 q 168 72 168 60 q 88 185 113 108 q 63 342 63 261 q 73 398 63 361 q 83 453 83 435 q 83 460 83 456 q 82 468 82 465 q 197 724 135 625 q 374 879 260 822 q 394 893 379 883 q 419 908 410 903 q 442 919 428 914 q 468 924 456 924 q 512 894 479 924 q 544 851 544 864 q 544 842 544 846 q 542 835 543 838 q 538 833 542 833 q 533 832 535 832 q 526 832 532 832 q 518 832 521 832 l 518 821 l 364 667 l 313 581 l 313 565 q 359 568 329 565 q 403 571 389 571 q 453 562 415 571 q 507 553 490 553 q 518 554 514 553 q 649 453 593 514 q 704 324 704 393 l 721 324 q 706 177 721 236 q 638 74 690 118 q 603 49 626 67 q 565 19 581 32 q 544 7 549 7 l 540 11 q 535 15 536 15 q 510 -11 517 15 l 500 -1 q 479 -18 500 -12 q 438 -22 458 -24 q 417 -11 417 -19 q 413 -22 417 -15 q 403 -28 408 -28 l 357 -28 q 279 0 279 -28 m 356 15 q 376 6 357 6 q 402 7 389 6 q 426 10 415 8 q 449 17 436 13 q 469 24 461 22 q 490 34 476 26 q 508 44 503 42 q 528 58 514 47 q 547 71 543 68 q 567 85 550 74 q 586 100 583 97 l 604 100 q 613 108 606 100 q 631 127 621 117 q 646 143 642 138 q 682 246 682 183 q 677 263 682 253 q 668 274 672 274 l 664 272 q 642 255 663 268 q 621 238 621 242 q 643 229 638 229 q 649 231 644 229 q 663 232 654 232 q 626 191 663 203 q 579 160 589 179 l 586 151 l 553 135 q 563 118 563 131 l 561 110 q 504 83 533 99 q 462 63 475 68 q 416 53 449 57 q 329 49 383 49 l 347 68 q 271 93 282 92 q 272 99 272 94 q 253 117 272 108 q 226 125 235 125 l 235 135 q 203 185 215 161 q 194 205 203 188 q 185 229 185 222 q 189 239 185 231 l 193 246 q 188 269 193 253 q 183 307 183 286 q 193 365 183 344 q 185 375 193 375 l 201 397 l 150 397 q 158 408 153 401 q 165 417 163 414 q 170 424 167 419 q 177 430 174 428 q 185 435 181 432 q 196 440 190 438 q 210 443 201 442 q 189 428 206 438 q 172 406 172 418 q 229 420 196 406 q 263 456 263 435 l 238 456 q 236 467 238 457 q 235 482 235 478 q 244 535 243 524 l 210 535 q 261 567 261 535 q 253 581 261 581 l 278 606 q 270 615 278 611 q 246 621 263 618 q 226 624 229 624 q 285 633 267 624 q 321 674 303 643 q 313 675 314 675 l 244 657 q 292 685 253 675 q 338 700 331 696 l 329 708 q 374 743 363 714 q 349 750 361 743 q 338 769 338 757 q 351 764 346 769 q 363 758 357 758 q 435 791 393 758 q 500 854 478 824 q 458 872 475 872 q 431 860 458 871 q 369 835 404 850 q 321 811 335 819 q 261 751 299 796 q 226 698 253 742 q 200 651 200 654 l 210 632 l 193 632 l 150 589 l 150 581 l 158 581 q 115 485 158 547 l 124 479 q 106 399 124 454 q 89 319 89 343 q 94 303 89 313 q 100 276 100 293 q 100 264 100 272 l 99 256 q 116 246 110 256 q 122 225 122 236 l 150 225 q 128 219 133 225 q 124 200 124 213 q 131 172 124 189 q 149 156 139 156 q 158 160 154 156 q 149 149 149 150 q 156 135 149 144 q 168 125 163 126 q 179 115 175 125 q 199 82 183 106 q 244 32 214 58 q 278 40 247 32 q 313 49 308 49 q 295 35 308 42 q 278 24 282 29 l 288 15 l 356 15 m 271 160 q 399 100 376 100 q 521 156 479 100 q 563 293 563 211 q 524 402 563 361 q 418 443 486 443 l 321 426 q 282 399 314 425 q 239 374 250 374 q 235 375 236 374 q 226 290 226 344 q 233 245 226 265 q 252 199 239 225 q 271 160 265 174 m 629 163 l 629 151 q 607 140 625 146 q 579 135 589 135 q 597 147 585 140 q 619 158 610 154 l 629 163 m 625 214 q 594 200 594 214 l 594 197 l 596 194 q 625 214 625 199 m 604 289 l 604 263 q 638 274 619 263 q 664 297 656 285 l 604 289 m 611 332 q 607 317 611 325 q 603 303 603 310 l 617 303 q 672 315 661 303 q 656 365 672 329 q 555 483 608 444 q 418 521 501 521 q 384 520 393 521 q 362 514 375 519 q 338 494 349 508 q 374 504 353 504 l 347 479 q 424 504 414 479 q 443 486 433 486 q 514 457 481 486 q 570 397 547 428 q 604 365 593 367 q 592 332 592 364 l 611 332 m 321 513 q 292 496 307 513 q 278 468 278 479 l 329 511 q 321 513 324 513 m 158 536 l 193 536 l 193 525 q 158 536 163 525 m 313 718 q 296 714 308 714 q 278 718 278 714 q 294 722 278 722 q 313 718 313 722 m 329 743 q 317 739 328 739 q 304 744 304 739 q 317 747 304 747 q 329 744 329 747 l 329 743 z "},"7":{"ha":669,"x_min":38,"x_max":663,"o":"m 139 1 l 140 17 l 339 489 q 414 719 354 579 l 407 746 q 306 755 406 747 q 179 763 207 763 q 163 763 175 763 q 144 763 151 763 q 123 763 136 763 q 101 763 110 763 q 82 765 93 764 q 64 768 71 767 q 51 772 57 769 q 41 779 44 775 q 38 788 38 783 q 47 839 38 807 q 56 888 56 871 q 55 893 56 889 q 54 900 54 897 q 110 907 82 907 q 281 903 168 907 q 449 900 393 900 q 536 903 479 900 q 621 907 593 907 q 644 901 625 907 q 663 892 663 896 l 663 814 l 518 540 q 488 472 514 515 q 458 403 463 428 q 346 189 428 351 q 313 108 339 175 q 261 8 286 42 q 269 -8 261 0 l 251 -25 l 158 -25 q 144 -21 149 -25 q 140 -12 140 -17 q 139 1 139 -8 m 200 31 q 224 17 200 17 q 249 34 240 17 q 258 73 257 51 q 266 117 260 94 q 286 146 272 139 l 278 154 q 300 189 300 167 l 286 189 q 317 227 300 199 q 346 267 333 256 l 339 275 q 372 335 372 296 q 329 308 351 318 q 359 334 338 318 q 394 366 381 350 q 408 403 408 382 l 388 403 q 372 421 388 421 q 346 390 346 421 q 364 360 346 367 q 333 343 346 360 q 317 312 321 326 q 313 292 313 297 l 321 283 q 286 240 286 268 q 290 235 286 239 q 294 231 293 231 q 240 142 279 229 q 200 31 200 56 m 424 481 l 382 481 q 369 433 369 481 q 381 433 372 433 q 396 432 390 432 q 433 464 433 432 q 382 444 400 444 q 403 463 388 454 q 424 481 419 472 m 414 514 q 431 506 415 506 q 463 519 450 506 q 476 550 476 532 q 414 514 458 550 m 458 575 l 407 575 q 402 567 404 575 q 399 550 400 558 l 397 540 q 458 575 432 554 m 458 608 q 490 600 469 600 q 506 610 500 601 q 513 629 513 619 q 458 608 488 629 m 458 643 q 419 625 422 643 q 458 643 444 625 m 483 678 q 494 678 486 678 q 506 679 501 679 q 544 668 532 679 q 560 703 549 697 q 483 678 493 703 m 510 771 l 500 771 q 467 744 488 771 q 447 701 447 718 q 493 722 476 701 q 510 771 510 742 m 604 832 q 560 771 604 808 q 610 796 592 771 q 628 856 628 821 l 572 856 q 588 845 572 847 q 604 832 604 843 m 72 856 l 72 814 q 75 815 72 815 q 101 809 78 815 q 135 803 125 803 l 136 804 q 140 808 138 806 q 147 812 143 810 q 158 817 151 814 q 175 822 165 819 l 167 806 l 294 806 q 321 822 311 822 q 330 818 324 822 q 342 814 336 814 q 389 849 363 814 q 372 847 383 847 q 322 852 356 847 q 272 857 289 857 q 229 844 256 857 q 192 831 203 831 q 211 860 211 843 q 97 849 128 860 l 97 856 l 72 856 m 539 850 q 490 806 490 850 q 560 849 538 818 q 539 850 557 850 z "},"8":{"ha":813,"x_min":64,"x_max":717,"o":"m 161 53 q 91 118 118 53 q 64 232 64 183 q 69 282 64 258 q 84 338 74 306 q 99 383 94 371 q 145 431 115 406 q 192 473 175 456 q 210 506 210 490 l 167 549 q 150 587 167 550 q 116 665 133 624 q 99 719 99 706 q 170 849 99 796 q 321 907 242 901 q 358 917 331 907 q 406 926 386 926 q 560 869 489 926 q 631 733 631 813 q 622 710 631 714 l 622 650 q 584 595 617 647 q 536 531 551 543 q 520 524 528 525 q 510 522 513 524 q 508 513 508 521 q 553 464 508 504 q 644 374 599 424 q 689 290 689 324 l 697 290 q 707 251 697 278 q 717 208 717 224 q 711 201 717 206 q 706 193 706 196 q 717 178 706 182 q 712 162 715 172 q 706 148 708 151 q 701 139 704 144 q 692 132 697 133 q 681 131 688 131 q 674 85 681 106 q 651 49 668 65 q 622 24 633 33 q 581 3 611 14 q 542 -10 551 -7 q 497 -23 532 -14 q 458 -33 461 -32 l 440 -39 q 415 -43 422 -43 q 261 -12 361 -43 q 161 53 161 18 m 244 33 q 263 36 256 36 q 309 22 279 36 q 358 7 339 7 q 367 7 364 7 q 373 8 369 7 q 378 13 376 10 q 380 20 379 15 q 381 33 381 25 q 347 76 381 67 q 313 42 335 58 l 307 44 q 300 46 301 46 q 302 63 300 54 q 304 72 304 71 q 294 85 304 76 q 279 93 285 93 l 235 50 l 244 33 m 421 72 q 410 69 415 72 q 403 62 406 67 q 399 51 401 57 q 397 38 397 46 q 397 26 397 31 q 397 14 397 21 q 397 6 397 7 q 451 17 451 6 l 433 68 q 421 72 431 72 m 453 78 l 453 68 q 479 17 453 17 q 531 29 494 17 q 579 50 567 42 q 568 65 575 56 q 556 80 561 74 q 551 88 551 86 q 561 111 551 89 q 578 88 567 107 q 600 68 589 68 q 616 76 610 68 q 622 93 622 83 q 610 113 622 100 q 597 128 597 125 q 596 140 596 131 q 593 156 596 149 q 582 163 590 163 q 575 158 579 163 q 569 154 571 154 l 586 136 q 543 120 568 133 q 510 93 518 107 q 514 81 510 92 l 517 71 q 485 74 506 71 q 453 78 465 78 m 183 81 q 210 68 183 68 q 228 79 221 68 q 236 103 236 90 l 236 107 l 235 111 l 185 85 q 183 81 183 82 m 150 111 q 153 106 150 110 q 160 103 157 103 q 185 111 176 103 l 150 111 m 288 136 q 333 126 296 135 q 392 118 371 118 q 506 147 458 118 q 554 236 554 175 q 544 276 554 247 q 535 315 535 304 q 536 325 535 322 q 339 419 467 419 q 294 405 322 419 q 267 375 267 390 q 269 368 267 374 l 219 239 q 218 232 218 233 q 233 172 218 192 q 288 136 249 153 m 596 203 q 646 111 596 149 q 664 160 664 132 q 648 178 664 169 q 622 188 632 188 l 631 196 l 613 232 l 622 232 l 672 178 l 682 188 l 682 257 q 661 267 682 267 q 597 257 635 267 q 600 248 597 256 q 603 239 603 240 q 596 203 596 236 m 200 154 q 165 149 182 156 q 149 126 149 142 q 200 154 200 126 m 106 206 q 132 144 106 163 q 175 175 172 156 l 138 175 q 132 186 132 181 q 151 211 132 196 q 169 235 169 226 q 154 235 165 235 q 140 235 143 235 q 128 234 136 235 q 118 231 121 233 q 112 226 115 229 q 107 218 108 224 q 106 206 106 213 m 167 196 l 167 188 l 175 196 l 167 196 m 204 318 q 193 333 204 322 l 210 350 q 161 368 203 368 q 118 334 132 368 q 104 265 104 300 l 140 265 q 115 247 119 256 l 175 247 q 185 257 181 247 q 167 275 185 275 q 160 274 161 275 q 187 292 169 278 q 204 318 204 307 m 578 313 q 590 281 578 294 q 622 268 603 268 q 613 300 622 288 l 617 301 q 638 291 624 301 q 657 281 651 281 l 664 282 l 660 290 q 656 303 656 299 q 657 307 656 306 q 603 342 622 342 q 585 333 592 342 q 578 313 578 324 m 544 360 q 575 349 556 349 l 586 350 l 561 368 q 603 360 579 368 l 603 376 q 572 411 603 385 q 532 438 542 438 q 485 428 497 431 q 550 397 535 397 l 551 397 l 553 399 q 544 360 553 389 m 185 376 q 219 368 201 368 q 224 372 221 368 q 226 376 226 375 q 224 381 226 378 q 219 383 221 383 q 185 376 213 383 m 210 428 l 208 428 q 183 409 203 428 q 160 383 163 390 q 235 403 199 383 l 210 428 m 226 440 q 225 439 225 440 q 229 433 225 438 q 235 428 233 428 l 226 428 q 263 438 235 435 q 296 453 292 440 q 269 472 288 472 q 242 462 258 472 q 226 440 226 451 m 415 453 q 442 443 431 443 q 475 463 460 443 q 446 489 472 489 q 430 484 435 489 q 426 474 425 479 q 426 462 428 468 q 415 453 424 456 m 485 453 l 485 443 q 510 453 506 443 l 485 453 m 313 471 l 313 463 l 347 463 q 313 471 331 471 m 167 635 l 185 599 q 279 489 271 489 l 364 489 q 303 515 335 489 q 251 570 272 540 q 213 626 231 600 q 189 651 194 651 q 178 644 188 651 q 167 635 168 638 m 468 543 q 392 506 414 543 l 458 506 q 465 523 461 506 q 468 543 468 540 m 244 650 q 287 586 254 618 q 350 554 319 554 q 452 603 403 554 q 501 701 501 651 q 478 782 501 750 q 410 814 456 814 q 349 812 372 814 q 293 801 326 810 q 243 771 260 793 q 226 714 226 749 q 232 683 226 704 q 238 650 238 663 l 244 650 m 522 601 q 488 585 511 601 q 458 556 465 568 q 465 556 460 556 l 471 554 q 513 567 492 554 q 536 599 535 581 q 522 601 531 601 m 528 635 q 554 624 539 624 q 574 633 567 624 q 581 656 581 643 q 528 635 533 656 m 140 732 q 147 681 140 714 q 163 649 153 649 l 167 650 q 177 658 171 653 q 185 668 183 663 q 177 718 185 704 q 140 732 169 732 m 533 696 q 553 668 533 668 q 579 676 565 668 q 533 696 564 696 m 543 724 q 583 703 543 703 q 592 709 586 703 q 597 718 597 715 q 586 743 597 736 l 544 728 q 543 724 543 725 m 256 842 q 188 810 218 842 q 158 742 158 779 q 179 750 179 742 q 178 756 179 751 q 178 764 178 761 q 191 780 178 778 q 210 788 204 782 q 201 804 210 804 q 256 842 256 815 m 518 788 q 553 778 526 778 q 586 788 586 778 q 583 810 586 806 q 567 814 579 814 q 518 788 538 814 m 485 822 q 510 804 496 804 q 544 829 544 810 q 515 866 544 849 q 465 883 486 883 q 445 874 458 883 q 432 851 432 865 q 485 831 432 831 l 493 831 l 485 822 m 440 890 q 381 880 408 886 q 339 869 353 874 q 324 865 325 865 q 269 856 269 865 l 269 836 q 371 852 300 836 q 442 885 442 868 q 441 888 442 886 q 440 890 440 889 m 440 915 q 435 908 435 915 q 440 900 435 900 q 449 907 449 900 q 440 915 449 915 z "},"9":{"ha":792,"x_min":36,"x_max":671,"o":"m 185 3 q 174 21 185 14 q 242 50 194 33 q 311 81 289 67 q 431 200 381 122 q 481 356 481 278 q 408 337 454 356 q 338 318 363 318 q 301 321 313 318 q 260 333 301 333 l 260 343 q 165 364 194 343 q 159 374 163 365 q 139 383 156 383 l 139 389 q 36 639 36 461 q 68 773 36 717 q 156 858 100 829 q 274 900 211 888 q 411 913 336 913 q 556 851 494 913 q 644 712 618 790 q 671 556 671 633 q 667 504 671 529 q 660 463 664 479 q 646 419 657 447 q 632 384 635 392 q 613 343 629 376 q 593 304 596 310 q 576 254 588 294 q 551 190 565 214 q 515 167 536 167 q 328 -22 515 75 l 338 -4 q 305 -26 313 -4 q 285 -47 297 -47 q 244 -12 276 -29 q 185 3 213 6 m 260 13 q 278 3 261 3 q 363 48 297 3 q 457 122 429 93 q 477 153 465 131 q 499 183 489 175 l 489 192 q 513 221 499 199 q 526 250 526 243 q 522 255 526 251 q 517 261 517 258 q 558 332 529 274 q 601 397 588 390 l 593 407 q 604 432 604 408 l 596 432 q 608 456 596 442 q 621 483 621 469 l 558 483 q 628 508 582 508 l 628 565 q 583 549 603 565 q 546 509 564 533 q 517 476 528 485 q 484 460 507 469 q 450 437 461 450 q 439 397 439 424 q 495 428 472 401 q 539 456 518 456 l 543 450 q 535 438 539 447 q 528 419 531 428 l 525 411 q 537 377 525 397 q 558 356 549 357 q 515 307 515 346 q 525 286 515 288 q 507 275 513 286 q 497 249 501 264 q 489 226 493 233 q 439 142 446 163 l 338 39 q 260 13 335 36 m 432 369 l 396 351 q 432 369 418 351 m 182 407 l 182 397 q 235 374 182 392 q 294 356 288 356 q 346 385 301 356 q 396 424 390 414 q 345 415 379 424 q 293 407 311 407 l 293 419 q 235 397 263 419 q 242 424 242 421 l 182 407 m 422 424 q 344 364 385 411 l 350 364 q 358 363 357 363 q 401 380 379 363 q 424 419 424 397 l 422 421 q 422 424 422 422 m 199 458 q 157 414 160 429 l 165 414 q 217 432 217 414 q 199 458 217 446 m 114 450 q 132 424 125 442 q 182 467 163 443 q 114 450 125 467 m 182 608 q 221 502 182 539 q 331 465 260 465 q 473 510 413 465 q 533 633 533 556 q 505 708 533 671 q 476 751 476 746 q 463 762 474 751 q 442 782 451 772 l 432 792 q 371 800 374 800 q 231 747 281 800 q 182 608 182 694 m 144 528 q 146 524 144 526 q 147 518 147 521 q 128 494 147 511 q 110 475 110 478 q 182 483 150 475 q 178 502 182 486 q 165 535 174 518 q 149 553 157 553 q 106 528 125 553 l 144 528 m 96 508 l 96 500 q 114 508 108 500 l 96 508 m 79 553 l 96 533 l 114 560 q 79 553 81 560 m 575 574 q 578 565 575 571 q 585 560 581 560 q 628 594 628 592 q 619 621 628 608 l 576 578 q 575 574 575 575 m 147 594 q 122 578 126 583 l 129 578 q 149 590 149 578 l 147 594 m 79 613 l 71 586 l 114 586 q 120 598 117 586 q 124 613 124 610 l 79 613 m 588 629 q 571 586 571 629 l 588 629 m 114 638 q 126 626 117 632 q 139 621 135 621 q 149 642 149 621 l 147 647 q 147 654 147 653 l 114 638 m 165 818 q 75 635 75 736 q 127 656 97 635 q 157 697 157 676 q 147 715 157 711 q 176 733 161 719 q 190 758 190 746 q 182 775 190 772 q 221 799 199 781 q 260 825 243 818 q 375 844 310 844 q 411 840 389 844 q 449 836 433 836 q 464 817 454 818 q 499 835 485 817 q 478 853 485 853 q 464 843 464 849 q 422 856 463 851 q 361 861 382 861 q 267 851 325 861 q 199 825 210 842 q 208 808 208 825 q 165 818 189 818 m 610 689 q 579 643 579 671 q 605 649 599 643 q 611 672 611 654 l 611 681 q 610 689 610 688 m 604 717 q 571 686 571 717 q 594 695 583 686 q 604 717 604 704 m 571 750 q 547 719 547 739 q 593 732 593 719 q 572 750 581 750 l 571 750 m 558 775 q 532 744 532 761 q 558 775 558 744 m 508 788 q 526 774 508 774 q 544 797 544 774 l 518 811 q 507 789 507 794 l 508 788 m 499 818 q 478 800 478 815 q 500 813 500 800 q 499 815 500 814 q 499 818 499 817 z "}," ":{"ha":313,"x_min":0,"x_max":0,"o":""},"!":{"ha":347,"x_min":67,"x_max":228,"o":"m 110 24 l 110 36 q 126 106 110 106 q 214 85 201 106 q 219 51 215 78 q 222 22 222 24 q 215 10 222 18 q 208 0 208 1 q 197 3 207 0 l 188 7 q 162 3 185 7 q 138 0 139 0 q 110 24 110 0 m 144 56 q 165 40 144 40 q 188 49 185 40 q 156 63 181 63 q 144 56 147 63 m 131 106 q 124 97 124 106 q 131 90 124 90 q 136 97 136 90 q 131 106 136 106 m 110 239 q 97 360 106 281 q 85 481 89 440 q 76 580 81 521 q 69 687 71 639 q 67 783 67 735 q 88 810 67 810 q 101 805 93 810 q 115 800 110 800 l 117 801 q 122 803 118 803 q 130 805 125 804 q 144 805 135 806 q 167 801 154 804 q 204 805 181 810 q 228 775 228 800 q 214 577 228 704 q 200 381 200 450 l 194 365 q 193 341 194 364 q 190 290 192 318 q 188 249 188 263 q 181 234 188 238 q 154 231 174 231 q 110 239 117 231 m 131 364 q 130 346 131 358 q 129 326 129 333 q 144 274 129 289 q 154 382 154 299 q 131 364 131 382 m 158 422 l 144 415 l 158 415 l 158 422 m 151 478 q 126 466 131 472 q 122 435 122 460 q 151 478 151 451 m 169 544 q 149 531 156 544 q 142 504 142 518 q 169 544 169 504 m 126 554 q 114 538 114 554 q 131 554 128 538 l 126 554 m 175 633 q 144 604 157 633 q 175 633 175 604 m 108 675 l 108 668 q 107 656 107 661 q 117 618 107 626 q 129 637 119 626 q 139 651 139 647 q 115 671 115 651 q 126 697 115 682 q 138 717 136 713 l 110 703 q 108 675 108 703 m 188 724 q 171 703 171 711 l 188 703 l 188 724 m 131 765 l 122 744 l 126 744 q 167 765 153 751 l 131 765 m 94 772 q 97 767 96 771 q 106 758 103 760 q 118 772 118 758 l 94 772 z "},"\"":{"ha":554,"x_min":29,"x_max":419,"o":"m 32 779 q 31 810 32 790 q 31 838 31 829 q 42 900 31 881 q 92 919 54 919 q 169 893 169 919 q 153 725 169 835 q 135 594 138 615 q 133 571 133 586 q 133 549 133 556 q 128 533 132 542 q 115 520 124 524 q 92 517 107 517 q 29 690 29 517 q 31 742 29 711 q 32 779 32 774 m 75 628 q 79 597 75 624 q 83 569 83 571 q 110 679 86 572 q 92 700 110 700 q 83 697 89 700 q 103 736 103 719 q 68 726 74 736 q 63 679 63 715 l 83 679 q 74 649 74 669 q 74 638 74 644 q 75 628 75 631 m 67 757 q 83 749 71 749 q 112 760 106 749 q 118 799 118 771 q 67 757 100 796 m 75 818 q 67 792 75 796 q 110 808 90 792 q 131 847 131 824 q 129 858 131 853 q 124 866 128 863 q 118 872 121 869 q 110 875 115 874 q 101 878 104 876 q 90 879 97 879 q 78 879 82 879 q 67 879 75 879 q 57 879 60 879 q 58 860 57 869 q 62 844 60 851 q 66 830 64 836 q 71 821 68 824 q 75 818 74 818 m 282 779 q 281 810 282 790 q 281 838 281 829 q 292 900 281 881 q 342 919 304 919 q 419 893 419 919 q 403 725 419 835 q 385 594 388 615 q 383 571 383 586 q 383 549 383 556 q 378 533 382 542 q 365 520 374 524 q 342 517 357 517 q 279 690 279 517 q 281 742 279 711 q 282 779 282 774 m 325 628 q 329 597 325 624 q 333 569 333 571 q 360 679 336 572 q 342 700 360 700 q 333 697 339 700 q 353 736 353 719 q 318 726 324 736 q 313 679 313 715 l 333 679 q 324 649 324 669 q 324 638 324 644 q 325 628 325 631 m 317 757 q 333 749 321 749 q 362 760 356 749 q 368 799 368 771 q 317 757 350 796 m 325 818 q 317 792 325 796 q 360 808 340 792 q 381 847 381 824 q 379 858 381 853 q 374 866 378 863 q 368 872 371 869 q 360 875 365 874 q 351 878 354 876 q 340 879 347 879 q 328 879 332 879 q 317 879 325 879 q 307 879 310 879 q 308 860 307 869 q 312 844 310 851 q 316 830 314 836 q 321 821 318 824 q 325 818 324 818 z "},"#":{"ha":994,"x_min":39,"x_max":846,"o":"m 89 -15 q 74 2 89 -7 q 58 14 58 11 l 117 229 q 113 260 117 250 q 103 272 108 271 q 83 275 97 274 q 58 281 69 276 q 51 285 56 281 q 39 289 47 289 q 45 335 39 301 q 58 397 51 369 q 65 425 64 425 l 126 425 q 156 446 138 440 q 190 451 175 451 q 217 467 206 451 q 229 517 229 482 q 221 536 229 536 l 110 536 q 100 549 104 536 q 92 563 96 561 q 117 657 115 640 q 181 681 117 681 q 200 680 186 681 q 222 679 214 679 q 332 700 299 679 q 348 765 340 726 q 362 826 356 803 q 380 874 368 850 q 417 910 392 899 q 481 922 442 922 q 499 908 493 922 q 504 879 504 893 q 499 862 504 868 q 476 846 494 856 q 465 778 475 836 q 451 708 454 719 l 453 700 q 453 692 453 693 l 553 692 q 572 683 561 683 q 597 709 583 683 q 619 759 611 735 q 626 786 626 783 l 635 786 q 674 915 635 889 q 723 923 682 915 q 768 931 764 931 q 772 931 769 931 l 776 932 l 776 922 l 794 922 q 785 904 785 913 q 786 895 785 901 q 788 885 788 889 q 772 847 788 871 q 751 811 756 822 q 749 788 750 807 q 743 755 747 768 q 729 742 739 742 q 728 742 728 742 l 725 743 l 735 733 q 717 696 717 697 q 741 667 717 674 q 800 660 765 660 q 846 657 835 661 q 830 617 838 644 q 817 572 822 590 q 804 553 811 553 q 707 538 786 538 q 632 425 632 538 q 715 399 632 399 q 751 400 744 399 q 760 375 760 392 q 738 330 760 363 q 710 297 717 297 q 683 314 693 297 l 674 306 l 581 281 q 560 249 571 278 q 538 186 549 219 q 521 144 526 153 q 509 116 514 133 q 499 89 504 99 q 481 79 493 79 q 483 60 481 69 q 485 47 485 50 q 469 24 485 38 l 479 24 q 451 -11 479 -3 q 431 0 454 1 q 399 -4 422 0 q 325 -1 338 -14 l 324 -3 q 383 151 346 61 q 401 188 385 154 q 418 243 418 222 q 344 274 418 274 q 272 256 278 274 q 151 -28 182 -28 q 122 -22 142 -28 q 89 -15 101 -15 m 147 32 q 122 13 122 32 q 151 32 139 13 l 147 32 m 397 51 q 426 32 397 35 q 463 84 449 36 q 476 149 476 132 l 476 151 q 397 51 397 131 m 165 100 q 125 89 133 100 q 117 40 117 78 q 146 69 125 40 q 169 100 167 99 l 165 100 m 160 75 l 160 68 l 169 75 l 160 75 m 147 144 q 135 125 135 140 l 151 144 l 147 144 m 182 136 q 174 133 179 136 q 169 125 169 129 q 186 135 186 125 q 182 136 183 136 m 469 176 q 432 150 432 174 q 511 219 482 150 l 451 194 l 469 176 m 211 203 q 178 176 186 188 q 211 186 208 176 q 213 194 213 190 l 211 203 m 178 213 q 151 186 151 213 q 186 211 178 199 q 178 213 179 213 m 186 238 q 198 233 192 238 q 204 224 204 228 l 203 219 q 229 263 229 235 l 186 238 m 499 239 q 457 219 457 239 q 499 239 499 219 m 178 263 l 178 256 l 194 263 l 178 263 m 496 263 q 513 254 497 254 q 528 281 528 254 l 496 263 m 399 318 q 435 306 399 311 q 471 269 471 300 q 538 310 486 269 q 590 367 590 351 l 589 368 q 548 355 585 368 q 496 342 511 342 l 496 360 q 437 347 475 360 q 399 318 399 333 m 186 306 q 185 299 185 303 q 203 288 185 288 q 281 332 239 288 q 300 321 283 321 q 312 323 306 321 q 322 328 318 325 q 332 337 326 331 q 340 346 338 343 q 349 356 343 349 q 357 365 356 364 q 324 368 349 368 q 240 349 288 368 q 186 306 193 331 m 85 365 q 90 350 86 361 q 96 334 93 339 q 107 325 99 329 q 131 321 115 321 q 194 340 185 321 l 164 340 q 183 362 164 356 q 227 373 201 368 q 263 383 253 378 q 261 390 261 386 q 271 417 261 400 q 281 443 281 433 q 276 449 281 444 q 271 456 271 453 q 289 478 271 460 l 283 478 q 275 479 278 479 q 250 444 261 479 q 239 392 239 408 q 213 396 235 392 q 186 400 190 400 l 186 417 q 139 393 176 407 q 85 365 101 379 m 717 368 q 657 365 674 368 q 620 353 646 365 q 594 331 594 340 l 600 331 q 606 332 604 332 q 642 337 614 335 q 692 342 669 339 q 717 349 715 344 l 717 368 m 426 365 q 408 349 408 365 l 426 365 m 581 417 q 528 383 544 406 q 535 383 529 383 q 546 382 542 382 q 582 403 582 382 l 581 417 m 306 435 l 324 417 q 373 416 340 417 q 421 415 406 415 q 486 425 476 415 l 538 529 q 476 556 538 539 q 375 536 478 544 q 339 485 371 536 q 306 435 307 435 m 589 468 q 544 422 544 457 q 572 438 558 422 q 589 468 585 453 m 589 504 q 575 499 582 504 q 568 486 568 493 l 581 486 q 590 494 582 486 q 608 512 599 501 q 622 529 618 522 q 628 553 629 539 q 638 574 628 568 q 683 581 647 581 q 739 603 703 586 q 776 622 775 619 l 786 640 q 749 624 778 633 q 710 614 719 614 q 703 618 707 614 q 697 622 699 622 q 688 622 694 622 l 681 621 q 676 647 681 633 q 671 678 671 661 l 640 678 q 700 769 700 722 l 657 725 l 665 717 q 632 674 632 704 q 657 649 632 657 q 619 597 619 601 l 632 597 q 608 576 622 581 q 585 564 593 572 q 578 525 578 556 q 589 504 578 504 m 311 522 q 283 514 297 522 q 268 492 268 506 q 311 522 311 492 m 289 546 l 272 529 q 283 533 274 529 q 297 536 293 536 l 289 546 m 289 563 q 310 554 293 554 q 349 581 311 554 q 383 588 364 586 q 417 595 401 590 q 451 614 432 600 l 426 581 q 457 584 446 581 q 479 594 468 588 q 501 606 490 601 q 493 578 493 592 q 524 592 506 578 q 550 606 543 606 q 563 597 563 606 q 614 644 593 611 l 563 644 l 563 657 q 507 649 529 649 q 501 649 503 649 q 499 653 500 650 q 496 657 497 656 q 394 624 461 657 q 289 563 328 592 m 167 606 q 169 597 169 599 q 151 581 167 588 q 162 579 153 581 q 172 578 171 578 q 247 618 217 578 q 225 632 247 632 q 186 622 204 632 l 194 640 q 178 642 192 642 q 150 606 150 642 l 167 606 m 306 642 q 270 619 288 642 q 253 576 253 596 q 324 606 303 576 l 297 622 l 314 640 l 310 642 l 306 642 m 597 597 q 572 581 579 590 l 576 581 l 581 582 q 590 588 583 583 q 597 597 596 592 m 786 606 q 762 599 776 606 q 737 588 747 593 q 725 581 726 582 q 748 580 733 581 q 768 579 763 579 q 782 584 778 579 q 786 606 786 589 m 401 751 q 383 706 383 733 q 353 660 383 688 q 324 622 324 633 l 375 631 q 372 647 372 636 q 417 733 372 683 l 401 751 m 665 786 l 665 758 q 714 800 693 758 q 743 879 735 842 q 721 882 735 882 q 682 853 682 882 l 683 850 q 683 846 683 847 l 710 846 l 665 786 m 401 776 q 414 768 410 768 q 428 813 428 768 q 401 776 401 813 m 408 836 q 411 831 408 833 q 417 828 414 828 q 444 857 444 850 q 437 867 444 861 q 424 874 429 874 q 413 860 417 874 q 408 836 408 846 z "},"$":{"ha":703,"x_min":47,"x_max":533,"o":"m 214 50 q 224 60 214 56 q 226 91 224 64 q 231 122 229 118 q 181 150 231 133 q 103 169 131 167 l 85 171 q 68 193 85 186 l 68 256 q 76 269 76 257 q 76 279 76 272 q 75 290 75 286 q 89 306 75 306 q 110 292 96 306 q 153 287 119 289 q 212 278 186 285 q 244 256 238 271 l 251 264 q 269 263 257 263 q 340 276 308 263 q 372 324 372 290 q 316 392 372 361 q 219 422 260 422 q 188 441 219 428 q 122 468 157 454 q 82 488 88 482 q 47 581 47 522 q 146 747 47 706 q 213 771 213 757 l 213 854 q 229 861 219 861 q 237 822 229 847 q 251 797 244 797 q 272 804 258 797 l 272 797 q 254 763 272 792 q 231 733 236 733 q 239 721 235 731 q 249 711 243 711 q 258 716 251 711 q 274 726 265 721 q 286 733 283 732 l 286 825 l 279 832 q 286 840 286 832 q 279 860 286 856 l 307 860 q 315 771 315 860 l 371 747 l 371 740 q 392 736 381 740 q 417 732 403 732 q 434 726 417 731 q 469 709 451 721 q 489 678 488 697 q 486 667 489 676 l 485 657 q 488 638 485 650 q 490 618 490 625 q 485 597 490 601 q 467 593 479 593 q 381 614 433 593 q 300 636 329 635 q 224 621 268 636 q 181 579 181 606 l 238 524 q 254 525 243 525 q 340 504 283 525 q 413 482 396 483 l 413 472 q 438 465 419 472 q 456 450 456 457 q 454 446 456 447 q 484 422 467 442 q 507 403 501 403 q 511 404 510 403 q 519 370 511 399 q 533 342 528 342 q 528 262 533 285 q 512 227 522 239 q 461 186 501 215 l 460 183 q 456 176 458 181 q 454 171 454 172 q 424 160 449 163 q 399 143 399 157 l 328 143 l 328 88 q 344 40 344 82 q 265 21 344 21 l 265 32 l 244 32 l 251 25 l 232 25 q 223 34 232 26 q 214 50 214 42 m 299 78 q 297 83 299 78 q 290 88 294 88 q 258 60 286 88 q 274 58 264 60 q 290 57 283 57 q 307 67 307 57 q 299 78 303 68 m 282 124 q 270 110 275 124 q 265 89 265 97 l 265 88 q 282 101 275 89 q 293 115 289 113 q 282 124 293 124 m 265 157 l 265 136 q 282 157 282 136 l 265 157 m 321 190 q 346 176 321 176 q 355 177 347 176 q 365 178 363 178 l 321 193 l 321 190 m 188 203 q 175 186 175 203 l 188 186 l 188 203 m 103 200 q 115 194 106 196 q 125 190 124 192 l 125 215 q 103 200 114 215 m 376 210 q 389 199 383 199 q 392 200 390 200 l 378 215 l 376 210 m 419 215 q 440 201 426 199 q 469 215 454 203 l 419 215 m 175 247 q 153 221 153 247 q 175 247 175 221 m 413 278 q 444 253 421 267 q 475 228 467 239 q 499 306 499 251 l 485 306 q 490 285 490 294 q 485 271 490 271 q 450 274 472 271 q 413 278 428 278 m 378 250 l 399 242 l 399 250 l 378 250 m 489 354 q 454 342 479 350 q 462 341 456 342 q 469 340 468 340 q 490 350 490 340 l 489 354 m 461 399 q 442 389 442 394 l 461 389 l 461 399 m 413 439 q 403 417 403 422 q 418 420 407 417 q 435 424 429 424 l 413 439 m 311 440 q 299 422 299 440 q 315 439 313 422 l 311 440 m 231 453 q 235 450 232 453 q 241 442 238 447 q 244 432 244 438 q 267 441 260 435 q 274 461 274 447 q 231 453 261 461 m 374 468 q 362 455 372 468 q 350 439 351 442 l 357 439 q 393 449 378 439 q 385 460 393 453 q 374 468 376 468 m 332 475 l 332 476 l 329 475 q 324 470 326 472 q 316 465 321 468 q 307 461 311 463 l 311 461 q 318 460 317 460 q 343 467 333 460 q 332 475 335 475 m 167 482 q 193 467 175 467 q 205 474 196 467 q 215 488 214 482 l 210 496 l 167 482 m 103 517 q 118 508 106 508 q 138 524 131 508 q 131 524 136 524 q 118 522 126 524 q 103 517 110 521 m 75 563 q 94 524 75 524 q 97 553 97 524 q 86 574 97 574 q 75 563 75 574 m 103 601 q 126 593 113 593 l 188 636 q 192 658 189 636 q 194 685 194 681 q 181 671 185 681 q 161 641 169 650 q 133 621 153 632 q 103 601 114 610 m 83 671 q 79 644 83 661 q 75 619 75 628 q 114 656 103 619 q 132 700 125 693 l 125 706 l 89 671 l 83 671 m 442 632 l 440 631 q 446 624 440 628 q 454 621 451 621 l 454 661 q 442 632 442 661 m 315 678 l 307 671 l 321 671 l 315 678 m 314 718 q 342 710 335 718 q 350 683 350 703 q 385 703 385 683 q 321 728 385 721 q 317 722 321 725 l 314 718 m 404 700 q 422 683 408 683 q 404 700 422 700 z "},"%":{"ha":1160,"x_min":42,"x_max":1047,"o":"m 239 -1 q 251 24 239 6 q 280 63 264 42 q 299 88 296 83 q 314 119 304 97 q 331 156 324 140 q 342 172 339 171 l 564 542 l 574 550 q 711 772 581 556 q 733 824 715 781 q 770 892 751 867 q 813 918 789 918 q 844 905 825 918 q 876 892 864 892 q 854 849 876 890 q 807 764 832 808 q 779 713 782 719 q 726 601 736 614 q 531 275 656 474 q 512 250 515 268 q 503 225 508 232 q 430 110 479 185 q 374 35 381 35 q 367 38 372 35 q 360 40 361 40 q 364 25 360 33 q 368 7 368 17 q 358 -15 368 -15 l 249 -15 q 239 -1 239 -15 m 368 139 l 307 26 q 318 26 311 26 q 327 26 325 26 q 334 26 329 26 q 340 28 339 26 q 343 31 340 29 q 347 35 346 32 q 349 43 347 39 q 351 53 350 47 q 400 148 358 90 q 453 233 442 206 q 471 285 468 279 q 479 290 472 286 q 491 298 486 294 q 496 306 496 301 q 488 318 496 318 q 514 335 514 318 q 514 342 514 338 q 514 350 514 347 l 513 354 q 533 374 533 354 q 477 315 518 374 q 402 199 436 256 q 368 139 368 142 m 419 139 q 413 131 413 139 q 419 122 413 122 q 425 131 425 122 q 419 139 425 139 m 471 215 q 464 207 464 215 q 471 199 464 199 q 476 207 476 199 q 471 215 476 215 m 522 301 q 515 293 515 301 q 522 285 515 285 q 528 293 528 285 q 522 301 528 301 m 557 361 q 550 353 550 361 q 557 344 550 344 q 563 353 563 344 q 557 361 563 361 m 565 422 q 535 410 550 422 q 519 383 519 399 q 565 422 565 383 m 239 421 q 231 422 232 422 q 213 408 214 422 l 171 408 l 179 431 q 153 421 172 431 q 126 446 144 425 q 93 467 107 467 q 76 463 85 467 q 87 476 81 465 q 93 490 93 486 l 76 507 q 51 584 61 532 q 42 675 42 636 q 107 839 42 767 q 261 911 172 911 q 387 889 325 911 q 461 817 449 867 q 489 742 489 817 q 456 565 489 638 q 342 447 422 493 q 323 433 335 443 q 301 417 311 422 q 278 411 290 411 q 271 411 276 411 l 265 413 l 274 431 q 231 406 249 411 l 239 421 m 196 482 q 231 447 196 447 q 331 484 269 447 q 401 558 393 521 l 394 558 q 269 472 313 472 q 224 489 249 472 q 179 507 199 506 q 158 499 171 507 q 144 486 144 490 q 157 468 144 482 q 174 454 169 454 q 196 482 188 454 m 590 472 q 576 467 582 472 q 569 456 569 463 q 592 468 592 456 l 590 472 m 633 499 q 626 490 626 499 q 633 482 626 482 q 639 490 639 482 q 633 499 639 499 m 85 683 q 99 583 85 658 q 132 507 113 507 q 154 526 154 507 q 136 575 154 575 l 125 575 q 126 590 125 583 q 128 597 128 596 q 119 619 128 603 l 119 772 q 85 683 85 738 m 179 567 q 256 515 218 515 q 348 572 311 515 q 385 688 385 629 q 352 793 385 738 q 269 849 319 849 q 188 797 214 849 q 161 685 161 744 q 179 567 161 631 m 701 583 l 693 567 q 701 583 701 575 m 429 629 q 410 589 410 629 q 429 629 429 589 m 446 713 q 422 669 422 706 l 446 669 l 446 713 m 419 751 l 422 739 q 426 722 426 726 q 450 783 450 728 q 428 774 438 783 q 419 751 419 765 m 763 781 q 753 756 753 776 q 760 762 758 758 q 763 772 763 765 q 763 781 763 779 m 382 835 q 410 781 382 803 l 421 793 q 410 822 421 810 q 382 835 399 835 m 828 815 q 828 819 828 815 q 821 824 828 824 q 814 815 814 824 q 821 807 814 807 q 828 815 828 807 m 838 858 q 832 850 832 858 q 838 842 832 842 q 844 850 844 842 q 838 858 844 858 m 788 -6 q 764 -8 779 -8 q 740 15 740 -8 q 640 229 640 15 l 642 275 q 663 314 646 283 q 689 358 681 344 q 716 396 697 371 q 749 433 735 421 q 787 454 764 444 q 833 464 810 464 q 898 458 865 464 q 962 433 931 453 q 993 383 993 414 q 1021 360 1006 383 q 1036 318 1036 336 q 1033 314 1036 317 q 1028 311 1029 311 q 1047 264 1047 297 q 1003 53 1047 101 l 985 53 l 993 61 l 990 63 q 968 26 968 63 q 974 33 968 29 q 981 38 979 38 l 985 36 q 946 6 982 28 q 899 -15 910 -15 l 771 -15 l 788 -6 m 822 19 q 818 24 822 24 q 813 19 813 24 q 817 14 813 14 q 822 19 821 14 m 753 36 q 771 26 758 26 l 771 36 l 753 36 m 899 44 l 899 36 l 907 36 l 907 44 l 899 44 m 686 211 q 685 189 685 204 q 690 135 685 164 q 703 88 696 106 q 714 69 710 69 q 729 83 729 69 q 724 99 729 85 q 713 131 718 114 q 699 170 707 147 q 686 211 692 193 m 763 131 q 794 92 767 115 q 835 69 821 69 q 905 126 875 69 q 935 225 935 182 q 934 242 935 228 q 933 258 933 256 q 931 258 932 258 l 928 257 q 914 279 914 257 q 919 298 914 289 q 925 311 925 307 q 850 354 917 354 q 775 305 806 354 q 744 210 744 256 q 758 177 744 192 q 771 151 771 163 l 767 142 q 763 131 763 133 m 958 133 q 951 125 951 133 q 958 117 951 117 q 964 125 964 117 q 958 133 964 133 m 1003 233 q 997 228 997 233 q 1001 225 997 225 q 1007 229 1007 225 q 1003 233 1007 233 m 1001 186 q 1001 190 1001 186 q 994 194 1001 194 q 988 186 988 194 q 994 178 988 178 q 1001 186 1001 178 m 685 258 q 701 249 690 249 l 701 258 l 685 258 m 1001 294 q 1001 299 1001 294 q 994 303 1001 303 q 988 294 988 303 q 994 286 988 286 q 1001 294 1001 286 m 719 328 q 713 319 713 328 q 719 311 713 311 q 725 319 725 311 q 719 328 725 328 m 796 406 q 793 400 793 406 q 794 396 793 396 l 801 400 q 796 406 801 403 m 899 406 q 942 393 924 393 l 942 406 q 935 408 942 407 q 921 411 929 410 q 907 413 913 413 q 899 406 899 407 m 865 413 q 861 417 865 417 q 857 413 857 417 q 860 410 857 410 q 865 413 864 410 z "},"&":{"ha":806,"x_min":38,"x_max":750,"o":"m 38 210 q 125 428 38 340 q 143 443 126 429 q 167 468 160 457 q 175 493 175 479 q 147 541 175 510 q 115 583 119 572 q 89 711 89 654 q 127 834 89 794 q 244 890 165 874 q 290 905 257 893 q 346 917 322 917 q 440 908 411 917 q 466 898 447 908 q 492 888 485 888 q 514 842 492 875 q 536 789 536 810 q 531 766 536 775 q 526 754 526 757 l 531 747 q 536 738 536 739 q 524 676 536 701 q 493 624 513 650 q 465 575 474 597 l 372 481 q 346 471 356 481 q 336 446 336 461 q 381 403 336 435 q 472 331 426 371 q 517 263 517 292 q 549 244 532 263 q 578 222 565 225 l 629 411 q 628 419 628 414 q 644 440 628 433 q 687 450 660 447 q 715 453 714 453 l 707 464 q 728 457 722 464 q 735 442 735 450 q 740 424 736 433 q 750 411 743 415 q 740 397 740 410 q 741 386 740 394 q 742 375 742 378 q 732 360 742 361 l 742 351 q 717 298 732 344 q 701 236 701 251 q 690 197 697 236 q 667 157 682 157 q 674 99 667 113 q 699 76 681 86 q 732 43 717 65 q 740 21 740 28 q 724 6 740 10 q 685 1 707 3 q 656 -8 664 -1 q 624 22 642 -8 q 592 51 606 51 q 547 31 578 51 q 501 10 515 11 q 308 -18 346 -18 q 120 45 203 -18 q 38 210 38 108 m 315 46 q 278 26 292 46 q 286 25 279 26 l 292 25 q 315 46 315 25 m 338 33 q 361 25 340 25 q 381 33 378 25 l 338 33 m 200 43 q 235 33 224 33 q 246 54 246 33 q 200 43 200 54 m 271 51 q 261 33 261 51 l 278 43 l 271 51 m 411 44 q 399 33 399 42 q 401 32 400 32 q 417 43 406 32 l 414 44 l 411 44 m 654 51 q 685 32 654 32 q 654 51 685 51 m 465 43 q 453 47 465 47 q 440 44 440 47 q 454 39 440 39 q 465 43 464 39 m 106 121 q 124 90 106 106 q 160 68 143 74 q 169 73 161 68 q 176 82 176 78 q 167 100 176 86 q 154 114 157 114 q 147 110 151 114 q 142 103 142 107 q 132 138 142 138 q 106 121 106 138 m 322 75 q 442 85 374 75 q 511 115 511 94 q 472 183 511 138 q 383 277 433 228 q 321 344 333 326 q 279 364 301 344 q 228 393 257 383 q 185 310 222 365 q 149 217 149 256 q 153 188 149 196 q 164 176 157 181 q 175 163 171 171 q 322 75 239 75 m 551 138 q 563 119 551 124 l 569 138 l 551 138 m 90 292 q 79 255 86 292 q 72 201 72 218 q 96 146 72 146 q 107 149 99 146 q 115 154 115 153 l 115 292 l 90 292 m 603 178 q 608 158 603 169 q 614 144 614 147 q 633 164 625 144 q 647 188 640 183 q 603 178 603 188 m 544 188 l 536 181 l 553 181 l 544 188 m 613 206 q 622 199 613 199 q 664 222 649 199 l 647 240 q 656 239 650 239 q 682 300 682 239 q 678 306 682 303 q 671 308 674 308 q 718 415 718 326 q 669 407 675 415 q 663 351 663 399 l 682 351 q 653 322 671 346 q 636 285 636 297 q 638 281 636 283 q 644 278 640 279 l 647 275 q 630 240 647 261 q 613 206 613 219 m 483 258 l 483 249 l 493 249 l 493 258 l 483 258 m 450 275 l 440 265 l 450 265 l 450 275 m 372 325 l 425 300 q 436 304 431 300 q 442 314 442 308 q 403 345 442 315 q 363 375 365 375 q 359 392 363 389 q 344 396 356 394 q 321 404 332 397 q 276 456 304 414 q 218 506 247 499 l 218 501 q 249 451 218 489 q 314 386 281 413 l 319 381 q 335 370 326 376 q 352 357 343 364 q 367 344 361 350 q 372 333 372 338 l 372 325 m 142 339 q 113 332 119 339 q 106 303 106 325 q 132 325 132 303 l 142 317 l 142 339 m 218 453 q 161 402 197 439 q 125 360 125 365 l 125 351 l 160 351 l 150 368 q 156 367 151 367 q 197 401 176 367 q 218 453 218 435 m 664 438 q 657 428 657 438 q 664 419 657 419 q 669 428 669 419 q 664 438 669 438 m 253 506 q 293 489 264 489 q 344 519 297 489 q 399 557 390 550 q 413 575 401 560 q 434 603 424 590 q 449 617 444 617 q 465 651 454 619 q 486 676 471 664 q 501 700 501 688 q 497 713 501 704 q 493 729 493 722 q 497 760 493 739 q 501 793 501 781 q 494 831 501 818 q 465 849 488 844 q 476 861 476 854 q 447 879 476 874 q 386 885 417 885 l 357 885 l 357 875 q 425 850 404 864 q 444 824 446 836 q 446 797 443 813 q 465 771 449 782 q 466 757 465 769 q 467 742 467 744 q 446 682 467 711 q 425 635 425 653 l 417 643 l 399 617 l 407 610 q 397 599 401 606 q 387 585 392 592 q 381 575 382 578 l 271 522 l 253 506 m 211 540 q 203 531 203 540 q 211 522 203 522 q 217 531 217 522 q 211 540 217 540 m 193 669 q 210 603 193 643 q 249 564 228 564 l 261 565 q 321 598 297 583 q 374 636 344 613 q 419 689 404 660 q 435 753 435 718 q 418 810 435 781 q 374 840 401 840 q 334 835 360 840 q 296 831 308 831 q 278 840 282 831 q 248 806 274 821 q 218 781 222 792 q 209 735 215 763 q 198 690 203 708 q 193 669 193 671 m 182 590 q 175 599 182 599 q 168 590 168 599 q 175 583 168 583 q 182 590 182 583 m 132 719 l 132 703 l 150 711 q 132 719 146 719 m 160 789 q 142 781 147 789 l 160 781 l 160 789 m 321 883 q 315 874 315 883 q 321 865 315 865 q 328 874 328 865 q 321 883 328 883 z "},"'":{"ha":268,"x_min":28,"x_max":168,"o":"m 31 779 q 30 810 31 790 q 29 838 29 829 q 41 900 29 881 q 90 919 53 919 q 168 893 168 919 q 152 725 168 835 q 133 594 136 615 q 132 571 132 586 q 131 549 132 556 q 126 533 131 542 q 114 520 122 524 q 90 517 106 517 q 28 690 28 517 q 29 742 28 711 q 31 779 31 774 m 74 628 q 78 597 74 624 q 82 569 82 571 q 108 679 85 572 q 90 700 108 700 q 82 697 88 700 q 101 736 101 719 q 67 726 72 736 q 61 679 61 715 l 82 679 q 72 649 72 669 q 73 638 72 644 q 74 628 74 631 m 65 757 q 82 749 69 749 q 110 760 104 749 q 117 799 117 771 q 65 757 99 796 m 74 818 q 65 792 74 796 q 109 808 89 792 q 129 847 129 824 q 128 858 129 853 q 123 866 126 863 q 117 872 119 869 q 108 875 114 874 q 99 878 103 876 q 88 879 96 879 q 77 879 81 879 q 66 879 74 879 q 56 879 58 879 q 57 860 56 869 q 60 844 58 851 q 65 830 63 836 q 69 821 67 824 q 74 818 72 818 z "},"(":{"ha":401,"x_min":71,"x_max":381,"o":"m 71 501 q 89 670 74 597 q 140 860 104 743 q 164 912 144 872 q 192 964 183 951 q 232 1006 226 1006 q 320 992 260 1006 q 381 961 381 979 q 374 923 381 939 q 355 889 368 907 q 336 860 342 871 q 303 789 318 825 q 276 710 289 753 q 256 637 264 667 q 238 556 247 607 q 225 481 229 504 q 212 399 221 458 q 200 322 203 339 q 208 306 208 317 q 200 269 208 286 l 208 269 q 229 159 208 254 q 250 13 250 64 l 260 13 q 299 -65 278 13 q 328 -142 321 -142 q 346 -133 338 -142 q 344 -139 344 -136 q 350 -153 344 -144 q 356 -167 356 -161 l 356 -171 q 354 -176 354 -175 q 351 -170 354 -174 q 346 -167 347 -167 q 302 -176 332 -167 q 257 -185 272 -185 q 228 -172 242 -185 q 209 -150 214 -158 q 192 -115 204 -142 q 100 158 129 -39 q 71 501 71 356 m 260 -125 q 274 -139 267 -125 q 296 -153 281 -153 q 277 -110 296 -151 q 258 -68 258 -69 q 260 -64 258 -64 l 208 31 q 210 50 210 36 q 190 140 210 81 q 167 219 169 199 q 171 232 167 222 q 175 256 175 242 q 170 311 175 275 q 165 365 165 347 q 169 403 165 385 q 174 432 174 422 q 167 442 174 442 q 153 437 163 442 q 140 432 143 432 q 186 511 172 478 q 200 594 200 544 q 154 570 178 588 q 131 535 131 553 l 149 535 q 128 519 144 528 q 113 490 113 510 q 147 511 128 490 q 174 532 165 532 l 174 528 l 122 474 q 129 465 126 465 q 136 467 131 465 q 144 469 142 469 q 133 455 144 458 q 122 442 122 451 q 149 407 122 411 q 126 392 131 400 q 121 365 121 385 l 122 347 l 140 338 l 122 329 q 121 310 121 314 q 131 257 121 293 q 140 210 140 221 q 135 201 140 208 q 131 193 131 194 q 140 167 131 186 q 152 96 149 158 q 182 21 156 33 q 174 6 174 21 q 185 -24 174 -11 q 200 -56 197 -37 q 224 -90 201 -67 q 246 -125 246 -114 q 243 -133 246 -128 q 260 -125 246 -125 m 122 578 l 122 561 l 140 578 l 122 578 m 208 664 q 163 632 185 650 q 140 604 140 614 q 150 603 142 604 l 157 603 q 199 615 189 603 q 208 664 208 626 m 182 681 q 160 665 176 669 q 133 653 144 660 q 121 629 121 647 q 122 625 121 628 q 122 621 122 622 q 243 749 243 688 q 157 681 183 714 l 182 681 m 208 758 q 188 749 207 757 q 163 736 169 740 q 147 721 156 732 q 138 697 138 710 l 149 697 q 188 724 151 697 q 233 758 225 750 l 225 767 q 283 825 256 774 q 311 904 311 876 q 200 835 206 854 q 269 843 238 835 l 271 840 q 174 758 232 793 l 208 758 m 204 808 q 170 797 183 808 q 157 767 157 786 l 217 808 l 204 808 m 225 885 q 203 879 215 885 q 190 864 190 874 l 192 863 q 192 860 192 861 q 207 871 193 861 q 225 885 221 881 m 260 929 l 260 911 l 328 939 l 331 942 q 299 959 331 946 q 260 972 267 972 q 234 952 247 972 q 217 929 221 932 l 260 929 z "},")":{"ha":401,"x_min":71,"x_max":381,"o":"m 192 911 l 192 929 l 235 929 q 217 952 231 932 q 192 972 204 972 q 153 959 185 972 q 121 942 121 946 q 124 939 122 939 l 192 911 m 226 885 q 244 871 231 881 q 260 860 258 861 q 261 864 260 861 q 249 879 261 874 q 226 885 236 885 m 247 808 l 235 808 l 294 767 q 281 797 294 786 q 247 808 268 808 m 243 758 l 278 758 q 227 794 251 774 q 192 828 203 815 l 181 840 l 182 843 q 251 835 214 835 q 140 904 246 854 q 168 825 140 876 q 226 767 196 774 l 218 758 q 263 724 226 750 q 303 697 300 697 l 314 697 q 305 721 314 710 q 289 736 296 732 q 263 749 282 740 q 243 758 244 757 m 269 681 l 294 681 q 208 749 268 714 q 329 621 208 688 q 330 625 329 622 q 331 629 331 628 q 319 653 331 647 q 291 665 307 660 q 269 681 275 669 m 243 664 q 253 615 243 626 q 294 603 263 603 q 303 603 296 603 l 311 604 q 289 632 311 614 q 243 664 267 650 m 329 561 l 329 578 l 311 578 l 329 561 m 192 -125 q 208 -133 206 -125 q 206 -125 206 -128 q 228 -90 206 -114 q 251 -56 250 -67 q 266 -24 254 -37 q 278 6 278 -11 q 269 21 278 21 q 299 96 296 33 q 311 167 303 158 q 321 193 321 186 q 316 201 321 194 q 311 210 311 208 q 321 257 311 221 q 331 310 331 293 l 329 329 l 311 338 l 329 347 q 331 365 331 360 q 326 392 331 385 q 303 407 321 400 q 329 442 329 411 q 318 455 329 451 q 307 469 307 458 q 315 467 310 469 q 322 465 321 465 q 329 474 325 465 l 278 528 l 278 532 q 305 511 286 532 q 339 490 324 490 q 323 519 339 510 q 303 535 307 528 l 321 535 q 297 570 321 553 q 251 594 274 588 q 265 511 251 544 q 311 432 279 478 q 299 437 308 432 q 285 442 289 442 q 278 432 278 442 q 282 403 278 422 q 286 365 286 385 q 281 311 286 347 q 276 256 276 275 q 281 232 276 242 q 285 219 285 222 q 262 140 282 199 q 242 50 242 81 q 243 31 242 36 l 192 -64 q 193 -68 193 -64 q 174 -110 193 -69 q 156 -153 156 -151 q 178 -139 169 -153 q 192 -125 186 -125 m 381 501 q 351 158 381 356 q 260 -115 322 -39 q 215 -179 233 -169 q 194 -185 206 -185 q 149 -176 179 -185 q 106 -167 119 -167 q 101 -170 104 -167 q 97 -176 97 -174 q 97 -171 97 -175 l 96 -167 q 101 -153 96 -161 q 107 -139 107 -144 q 106 -133 107 -136 q 124 -142 114 -142 q 152 -65 131 -142 q 192 13 174 13 l 201 13 q 222 159 201 64 q 243 269 243 254 l 251 269 q 243 306 243 286 q 251 322 243 317 q 240 399 249 339 q 226 481 231 458 q 213 556 222 504 q 196 637 204 607 q 175 710 188 667 q 148 789 163 753 q 115 860 133 825 q 97 889 110 871 q 77 923 83 907 q 71 961 71 939 q 131 992 71 979 q 219 1006 192 1006 q 232 995 222 1006 q 250 975 242 985 l 260 964 q 288 912 268 951 q 311 860 307 872 q 363 670 347 743 q 381 501 378 597 z "},"*":{"ha":588,"x_min":44,"x_max":453,"o":"m 325 465 q 301 507 318 476 q 272 553 285 538 q 249 569 260 569 q 225 544 240 569 q 189 495 210 519 q 144 471 168 471 q 117 485 133 471 q 100 510 100 500 q 118 542 100 524 q 163 582 136 561 q 199 611 190 603 l 143 640 q 96 667 129 644 q 44 689 63 689 q 51 715 44 700 q 69 731 58 731 q 145 703 97 731 q 211 676 193 676 q 209 703 211 686 q 207 728 207 719 q 216 775 207 764 q 263 801 225 786 q 276 768 276 793 q 275 733 276 758 q 274 706 274 708 q 363 731 314 706 l 368 725 q 425 744 378 740 q 453 686 439 717 q 388 637 453 656 q 313 604 324 618 q 367 543 332 588 q 403 485 403 499 q 397 470 403 479 q 389 457 390 461 q 368 467 386 467 l 368 471 l 340 457 l 347 457 q 338 461 346 457 q 325 465 331 465 m 313 544 q 328 510 313 531 q 356 490 343 490 q 350 508 356 499 q 339 524 344 518 q 324 538 333 529 q 313 549 314 547 l 313 544 m 175 540 q 151 529 161 540 q 142 504 142 518 q 178 540 154 504 l 175 540 m 315 668 q 297 659 310 668 q 283 640 283 650 q 306 649 293 642 q 318 668 318 657 l 315 668 m 332 664 l 331 663 q 340 654 331 657 q 354 678 354 660 q 353 683 354 679 l 353 689 q 338 680 344 688 q 332 664 332 672 m 368 697 q 372 686 368 692 q 378 681 375 681 l 376 681 l 394 688 q 411 699 411 694 q 406 709 411 701 q 396 718 401 717 q 368 697 382 699 m 228 767 l 242 738 l 256 779 q 228 767 233 779 z "},"+":{"ha":656,"x_min":47,"x_max":546,"o":"m 246 174 q 256 196 246 192 q 238 217 242 206 q 233 245 233 229 q 229 272 233 261 q 135 299 224 290 l 67 299 l 74 315 l 57 307 l 57 393 q 47 415 47 394 q 51 440 47 436 q 83 443 56 443 l 229 443 l 246 463 l 246 529 q 229 560 229 539 q 246 589 229 589 l 314 589 q 323 573 319 589 q 326 551 326 557 l 281 551 l 281 489 q 349 556 335 489 q 365 497 363 550 q 383 443 368 443 l 519 443 l 546 418 l 546 324 l 538 315 q 465 313 507 315 q 394 306 424 310 q 365 299 365 301 l 365 153 q 355 133 365 140 q 332 126 344 126 q 292 128 307 126 q 262 140 278 129 q 246 174 246 151 m 322 213 q 304 176 304 190 q 324 200 324 176 q 322 207 324 201 l 322 213 m 272 229 q 281 204 272 217 q 314 256 306 221 q 286 242 300 251 q 272 229 272 233 m 322 324 q 281 272 299 304 l 322 272 q 326 278 324 272 q 330 291 328 283 q 332 301 332 299 q 322 324 332 319 m 143 342 q 169 332 157 332 q 194 375 194 332 q 186 376 188 376 q 176 374 181 376 q 165 367 171 372 q 158 360 160 363 q 150 350 156 357 q 143 342 144 343 m 256 358 q 218 342 218 358 q 219 332 218 333 q 263 358 251 338 l 256 358 m 322 350 l 322 338 q 381 362 363 338 q 419 386 399 386 q 403 403 419 396 q 388 417 388 410 q 392 426 388 419 q 341 393 388 422 q 294 350 294 364 l 322 350 m 92 401 l 92 350 q 153 401 128 372 l 92 401 m 443 383 q 435 382 439 383 q 426 376 431 381 q 420 369 422 372 q 414 360 418 367 q 408 350 410 353 l 461 350 q 443 383 451 383 m 478 393 l 478 349 q 502 358 492 349 q 513 381 513 367 q 510 393 513 385 l 478 393 m 297 426 q 263 383 292 406 q 282 385 271 383 q 313 400 293 388 q 332 433 332 413 q 322 488 332 468 q 313 483 319 486 q 304 480 307 481 q 297 476 301 479 q 290 471 292 474 q 285 465 288 468 q 281 457 282 461 q 281 447 281 453 q 297 426 281 426 m 238 411 q 231 401 231 411 q 238 393 231 393 q 243 401 243 393 q 238 411 243 411 m 178 426 q 171 418 171 426 q 178 411 171 411 q 183 418 183 411 q 178 426 183 426 z "},",":{"ha":307,"x_min":51,"x_max":200,"o":"m 93 -124 q 51 -107 51 -124 q 69 -61 51 -89 q 86 -18 86 -33 q 76 -2 86 -15 q 65 17 67 11 q 62 40 65 18 q 58 67 58 63 q 57 75 57 69 q 64 91 57 85 q 84 100 71 97 q 110 103 97 103 q 144 106 124 104 q 178 108 165 107 q 192 100 192 107 l 192 97 q 190 94 190 96 q 199 86 190 89 l 193 79 q 200 67 200 76 l 199 60 l 193 67 l 192 61 q 192 54 192 56 q 199 38 192 42 q 192 13 192 38 q 193 -4 192 -1 q 147 -69 175 -7 q 93 -132 119 -132 l 93 -124 m 90 -90 q 130 -47 97 -86 q 163 3 163 -8 l 163 10 q 86 -89 119 0 l 90 -90 m 122 31 l 122 24 l 143 24 l 143 31 l 122 31 m 99 56 q 114 44 99 44 q 143 51 128 44 l 143 46 l 167 46 q 161 65 167 57 q 156 79 156 74 q 124 69 150 79 q 99 56 99 58 z "},"-":{"ha":617,"x_min":67,"x_max":504,"o":"m 469 282 q 406 292 458 282 q 322 306 354 301 q 272 300 289 310 l 67 300 l 67 408 q 264 414 133 408 q 463 419 394 419 q 494 378 483 410 q 504 317 504 346 q 496 294 504 307 q 469 282 488 282 m 239 343 q 247 337 240 340 q 256 333 253 333 q 265 337 258 333 q 272 343 272 340 l 375 343 l 383 350 q 406 340 383 340 q 413 340 407 340 q 420 340 418 340 q 427 340 422 340 q 435 341 432 340 q 441 342 438 342 q 447 344 444 343 q 451 348 449 346 q 453 353 453 350 q 454 360 454 356 q 432 378 454 378 q 393 368 400 378 q 383 372 392 368 l 375 376 l 367 372 l 358 368 l 342 376 q 272 368 315 376 q 257 378 271 378 q 224 369 236 378 q 210 360 213 360 q 174 369 203 360 q 140 378 146 378 q 101 360 104 372 q 178 339 101 339 q 239 343 206 339 z "},".":{"ha":336,"x_min":61,"x_max":183,"o":"m 61 29 q 94 142 61 142 q 147 133 111 142 q 183 115 183 124 l 183 3 l 79 3 l 63 13 q 61 29 61 24 m 114 72 q 106 53 114 57 q 119 51 107 51 q 140 83 140 51 l 139 88 l 106 97 l 104 93 q 109 83 104 89 q 114 72 114 78 z "},"/":{"ha":738,"x_min":25,"x_max":650,"o":"m 33 -78 q 25 -61 33 -67 q 51 -1 51 -26 q 64 50 54 17 q 76 83 74 83 l 93 101 l 272 419 l 332 538 q 356 610 332 547 q 410 747 381 672 q 443 831 440 822 q 496 921 475 900 q 529 949 511 936 q 579 940 533 947 q 650 907 625 932 q 602 767 650 886 q 539 640 554 649 l 529 650 l 504 597 l 519 607 l 324 213 l 307 196 l 329 196 l 265 83 q 264 84 264 83 q 263 85 264 85 q 222 1 256 85 q 169 -86 188 -82 q 151 -87 156 -87 q 92 -83 131 -87 q 33 -78 53 -78 m 58 -28 q 49 -43 49 -32 l 144 -43 q 158 -33 150 -43 q 165 -17 165 -22 q 113 -22 144 -17 q 58 -28 82 -28 m 83 3 q 102 -10 88 -3 q 124 -18 117 -18 q 133 -8 129 -18 q 149 1 138 1 q 159 0 153 1 q 168 -1 165 -1 q 188 21 182 -1 l 144 21 q 173 36 156 25 q 204 50 190 47 q 290 204 238 99 q 307 264 303 257 q 332 308 310 272 q 354 368 354 344 l 332 368 q 342 376 342 369 q 340 383 342 378 q 339 392 339 389 q 347 392 344 392 q 351 393 350 393 q 368 383 357 393 q 383 424 382 403 q 401 461 385 444 q 453 540 411 471 q 494 633 494 610 q 478 645 494 636 q 461 663 461 654 l 463 667 l 500 649 q 542 717 522 649 q 572 786 561 786 q 599 881 575 786 l 600 882 l 600 883 q 573 896 600 892 q 528 900 546 900 q 539 881 528 886 q 484 837 506 872 q 463 764 463 801 q 488 743 463 754 q 476 744 483 744 q 447 726 457 744 q 436 685 436 707 q 443 675 436 675 q 419 653 429 671 q 401 633 408 636 l 350 496 q 288 369 350 475 q 221 239 225 264 l 221 226 q 204 208 221 225 q 188 178 188 190 q 196 169 188 169 q 137 110 172 169 q 101 29 101 51 q 118 3 101 7 l 83 3 m 299 169 q 290 144 290 156 q 299 169 299 158 m 213 161 l 239 161 l 239 151 q 213 161 229 151 z "},":":{"ha":326,"x_min":60,"x_max":200,"o":"m 65 114 q 70 151 65 128 q 75 188 75 175 q 148 181 122 188 q 179 165 174 174 q 185 143 185 157 q 184 135 185 140 q 183 128 183 131 q 200 107 183 113 q 192 90 192 104 q 111 72 192 72 q 65 114 65 72 m 136 129 q 122 101 122 106 q 135 108 128 101 q 143 114 142 114 q 158 107 144 114 q 158 114 158 108 l 160 119 q 151 135 160 129 q 143 143 143 142 q 150 157 143 150 q 130 150 143 153 q 108 142 117 147 q 100 125 100 138 l 100 119 q 101 114 101 115 q 136 129 117 129 m 60 543 q 72 557 60 549 q 98 553 81 557 q 126 549 115 549 q 153 553 144 549 q 164 557 161 557 q 173 549 167 557 q 179 536 179 542 l 171 519 q 175 508 171 517 q 179 494 179 500 q 160 478 179 485 q 129 471 142 471 l 129 479 q 86 467 107 467 q 72 474 75 467 l 60 543 m 129 524 q 106 506 106 524 q 150 513 150 506 q 129 524 150 524 z "},";":{"ha":386,"x_min":76,"x_max":264,"o":"m 93 -106 q 88 -106 90 -106 q 83 -107 85 -107 q 76 -99 82 -107 q 111 18 111 -51 q 105 26 111 22 q 93 31 99 31 l 93 167 l 239 167 q 249 124 242 167 q 257 71 257 81 q 222 -4 257 46 q 161 -72 186 -54 q 101 -115 106 -115 l 93 -115 l 93 -106 m 161 -12 q 136 -29 142 -22 l 140 -31 q 161 -12 161 -24 m 179 47 q 153 14 158 32 l 161 13 q 193 40 174 13 q 222 68 213 68 q 231 65 225 68 l 222 115 q 199 92 219 115 q 171 57 179 69 l 179 47 m 118 85 l 117 85 q 120 78 117 83 q 128 74 124 74 q 136 115 136 86 q 118 85 118 107 m 181 103 q 161 83 171 83 q 190 97 178 83 q 201 131 201 111 q 144 90 157 131 l 179 108 l 181 106 l 181 103 m 214 640 q 264 613 264 640 l 264 519 l 247 501 q 197 498 240 501 q 144 494 153 494 l 136 489 q 128 485 129 485 l 124 485 q 111 494 111 485 l 111 631 q 214 640 199 640 m 136 546 q 153 535 139 535 q 185 558 165 535 q 206 597 206 581 q 163 575 176 597 q 136 546 149 553 m 231 571 q 204 536 215 557 q 210 536 206 536 l 214 535 q 232 558 232 535 q 231 571 231 568 z "},"<":{"ha":593,"x_min":40,"x_max":357,"o":"m 50 322 l 40 322 l 40 339 q 246 622 193 514 l 264 622 q 357 588 357 622 q 201 351 201 367 q 211 313 201 317 q 331 142 260 246 q 349 94 349 114 q 310 67 349 78 q 253 56 272 56 q 158 167 244 56 q 50 313 71 278 q 49 314 50 314 q 49 315 49 314 q 50 319 49 317 l 50 322 m 211 160 q 227 141 217 154 q 245 118 238 128 q 254 108 253 108 l 289 125 l 263 125 q 271 151 271 133 q 251 180 269 157 q 229 203 232 203 q 193 185 210 203 q 214 175 196 175 q 228 176 225 175 l 211 160 m 176 203 l 186 193 l 203 211 q 176 203 181 211 m 199 254 q 176 228 189 254 q 182 228 178 228 l 186 226 q 213 240 213 226 q 208 249 213 244 q 199 254 203 254 m 168 279 q 147 243 147 267 q 174 251 163 243 q 186 274 186 260 q 176 306 186 294 q 133 279 139 286 l 168 279 m 151 313 q 107 288 124 313 q 133 292 125 288 q 151 313 142 297 m 133 365 q 101 351 114 365 q 89 319 89 336 q 151 339 151 319 q 133 365 151 361 m 182 418 q 155 405 165 418 q 144 375 144 392 l 160 375 l 186 417 l 185 417 q 182 418 183 418 m 254 521 q 215 498 233 521 q 186 451 197 475 q 230 474 206 451 q 254 511 254 497 l 254 521 m 271 579 q 254 553 263 572 q 256 551 254 551 q 279 571 272 551 l 271 579 z "},"=":{"ha":731,"x_min":86,"x_max":550,"o":"m 151 214 q 113 225 121 214 q 106 267 106 236 l 106 272 q 106 281 106 279 q 106 288 106 282 q 106 295 106 293 q 108 301 107 297 q 111 308 110 306 q 115 313 113 310 q 120 317 117 315 q 127 319 124 318 q 136 319 131 319 q 242 317 153 319 q 347 314 332 314 l 356 314 q 372 310 357 314 q 406 302 388 306 q 433 299 425 299 q 478 306 447 299 q 524 314 508 314 q 546 275 546 314 q 536 215 546 231 q 488 199 526 199 q 469 199 483 199 q 453 200 454 200 q 404 207 449 200 q 354 214 360 214 q 315 215 350 214 q 254 215 279 215 q 192 215 229 215 q 151 214 156 214 m 431 250 q 456 246 439 250 q 481 242 472 242 q 511 257 511 242 q 488 271 511 271 q 456 265 479 271 q 431 257 433 260 l 431 250 m 142 281 q 154 257 142 257 q 186 269 161 257 q 142 281 186 281 m 271 281 q 239 280 247 281 q 217 274 231 279 q 193 257 203 268 l 207 257 q 242 262 217 257 q 271 269 268 267 l 271 281 m 392 265 q 369 257 372 265 l 392 257 l 392 265 m 321 279 q 312 276 318 279 q 297 269 306 274 q 285 264 289 265 q 292 264 286 264 l 297 263 q 321 279 321 263 m 347 278 l 333 264 l 338 264 l 342 263 q 354 269 351 263 l 347 278 m 411 269 l 411 264 l 425 264 q 414 271 418 271 l 411 269 m 296 390 q 196 387 261 390 q 99 383 131 383 q 86 404 86 383 q 101 474 86 446 q 108 454 101 469 q 119 439 114 439 q 151 454 140 447 q 124 474 124 454 l 144 482 l 474 482 l 544 468 l 550 460 l 531 460 q 534 433 531 450 q 538 407 538 417 q 533 387 538 392 q 515 376 529 382 q 296 390 457 390 m 221 440 q 228 425 221 439 q 278 446 264 425 l 207 446 l 193 433 q 201 432 199 432 q 221 440 213 432 m 354 446 l 343 446 q 271 425 283 446 l 281 425 q 356 442 356 425 l 354 446 m 443 447 q 428 448 439 447 q 410 449 417 449 q 360 425 360 449 l 446 425 l 468 446 q 455 447 465 446 q 443 447 444 447 m 492 440 q 468 425 478 440 l 504 425 q 492 440 504 440 m 164 454 q 153 444 161 453 q 144 433 144 436 q 153 432 146 433 q 161 431 160 431 q 193 446 188 431 q 164 454 185 454 z "},">":{"ha":593,"x_min":68,"x_max":388,"o":"m 154 579 l 146 571 q 169 551 153 551 l 171 553 q 154 579 163 572 m 171 521 l 171 511 q 195 474 171 497 q 239 451 219 451 q 210 498 228 475 q 171 521 192 521 m 243 418 q 239 417 242 418 l 265 375 l 281 375 q 270 405 281 392 q 243 418 260 418 m 292 365 q 274 339 274 361 q 276 330 274 333 q 283 324 278 326 q 292 321 288 322 q 303 319 296 319 q 315 319 311 319 q 326 319 319 319 q 336 319 333 319 q 324 351 336 336 q 292 365 311 365 m 274 313 q 292 292 283 297 q 318 288 300 288 q 274 313 301 313 m 257 279 l 292 279 q 249 306 286 286 q 239 274 239 294 q 251 251 239 260 q 278 243 263 243 q 257 279 278 267 m 226 254 q 217 249 222 254 q 213 240 213 244 q 239 226 213 226 l 243 228 q 249 228 247 228 q 226 254 236 254 m 239 193 l 249 203 q 228 211 243 211 l 222 211 l 239 193 m 214 160 l 197 176 q 211 175 200 175 q 232 185 229 175 q 196 203 215 203 q 174 180 193 203 q 154 151 156 157 q 163 125 154 133 l 136 125 l 171 108 q 180 118 172 108 q 198 141 188 128 q 214 160 208 154 m 385 339 q 388 328 388 331 q 363 303 388 317 q 261 161 342 267 q 172 56 181 56 q 115 67 153 56 q 76 94 76 78 q 94 142 76 114 q 214 313 165 246 q 224 342 224 315 q 214 375 224 360 q 154 465 206 389 q 94 553 103 540 q 68 588 68 571 q 161 622 68 622 l 179 622 q 385 339 232 514 z "},"?":{"ha":644,"x_min":40,"x_max":531,"o":"m 188 -36 l 188 58 q 261 68 188 68 q 284 67 275 68 q 300 63 293 67 q 310 58 307 60 q 317 48 314 56 q 320 37 319 40 q 322 20 321 33 q 325 0 324 7 q 331 -31 325 -7 q 336 -71 336 -54 q 263 -61 313 -71 q 204 -51 214 -51 l 188 -36 m 249 -10 l 249 -19 l 296 -19 q 285 10 296 -4 q 261 25 275 25 q 242 19 254 25 q 222 14 231 14 l 222 -10 l 249 -10 m 213 221 q 249 401 244 324 q 269 427 257 406 q 297 485 281 449 q 325 539 314 521 q 357 578 332 550 q 392 630 382 607 q 403 683 403 653 q 385 718 403 714 l 394 728 q 384 735 392 728 q 376 744 376 742 q 292 802 349 782 q 204 822 236 822 l 110 761 l 101 744 q 68 772 96 754 q 40 819 40 789 q 122 895 40 867 q 261 924 204 924 q 453 866 376 924 q 531 696 531 808 q 503 577 531 650 q 453 496 476 504 q 410 437 433 472 q 358 357 386 401 q 315 290 331 313 q 318 275 318 285 q 307 256 318 260 q 317 242 313 251 q 324 225 322 232 l 325 217 q 271 194 325 194 q 263 194 269 194 q 255 194 257 194 q 248 194 253 194 q 241 195 243 194 q 235 197 239 196 q 228 199 231 197 q 224 202 226 200 q 219 207 221 204 q 215 213 217 210 q 213 221 214 217 m 342 411 q 298 388 306 399 q 290 333 290 378 q 317 367 293 333 q 342 401 342 400 l 342 411 m 368 468 q 343 463 353 468 q 329 453 333 458 q 319 437 325 449 q 307 418 313 425 q 314 417 308 418 l 321 417 q 363 430 342 417 q 385 465 385 443 q 344 497 385 497 q 368 468 344 468 m 376 518 q 396 494 376 503 q 453 564 418 494 q 489 643 482 618 q 496 706 496 668 q 491 749 496 729 q 481 777 486 768 q 464 807 476 786 q 446 838 451 828 l 446 847 q 412 825 429 844 q 394 790 394 806 q 422 774 394 774 q 453 778 436 774 q 439 766 450 776 q 426 753 428 756 l 426 749 q 433 736 426 744 q 446 728 440 728 q 450 728 447 728 q 453 729 453 729 l 453 710 l 471 718 q 455 688 465 711 q 436 645 444 665 q 426 625 428 625 l 436 615 q 408 578 424 601 q 384 537 393 554 q 376 518 375 519 m 76 822 q 93 796 76 806 l 101 803 q 260 865 133 865 q 290 864 282 865 q 315 879 311 874 q 286 881 311 879 q 256 882 261 882 q 195 874 224 882 q 132 851 167 867 q 76 829 97 836 l 76 822 m 389 822 q 364 801 364 822 q 394 822 381 801 l 389 822 m 367 872 q 342 854 351 872 q 332 818 332 836 q 419 847 367 818 q 367 872 403 872 m 333 872 q 307 843 307 864 q 335 864 335 843 l 333 872 z "},"@":{"ha":910,"x_min":68,"x_max":739,"o":"m 68 268 q 96 392 68 343 q 115 438 106 407 q 132 483 124 469 q 278 615 178 564 q 475 667 379 667 q 632 629 565 667 q 672 597 642 625 q 703 556 703 569 l 703 554 l 701 553 q 739 421 739 482 q 688 224 739 243 q 701 207 701 224 q 644 117 701 160 q 588 87 642 117 q 465 27 533 57 q 360 -3 396 -3 q 349 -1 351 -3 l 342 -8 l 331 -11 q 303 -14 318 -12 q 279 -15 288 -15 q 258 -11 267 -15 q 240 1 250 -7 q 224 13 231 8 q 194 27 218 15 q 155 49 169 39 q 132 69 140 58 q 68 268 68 153 m 442 64 q 347 54 407 64 q 279 28 286 44 l 308 28 q 388 35 333 28 q 442 56 442 43 l 442 64 m 139 143 q 167 81 139 115 q 224 47 196 47 q 236 60 228 47 q 256 91 244 72 q 272 117 267 110 l 222 90 q 214 92 219 90 l 210 93 l 210 97 q 222 99 215 97 q 232 104 228 101 q 242 111 236 107 q 251 117 249 115 q 234 131 244 126 q 208 140 224 136 q 189 146 192 144 l 196 161 l 189 161 q 139 143 139 161 m 356 117 l 349 117 l 286 56 q 413 100 354 100 q 449 97 421 100 q 356 117 436 117 m 381 79 q 357 61 357 79 q 381 79 381 65 m 463 76 q 476 68 465 68 q 490 76 488 68 l 463 76 m 308 129 q 283 117 294 129 q 272 90 272 106 q 308 129 308 113 m 456 117 l 456 115 q 488 101 456 113 q 525 90 519 90 q 571 107 542 92 q 608 139 600 122 q 588 132 601 132 q 563 139 581 132 q 535 146 544 146 q 498 133 526 146 q 456 117 469 119 m 406 146 q 394 140 401 146 q 385 129 386 133 q 386 125 386 126 l 511 146 l 518 154 q 497 168 514 168 q 476 165 489 168 q 463 163 464 163 l 463 174 l 414 174 q 385 153 407 164 q 357 132 364 143 q 383 139 364 132 q 406 146 401 146 m 174 139 l 189 132 l 174 132 l 174 139 m 111 194 q 120 175 111 189 q 139 161 129 161 l 181 203 q 111 194 124 203 m 222 211 q 272 167 222 167 q 310 173 278 167 q 349 181 342 179 q 374 195 356 185 q 406 211 393 206 l 406 225 q 366 207 392 225 q 325 189 340 189 q 272 206 299 189 q 244 249 244 222 l 246 267 q 249 304 247 285 q 251 329 251 324 l 238 329 q 231 299 235 329 q 225 240 228 269 l 222 211 m 518 281 q 517 251 517 269 q 531 198 517 215 q 585 181 546 181 q 618 194 618 181 q 617 203 618 201 q 538 318 538 211 q 539 364 538 349 q 463 251 463 292 l 499 288 q 518 281 517 288 m 488 211 q 456 189 475 211 q 463 188 461 188 q 488 211 488 188 m 632 203 l 632 189 l 638 203 l 632 203 m 665 211 q 651 194 651 211 q 672 211 668 203 l 665 211 m 181 239 q 118 217 154 239 l 181 217 l 181 239 m 418 238 l 418 224 l 456 238 l 418 238 m 201 413 l 139 407 q 100 276 100 367 q 101 251 100 268 q 101 228 101 235 q 154 238 126 228 q 182 267 182 247 l 174 267 q 139 258 157 258 q 115 274 115 258 q 118 281 115 278 q 138 272 119 272 q 189 296 189 272 q 165 291 181 296 q 143 286 150 286 q 138 287 142 286 q 132 288 133 288 q 158 299 140 293 q 181 307 176 304 l 174 307 l 165 306 q 147 303 157 304 q 132 301 136 301 l 124 307 q 167 333 132 319 q 204 368 203 346 l 150 368 q 144 376 144 372 q 172 395 144 383 q 201 413 199 407 m 286 238 q 310 231 293 231 q 444 309 356 231 q 533 440 533 388 q 515 466 533 454 q 483 478 497 478 q 344 416 404 478 q 285 274 285 354 q 285 256 285 271 q 286 238 286 240 m 568 307 q 608 238 574 238 q 678 260 647 238 q 708 315 708 282 q 644 281 661 303 l 657 281 q 658 274 657 279 q 658 267 658 269 q 651 258 658 258 l 596 258 l 596 274 q 622 288 606 276 q 638 301 638 299 q 611 299 624 299 q 588 311 588 299 q 592 317 588 314 q 601 324 596 321 q 608 329 607 328 l 575 335 q 568 307 568 331 m 638 322 q 651 315 642 315 q 688 323 667 315 q 715 343 710 331 l 708 351 q 674 340 703 351 q 638 322 644 329 m 189 335 q 168 322 175 335 q 196 329 181 322 q 189 335 196 335 m 265 371 q 244 343 247 358 q 265 371 265 343 m 575 357 q 582 351 575 351 q 596 357 590 351 q 582 364 589 364 q 578 361 581 364 q 575 357 575 358 m 701 379 q 682 373 696 378 q 654 363 668 368 q 638 357 640 358 l 632 351 q 652 353 636 351 q 673 355 668 354 q 689 359 678 356 q 703 367 700 363 q 711 379 707 371 q 715 399 715 388 q 701 456 715 456 q 680 448 690 456 q 665 433 669 440 l 661 426 q 662 425 661 425 q 663 424 663 425 l 701 424 q 676 403 694 413 q 651 385 657 394 l 701 385 l 701 379 m 229 407 q 209 397 222 403 q 185 385 196 390 q 174 379 175 381 q 185 378 175 379 q 196 378 194 378 q 229 407 229 378 m 325 464 l 325 467 q 265 385 318 467 l 286 385 l 329 463 q 325 464 326 464 m 644 407 l 588 407 q 581 383 581 385 q 644 407 636 383 m 215 456 l 160 456 q 151 439 151 456 q 153 426 153 429 l 215 456 m 244 440 q 215 426 224 440 q 251 440 249 435 l 244 440 m 663 463 l 596 456 l 596 426 q 634 443 603 426 q 665 463 665 460 l 663 463 m 192 504 l 189 504 l 168 476 q 196 481 181 476 q 220 490 211 485 q 229 497 229 494 l 192 504 m 286 497 l 238 476 q 254 474 243 474 q 276 482 265 474 q 315 510 288 490 q 379 547 342 529 q 416 552 389 547 q 443 564 443 557 q 392 597 443 565 q 389 589 392 594 q 386 581 386 583 q 370 592 378 585 q 357 602 363 599 q 347 606 351 606 q 355 581 347 597 q 363 556 363 564 q 327 565 349 556 q 294 575 306 575 q 306 564 297 571 q 320 551 314 557 q 326 542 326 546 q 320 541 325 542 q 314 540 315 540 q 281 558 289 540 q 272 575 274 575 q 254 560 254 575 l 272 560 q 267 553 272 558 q 260 547 261 547 q 244 553 250 547 l 215 525 q 226 524 217 525 q 238 524 236 524 q 260 532 246 524 q 279 540 275 540 q 303 534 293 540 q 313 518 313 528 q 300 519 311 518 q 286 521 289 521 q 244 511 251 514 q 286 497 269 511 m 386 511 q 342 476 360 497 q 481 514 431 514 q 560 476 533 514 q 560 482 560 478 q 561 488 561 486 q 496 526 561 526 q 386 511 447 526 m 638 483 l 638 476 l 694 483 l 701 490 q 694 511 701 504 l 638 483 m 640 511 q 594 497 594 511 q 607 483 594 483 q 631 493 615 483 q 651 511 646 503 l 640 511 m 582 540 q 581 536 581 539 q 585 529 581 533 q 592 522 589 525 l 596 521 l 638 543 l 596 543 q 630 555 606 550 q 665 568 654 560 q 647 595 663 575 q 624 617 631 615 l 617 614 q 608 610 610 610 q 588 625 603 610 l 511 625 q 497 606 503 625 q 490 568 490 588 l 504 575 q 545 560 522 575 q 582 540 568 544 m 644 533 l 681 525 l 681 549 q 644 533 663 549 m 442 625 q 445 601 443 621 q 454 570 447 581 q 476 560 461 560 l 483 581 l 468 575 q 490 614 490 597 q 476 639 490 622 q 444 634 461 636 q 418 631 428 632 q 399 629 408 631 q 387 626 390 628 q 383 624 383 625 q 386 617 386 618 l 428 590 q 442 625 431 590 m 300 590 l 342 568 q 342 572 342 569 q 343 575 343 575 q 338 591 343 579 q 329 603 333 603 l 300 590 m 624 575 l 632 575 q 604 568 631 568 q 624 575 611 575 z "},"A":{"ha":782,"x_min":10,"x_max":797,"o":"m 10 0 q 19 53 10 22 q 44 120 29 83 q 61 163 60 157 q 99 295 76 206 q 139 429 122 385 q 172 510 146 450 q 208 610 197 569 l 215 617 q 221 642 217 621 q 228 678 225 664 q 240 704 232 692 q 261 717 249 717 q 287 822 261 739 q 326 917 313 906 q 446 906 424 917 q 490 831 468 896 l 494 822 q 503 807 499 815 q 507 797 507 799 q 506 789 507 794 l 506 785 q 523 763 517 785 q 537 714 529 742 q 558 676 544 686 q 553 674 557 676 q 549 669 549 671 q 558 640 549 660 q 567 610 567 621 l 585 610 q 576 592 576 601 q 593 562 576 585 q 610 532 610 539 q 615 497 611 524 q 624 452 619 471 q 636 419 629 433 q 653 394 644 403 q 667 383 663 386 q 676 360 671 379 q 688 300 682 340 q 713 208 693 258 q 759 97 732 157 q 797 10 786 38 q 751 -18 797 -18 q 714 -8 736 -18 q 679 1 692 1 q 659 -3 672 1 q 640 -7 646 -7 q 626 10 633 -7 q 607 59 618 26 q 592 104 596 92 q 585 122 590 107 q 576 144 579 136 q 567 167 574 151 q 554 191 560 182 q 540 213 549 200 q 525 232 532 225 q 508 244 518 239 q 489 249 499 249 q 435 244 471 249 q 382 240 400 240 q 299 244 354 240 q 208 249 243 249 q 147 78 185 163 q 140 41 143 68 q 128 -2 136 14 q 101 -18 119 -18 q 10 0 60 -18 m 75 99 q 68 88 75 99 q 61 56 61 76 q 74 35 61 35 q 85 45 81 35 q 89 60 89 56 l 78 60 q 121 119 117 106 q 114 119 119 119 l 108 121 q 75 99 89 121 m 663 60 q 713 43 668 43 q 732 58 732 43 q 704 129 732 82 q 695 124 703 128 q 683 115 688 119 q 672 106 678 111 q 662 96 665 101 q 658 85 658 90 q 696 94 676 85 l 663 60 m 628 129 q 635 113 628 122 q 649 103 642 103 l 651 104 l 696 144 l 696 158 q 653 150 679 158 q 628 129 628 142 m 667 215 q 618 154 658 215 q 657 162 635 154 q 679 183 679 169 q 667 215 679 215 m 147 215 q 128 208 138 215 q 115 192 119 200 q 111 183 111 185 l 111 178 q 113 172 113 174 l 165 214 q 156 214 163 214 l 147 215 m 592 199 q 607 179 592 179 q 637 204 621 179 q 653 244 653 229 q 640 285 653 285 q 632 278 642 285 q 585 240 590 251 q 589 236 586 240 q 597 232 592 232 q 620 237 599 233 q 643 240 642 240 q 615 222 639 232 q 592 199 592 213 m 181 267 q 131 232 161 267 q 190 267 165 232 l 181 267 m 549 275 q 576 257 558 257 q 614 277 600 257 q 628 321 628 297 q 603 438 628 356 q 549 394 565 438 l 592 394 l 592 386 q 572 363 589 383 q 538 324 554 343 q 515 292 522 306 q 525 292 517 292 l 532 290 q 576 303 549 290 q 618 317 603 317 q 549 275 603 297 m 169 310 q 138 275 138 310 l 139 267 q 190 300 179 288 q 169 310 188 310 m 215 292 q 228 283 218 283 l 236 283 q 301 310 301 283 q 285 328 301 328 q 254 315 281 328 q 215 292 228 301 m 404 317 q 358 279 358 297 q 376 278 364 279 q 394 278 388 278 q 490 317 464 278 q 446 335 483 335 q 422 320 438 335 q 404 300 407 306 l 404 317 m 353 319 q 328 312 339 321 q 317 288 317 303 q 371 317 344 288 q 361 318 368 317 q 353 319 354 319 m 508 308 q 488 286 488 306 q 508 308 506 286 m 208 360 l 172 326 l 208 326 l 208 360 m 225 411 q 172 401 189 411 q 154 360 154 390 l 156 353 q 156 343 156 344 q 176 356 160 346 q 200 372 192 365 q 219 389 208 378 q 233 411 229 400 l 225 411 m 568 376 q 549 360 549 376 l 568 376 m 275 390 q 326 369 275 369 q 408 374 353 369 q 492 379 464 379 q 469 456 492 403 q 446 522 446 510 l 379 651 q 276 394 354 508 l 275 393 q 275 390 275 392 m 524 443 q 529 428 524 436 q 538 419 535 419 q 572 438 558 419 q 586 476 586 456 q 579 518 586 496 q 558 540 572 540 q 525 489 549 528 q 514 476 514 478 l 515 474 q 519 467 517 471 q 525 464 522 464 q 551 468 533 464 q 576 472 569 472 l 525 446 l 524 443 m 276 489 l 215 489 q 201 481 207 489 q 192 465 194 474 q 185 444 189 457 q 181 429 182 432 q 276 489 206 438 m 267 464 q 257 460 264 463 q 247 455 250 457 q 238 449 243 453 q 229 443 232 446 q 224 435 226 440 q 222 424 222 429 q 252 435 236 424 q 268 458 268 446 l 267 461 l 267 464 m 489 525 q 499 489 489 499 q 550 575 550 532 q 528 636 550 636 q 499 617 518 636 l 532 651 q 517 693 532 657 q 499 729 503 729 l 490 729 l 431 669 q 429 664 429 665 q 438 651 429 657 q 456 643 447 644 q 446 621 446 642 q 460 590 446 590 q 482 601 464 590 q 477 578 482 592 q 472 556 472 564 q 501 560 482 556 q 532 565 521 565 q 508 549 528 557 q 489 525 489 542 m 301 576 q 268 547 289 563 q 234 522 247 532 q 221 504 221 513 q 283 517 267 504 q 310 576 300 531 l 301 576 m 225 549 q 228 544 225 547 q 233 540 232 540 q 347 661 347 607 l 338 661 q 292 635 329 661 q 256 600 256 608 q 283 605 267 600 q 310 610 300 610 q 291 592 306 597 q 262 586 276 586 q 236 577 247 586 q 225 549 225 568 m 301 676 q 265 646 265 676 l 267 636 q 332 671 301 646 q 379 729 363 696 l 482 764 q 467 815 482 789 q 440 853 453 840 l 428 865 q 421 865 426 865 q 411 864 415 864 q 389 873 408 864 q 361 882 369 882 q 334 835 342 882 q 318 781 326 788 l 353 781 q 315 751 347 769 q 283 694 283 733 q 301 676 283 676 m 397 721 q 406 699 397 714 q 421 685 415 685 q 438 695 426 685 q 465 722 449 706 q 490 746 481 738 q 397 721 428 746 z "},"B":{"ha":815,"x_min":85,"x_max":721,"o":"m 94 -3 l 94 528 q 85 546 85 538 q 96 663 92 594 q 104 776 100 731 q 119 844 108 822 q 138 796 138 833 q 133 758 138 783 q 129 717 129 732 l 138 688 q 135 672 138 685 q 131 632 133 658 q 129 571 129 606 q 132 556 129 565 q 136 546 135 546 l 179 546 l 189 564 q 169 742 169 715 q 174 783 169 764 q 179 811 179 803 q 169 829 179 822 q 189 839 176 832 q 210 851 201 846 q 221 857 219 857 q 231 838 221 842 q 325 844 263 838 q 335 850 328 846 l 342 854 q 340 850 340 853 q 425 828 340 828 q 460 838 432 828 q 489 854 489 849 l 489 863 l 456 865 l 239 865 l 239 868 q 206 865 228 868 q 169 863 183 863 q 142 866 168 863 q 111 871 117 869 q 118 893 111 882 q 129 904 125 904 q 146 901 131 904 q 164 897 161 897 q 219 906 179 897 q 278 914 260 914 l 283 911 q 297 906 289 908 q 308 904 304 904 l 325 914 q 343 909 328 914 q 360 904 358 904 q 381 909 363 904 q 401 914 400 914 q 488 904 435 914 q 565 879 540 894 q 638 769 607 854 q 668 624 668 683 q 607 478 668 575 q 641 445 618 465 q 676 412 664 425 q 699 369 689 399 q 710 301 710 340 q 715 281 710 294 q 721 250 721 267 q 708 174 721 210 q 673 111 696 139 q 631 66 650 83 q 587 29 613 49 q 557 6 561 10 q 494 -7 546 -7 l 465 -7 q 453 -10 463 -7 q 419 -17 443 -14 q 360 -19 394 -19 q 342 -11 358 -19 q 244 -16 308 -11 q 149 -21 181 -21 l 111 -19 l 94 -3 m 135 72 q 144 24 135 33 l 197 31 l 197 40 l 172 40 q 181 60 172 49 q 189 78 189 72 q 154 117 189 104 q 163 123 158 118 q 169 133 167 128 l 171 138 q 165 150 171 142 q 154 160 158 158 l 172 160 q 168 190 172 169 q 164 219 164 210 q 167 228 164 221 q 171 250 171 235 q 168 272 171 261 q 165 293 165 283 l 169 289 q 179 306 179 296 l 179 418 q 274 494 239 451 l 257 511 q 198 524 243 518 q 126 531 153 531 q 125 528 125 529 q 131 516 125 525 q 136 503 136 507 q 132 463 136 489 q 128 403 128 436 q 133 335 128 381 q 138 265 138 289 q 136 236 138 246 l 144 229 q 135 204 135 226 q 140 171 135 189 q 144 142 144 153 q 140 115 144 133 q 135 72 135 96 m 300 57 q 258 48 293 57 q 224 31 224 39 l 224 19 q 263 30 239 19 q 292 40 288 40 q 308 35 293 40 q 325 31 324 31 l 331 31 q 342 40 333 31 q 351 57 350 50 q 368 24 363 24 l 436 24 l 444 14 l 456 31 q 478 29 464 29 q 506 39 489 29 l 522 47 q 649 111 611 74 q 686 236 686 149 q 667 334 686 257 q 635 418 649 411 q 625 420 633 418 q 608 424 617 422 l 601 425 q 585 433 593 428 q 566 441 576 439 q 532 443 556 443 q 514 433 514 443 q 574 418 531 422 q 572 414 572 417 q 594 387 572 404 q 617 365 615 369 q 629 338 618 364 q 643 306 640 311 q 624 282 624 293 q 643 272 643 282 q 637 248 643 265 q 626 229 631 231 l 635 219 l 668 236 q 651 215 668 226 q 633 176 633 204 q 634 163 633 174 q 635 151 635 153 q 641 156 635 153 q 650 160 647 160 q 657 157 653 160 q 661 151 661 154 q 610 140 647 140 q 601 107 610 126 q 458 72 524 72 q 433 78 439 72 l 429 83 q 411 78 426 83 l 396 74 q 300 71 363 71 l 300 57 m 214 65 l 214 57 q 249 65 224 57 l 214 65 m 224 117 q 240 117 229 117 q 257 118 251 118 q 349 113 288 118 q 440 107 410 107 q 583 168 567 107 q 592 275 592 213 q 578 345 592 318 q 538 383 565 372 q 488 397 510 394 q 426 400 465 400 q 224 374 296 400 q 204 196 204 369 q 224 117 204 147 m 411 503 q 379 501 397 503 q 324 494 361 500 q 263 469 286 488 q 239 425 239 451 q 360 485 331 464 l 317 442 l 317 432 q 343 437 333 432 q 356 448 353 442 q 367 463 360 454 q 385 478 374 472 q 420 486 390 481 q 463 511 450 492 q 460 516 463 513 q 456 519 457 519 q 431 513 449 519 q 411 503 413 507 m 504 519 q 457 494 496 519 q 385 442 418 469 q 397 441 388 442 q 407 440 406 440 q 471 485 451 440 q 465 463 471 475 q 460 447 460 451 q 515 465 482 447 q 549 499 549 483 q 529 510 549 501 q 504 519 510 519 m 540 528 l 540 518 q 585 528 561 518 q 608 558 608 539 l 608 561 l 607 564 l 540 528 m 224 564 q 289 543 243 543 q 303 543 290 543 q 326 543 315 543 q 356 544 338 543 q 390 546 375 544 q 425 550 406 547 q 460 557 444 553 q 491 568 475 561 q 517 583 507 575 q 534 604 528 592 q 540 631 540 617 l 536 639 q 531 649 531 647 q 535 657 531 650 q 540 665 540 664 q 504 751 540 697 q 360 789 482 783 q 231 811 239 794 q 213 757 213 793 q 218 659 213 724 q 224 564 224 594 m 557 571 l 557 554 q 583 571 576 564 l 557 571 m 574 597 q 589 588 575 588 q 606 588 599 588 q 619 590 614 589 q 627 594 624 590 q 632 599 631 597 q 634 606 633 600 q 635 615 635 611 q 635 626 635 618 q 635 639 635 633 q 622 726 635 676 q 583 776 610 776 q 556 762 569 776 q 543 733 543 747 q 583 726 558 733 l 574 717 l 578 717 q 583 715 582 715 q 601 726 596 715 q 588 697 601 714 q 574 665 574 679 q 581 658 574 663 q 594 651 588 654 l 601 649 q 574 631 583 642 q 597 635 585 631 q 617 639 608 639 l 574 597 m 522 776 q 542 768 535 768 q 574 785 550 768 q 566 785 572 785 q 557 786 560 786 q 522 776 532 786 m 531 839 q 506 824 517 839 q 496 793 496 808 q 565 806 565 793 q 553 828 565 818 q 531 839 540 839 m 493 839 q 453 804 453 839 q 504 838 492 804 l 500 839 q 493 839 494 839 z "},"C":{"ha":788,"x_min":32,"x_max":761,"o":"m 32 382 q 168 758 32 600 q 517 915 304 915 q 567 915 553 915 q 618 911 581 914 q 674 901 656 908 q 716 879 692 893 q 751 842 740 865 q 761 786 761 818 q 756 764 761 776 q 740 751 750 751 q 656 773 717 751 q 560 794 594 794 q 367 751 481 794 q 186 374 186 685 q 187 356 186 371 q 188 339 188 342 q 201 317 196 336 q 208 274 206 297 q 213 246 210 251 q 569 92 279 92 q 666 117 607 92 q 736 143 725 143 q 761 110 761 143 q 753 37 761 69 q 735 4 746 4 q 719 6 729 4 l 710 6 q 478 -21 563 -21 q 461 -20 472 -21 q 444 -19 450 -19 q 423 -32 440 -26 q 393 -37 406 -37 q 139 103 246 -26 q 32 382 32 232 m 358 57 q 413 32 357 40 q 504 24 469 24 q 623 33 560 24 q 710 57 686 42 l 710 83 q 539 47 594 47 q 460 57 522 47 q 330 94 440 61 q 213 126 219 126 l 229 142 q 219 151 225 151 q 211 150 217 151 q 203 149 206 149 q 202 172 203 165 q 194 186 201 178 q 169 194 186 194 q 188 219 182 201 q 164 250 164 219 l 136 250 q 151 258 142 254 q 165 265 160 261 q 169 272 169 268 q 161 306 169 289 q 128 287 147 303 q 110 258 110 271 q 119 228 110 254 q 129 201 128 201 q 154 213 139 201 q 144 194 144 206 q 151 156 144 174 q 170 125 157 139 q 195 102 183 111 q 229 83 207 93 q 263 69 251 74 q 300 58 275 65 q 332 47 325 50 l 333 47 q 358 57 336 47 m 85 314 q 88 292 85 306 q 93 279 92 279 l 110 279 l 154 322 l 154 332 q 85 314 85 332 m 140 383 q 111 369 128 383 q 93 339 94 354 q 124 340 114 339 q 144 349 133 342 q 154 374 154 357 q 148 380 154 376 q 140 383 142 383 m 72 407 l 72 399 q 90 364 72 364 q 144 407 107 364 l 72 407 m 157 497 q 101 487 118 497 q 83 442 83 476 l 83 435 q 85 426 85 428 q 157 497 157 471 m 154 461 q 100 426 117 446 q 111 426 103 426 q 124 425 119 425 q 156 447 156 425 q 154 461 156 458 m 154 554 q 100 511 135 554 q 106 511 101 511 q 133 513 124 511 q 152 522 143 514 q 161 546 161 529 q 158 551 161 547 q 154 554 156 554 m 154 579 l 110 579 q 100 549 100 579 l 100 538 l 154 571 l 154 579 m 188 639 q 144 606 171 635 q 157 603 147 603 q 180 612 171 603 q 189 635 189 621 q 189 636 189 636 l 188 639 m 183 668 q 151 658 168 668 q 135 635 135 647 q 136 631 135 633 q 146 635 138 632 q 159 642 154 639 q 170 649 164 644 q 180 658 176 653 q 183 668 183 663 m 161 692 l 161 672 q 201 692 179 685 q 229 704 222 700 q 242 725 236 708 q 247 776 247 742 l 161 692 m 310 814 q 282 803 293 814 q 271 774 271 792 q 297 787 285 774 q 310 814 310 800 m 332 811 l 308 776 q 333 807 333 801 q 333 808 333 808 l 332 811 m 440 838 q 385 794 421 838 q 444 838 415 796 l 440 838 m 701 807 q 719 793 701 793 l 719 838 q 701 807 701 826 m 358 829 l 367 811 q 435 863 435 860 l 419 863 q 383 848 408 863 q 358 829 358 833 m 665 844 q 657 815 657 831 q 681 824 669 815 q 693 844 693 832 q 684 865 693 857 q 663 872 675 872 q 653 862 658 872 q 649 844 649 851 l 665 844 m 504 856 q 478 829 492 856 l 482 828 q 488 828 486 828 q 514 854 503 828 l 510 856 q 504 856 506 856 m 638 864 q 615 848 625 864 q 604 821 604 832 q 629 833 619 821 q 642 863 639 846 l 638 864 m 572 871 l 539 838 q 547 836 546 836 q 565 847 558 836 q 572 871 572 858 m 451 871 q 471 844 451 860 l 496 871 l 451 871 m 621 874 q 605 867 613 874 q 593 856 597 861 q 589 853 589 851 q 621 874 621 853 m 531 871 l 531 861 q 547 871 542 861 l 531 871 z "},"D":{"ha":924,"x_min":88,"x_max":906,"o":"m 89 4 q 88 76 89 15 q 88 147 88 138 q 93 321 88 204 q 99 497 99 438 q 93 547 99 514 q 88 599 88 581 q 97 699 88 633 q 107 797 107 765 q 103 834 107 810 q 99 871 99 858 q 442 908 99 908 l 518 908 q 683 847 589 900 q 800 751 778 794 q 872 629 839 725 q 906 472 906 533 q 826 193 906 325 q 819 178 824 190 q 809 158 815 165 q 793 150 803 150 l 800 142 l 783 132 l 793 126 q 713 72 771 94 q 606 39 654 49 q 168 4 550 33 q 137 -6 153 3 q 110 -14 121 -14 q 89 4 89 -14 m 124 142 q 133 117 124 136 q 140 57 133 99 q 296 47 276 57 q 304 65 296 57 q 321 61 310 65 q 339 57 332 57 q 447 69 375 57 q 554 82 518 82 l 606 82 q 675 103 626 103 q 654 117 675 111 q 750 142 717 117 q 741 148 749 143 q 720 158 733 153 q 694 163 707 163 q 660 140 688 163 q 631 117 633 118 q 576 103 610 108 q 524 96 543 97 q 458 93 506 94 q 406 92 411 92 q 278 82 328 82 q 168 107 174 82 q 167 122 168 108 q 167 138 167 135 q 170 172 167 157 q 174 193 174 188 q 158 228 174 219 q 169 254 165 231 q 174 288 174 278 q 170 328 174 303 q 167 367 167 354 q 171 390 167 381 q 175 407 175 400 q 135 440 175 440 q 124 288 135 326 l 133 279 l 133 219 q 127 216 131 219 q 124 211 124 213 q 128 193 124 208 q 133 176 133 178 q 128 160 133 175 q 124 142 124 144 m 208 307 q 218 132 208 136 l 235 126 q 317 122 260 122 q 459 127 403 122 q 586 159 515 132 q 699 236 657 186 l 701 235 q 744 328 722 235 q 767 464 767 421 q 740 583 767 500 q 690 672 713 665 q 675 674 689 672 q 656 681 661 676 q 651 694 651 685 q 654 708 651 703 q 618 729 640 715 q 579 755 596 743 q 561 768 563 767 q 372 811 435 811 q 286 803 340 811 q 228 785 232 794 l 218 768 q 213 538 218 692 q 208 307 208 385 m 699 176 q 728 167 707 167 q 784 186 758 167 q 810 236 810 206 q 793 254 810 254 q 829 268 815 254 q 843 304 843 282 q 841 310 843 307 q 835 315 839 313 q 827 317 831 317 q 818 319 824 318 q 810 322 813 321 q 825 331 814 324 q 844 339 836 339 q 853 338 850 339 q 861 393 861 376 q 800 374 800 393 l 810 358 q 802 347 808 354 q 793 338 796 339 l 800 331 q 783 317 788 331 q 777 285 778 304 q 775 263 776 267 q 766 251 775 260 q 757 240 757 242 q 758 236 757 236 l 699 176 m 775 211 q 758 207 771 207 q 740 211 740 207 q 757 214 740 214 q 775 211 775 214 m 874 486 q 820 456 844 486 q 796 397 796 426 q 874 486 874 397 m 129 631 q 135 540 129 599 q 142 451 142 481 l 174 451 l 174 553 q 163 572 174 564 q 140 583 151 581 l 186 583 q 182 609 186 588 q 174 631 178 631 l 129 631 m 800 507 q 821 483 800 483 q 854 499 854 483 q 826 515 854 501 l 871 515 l 871 528 l 836 546 q 844 558 844 546 q 826 569 844 564 q 844 597 844 581 q 826 614 844 614 q 800 604 811 614 q 818 631 808 610 q 811 667 818 649 q 788 706 804 686 q 763 737 772 726 q 731 769 754 747 q 706 794 708 792 l 699 794 q 682 799 696 796 q 656 806 668 803 q 639 811 643 810 q 611 830 639 824 q 569 836 583 836 q 535 818 542 826 q 597 803 560 803 q 635 775 597 775 q 654 785 653 775 l 654 758 l 699 758 l 681 742 q 718 714 688 743 q 749 678 749 685 l 767 678 q 763 670 765 674 q 756 663 760 667 q 750 657 751 660 q 771 619 758 647 q 800 579 783 590 q 782 564 782 579 q 788 546 782 551 q 800 541 793 540 q 813 538 807 542 q 818 521 818 533 q 808 515 818 519 q 799 508 799 510 q 800 507 799 507 m 133 725 q 138 708 133 719 q 140 683 142 697 q 128 649 139 669 l 185 649 q 176 680 185 660 q 167 713 167 700 q 171 735 167 721 q 175 758 175 749 q 168 794 175 785 q 133 725 133 781 m 239 854 q 223 854 235 854 q 206 854 211 854 q 192 853 201 854 q 177 851 182 853 q 165 847 172 850 q 153 840 157 844 q 146 831 150 836 q 140 817 142 825 q 139 799 139 808 q 217 820 161 799 q 288 854 272 842 l 239 854 m 467 844 q 515 829 479 829 q 530 834 519 829 q 544 844 540 839 q 526 854 540 854 q 501 844 511 854 l 501 864 q 484 858 497 864 q 467 844 471 851 m 364 863 q 388 849 368 854 q 415 844 407 844 q 475 869 425 844 l 467 869 q 415 867 458 869 q 364 863 372 864 z "},"E":{"ha":719,"x_min":88,"x_max":690,"o":"m 379 532 q 393 521 390 521 q 404 535 404 521 l 560 535 q 576 506 571 519 l 593 514 q 585 478 585 506 q 586 419 585 426 l 568 404 q 242 393 472 404 q 235 394 240 393 q 228 394 231 394 q 217 386 217 394 l 217 128 l 226 113 q 278 106 228 110 q 367 103 329 103 q 434 115 383 103 q 507 128 485 128 q 576 119 568 128 l 586 113 q 601 121 588 121 q 608 120 603 121 q 619 119 614 119 l 604 113 l 608 114 q 615 114 611 114 q 624 114 619 114 q 651 106 647 114 q 653 103 651 104 q 662 108 654 103 q 671 113 669 113 q 690 68 690 100 q 671 -33 690 -12 q 651 -34 668 -33 q 633 -35 635 -35 q 525 -12 571 -35 l 167 -12 q 97 17 107 -12 q 101 143 97 58 q 106 269 106 228 q 88 540 106 464 l 88 908 l 260 908 q 338 899 286 899 q 363 908 354 899 q 471 913 404 908 q 543 917 538 917 q 653 908 561 917 q 664 890 658 906 q 658 850 664 871 q 651 813 651 829 q 652 806 651 811 q 653 797 653 800 l 619 789 q 501 793 561 793 q 226 763 347 793 q 215 708 215 739 q 221 665 215 694 q 226 621 226 636 q 217 540 219 564 l 233 524 l 253 522 q 278 521 272 521 q 342 526 313 521 q 379 532 372 532 m 610 69 l 610 8 q 647 69 647 8 l 610 69 m 593 51 q 569 44 586 51 q 551 33 551 38 l 551 19 q 604 51 586 19 l 593 51 m 147 49 q 157 33 147 43 q 194 78 194 71 l 172 78 l 172 93 q 147 51 167 90 l 147 49 m 226 60 q 182 33 203 50 q 206 38 199 33 q 226 60 214 43 m 264 43 q 242 33 251 43 q 247 33 243 33 q 251 32 250 32 q 268 43 264 32 l 264 43 m 363 61 q 303 33 321 61 q 315 33 304 33 q 328 32 325 32 q 379 60 371 32 l 372 61 q 363 61 364 61 m 443 61 q 414 33 435 61 q 447 60 429 33 q 443 61 444 61 m 507 69 l 474 43 q 525 60 508 43 l 525 43 l 593 69 l 507 69 m 492 78 q 474 69 478 78 q 500 78 496 69 l 492 78 m 147 128 l 147 101 q 168 128 168 101 l 147 128 m 163 240 q 143 197 143 240 l 144 181 l 157 181 q 166 195 160 181 q 172 217 172 210 q 164 242 172 242 l 163 240 m 174 293 q 153 253 153 293 q 174 293 174 253 m 147 325 q 157 308 147 318 q 168 336 168 313 q 147 325 147 336 m 172 393 q 146 358 146 371 q 168 363 163 358 q 174 383 174 368 l 172 393 m 176 431 q 147 410 147 431 q 176 431 176 410 m 242 453 l 242 438 q 278 447 258 438 q 297 471 297 456 l 200 471 q 190 453 190 471 l 242 453 m 368 482 q 322 467 343 483 q 300 429 300 451 q 349 445 322 429 q 388 481 376 461 q 378 481 386 481 q 368 482 369 482 m 414 481 l 371 438 l 414 438 q 424 481 424 438 l 414 481 m 517 489 q 474 447 486 479 l 543 447 q 517 489 528 465 m 138 490 q 147 453 138 479 l 192 497 l 192 508 q 138 490 138 508 m 192 558 q 160 548 175 558 q 146 522 146 538 q 192 558 192 522 m 157 617 q 132 610 132 617 l 132 554 q 165 572 146 554 q 185 607 185 590 q 174 613 185 610 q 157 617 164 617 m 186 679 q 139 635 163 679 q 180 641 174 635 q 186 679 186 647 m 167 719 q 146 705 161 713 q 131 682 131 697 q 131 675 131 681 l 132 669 q 165 703 156 689 q 174 742 174 717 q 173 752 174 743 q 172 763 172 761 q 158 751 168 758 q 140 738 147 743 q 132 729 132 732 q 154 718 132 718 q 161 719 157 718 q 167 719 165 719 m 167 789 q 129 761 129 789 q 172 789 156 761 l 167 789 m 167 840 l 147 806 l 157 806 q 217 828 168 806 q 268 857 267 850 q 199 867 246 867 q 132 865 132 867 l 122 824 q 167 840 136 824 m 303 840 q 292 833 297 839 q 286 822 288 828 l 285 818 q 289 815 285 815 q 304 831 304 815 l 303 840 m 507 875 q 506 865 506 871 q 528 847 506 847 q 569 875 569 847 l 507 875 m 354 865 l 344 857 l 354 857 l 354 865 z "},"F":{"ha":688,"x_min":92,"x_max":676,"o":"m 93 -10 q 102 108 93 28 q 111 228 111 189 l 111 300 l 103 308 l 103 856 q 92 875 92 858 q 111 908 92 904 q 132 904 113 908 q 153 900 151 900 q 172 908 164 900 l 172 901 q 374 909 239 901 q 578 917 510 917 q 676 875 676 917 l 676 788 q 661 781 676 781 q 553 784 625 781 q 446 788 482 788 q 418 784 436 788 q 389 781 400 781 q 367 783 386 781 q 328 786 347 785 q 287 788 308 788 q 252 781 265 788 q 239 763 239 775 l 239 650 q 235 644 238 650 q 232 635 232 638 q 247 514 232 529 q 414 504 306 504 q 461 505 431 504 q 506 506 492 506 q 534 492 507 506 q 567 478 561 478 q 576 483 568 478 q 592 489 585 489 q 599 479 599 489 q 585 458 589 467 q 580 444 581 449 q 578 426 579 439 q 574 403 576 414 q 475 383 569 383 q 378 397 439 383 q 282 411 318 411 q 265 415 271 411 q 257 419 258 419 q 228 413 235 419 q 222 382 222 406 q 226 285 222 346 q 239 222 231 224 l 239 -17 q 214 -35 239 -35 q 197 -26 203 -35 q 183 -31 196 -26 q 153 -39 171 -35 q 122 -43 136 -43 q 104 -30 115 -43 q 93 -10 93 -17 m 163 43 q 151 4 151 38 q 199 26 188 4 q 210 86 210 47 l 210 125 q 206 172 210 165 l 178 183 l 208 183 q 209 188 208 185 q 210 192 210 190 q 203 237 210 201 q 197 290 197 272 q 143 311 167 311 q 142 281 143 303 q 142 246 142 258 q 188 133 142 149 l 153 133 l 153 51 l 163 43 m 143 385 q 145 346 143 357 q 158 326 147 335 q 192 317 168 317 q 184 355 192 339 q 176 385 176 371 l 143 385 m 138 419 q 182 397 140 397 q 176 421 182 410 q 171 443 171 432 q 180 457 171 453 q 189 468 189 461 q 188 471 188 469 q 177 467 186 471 q 163 459 168 463 q 151 451 158 456 q 140 439 143 446 q 136 425 136 432 l 136 422 l 138 419 m 385 438 q 413 428 393 428 q 440 435 433 428 q 446 464 446 443 q 385 438 400 464 m 471 453 l 471 426 q 524 453 524 426 l 471 453 m 200 474 q 205 456 200 461 q 218 447 210 451 q 232 438 226 443 q 325 463 310 438 q 303 461 317 461 q 251 467 282 461 q 200 474 219 474 m 360 464 q 333 446 346 464 l 376 446 q 360 464 376 464 m 135 499 q 153 469 135 469 q 188 489 172 469 q 135 499 168 499 m 144 514 q 185 506 161 506 q 198 513 190 506 q 206 524 206 521 q 192 548 206 532 q 172 565 178 564 q 183 563 181 563 q 197 583 197 563 q 192 604 197 594 q 188 617 188 614 q 201 679 188 636 q 215 744 215 722 q 163 754 189 744 q 206 765 163 765 l 206 804 q 178 815 182 804 q 194 818 190 815 q 197 829 197 821 q 188 849 197 846 l 197 856 l 126 856 q 138 835 126 844 q 163 822 150 826 q 141 819 146 822 q 136 806 136 817 q 141 782 136 799 q 146 756 146 765 q 146 740 146 751 q 146 726 146 729 q 147 713 146 722 q 151 700 149 704 q 159 690 154 696 q 172 678 164 683 l 144 678 q 158 642 158 650 q 150 624 157 635 q 143 601 143 613 q 157 574 143 574 q 163 575 160 574 q 153 576 158 576 q 135 553 135 576 q 149 531 135 531 q 150 531 150 531 l 153 532 q 147 525 153 529 q 142 519 142 521 l 144 514 m 274 849 q 257 815 263 843 q 268 814 261 814 q 282 829 282 814 q 274 849 282 846 m 599 840 q 644 826 599 826 q 625 857 644 857 q 599 840 608 857 m 393 849 q 410 839 393 839 q 464 865 425 839 l 404 865 q 397 858 401 865 q 393 849 393 851 m 522 849 q 526 844 522 847 q 531 840 529 840 l 544 846 q 567 858 560 851 q 575 875 575 865 l 531 875 l 528 869 q 524 858 526 865 q 522 849 522 851 z "},"G":{"ha":871,"x_min":39,"x_max":801,"o":"m 288 -8 q 279 2 289 -7 q 254 24 269 11 q 224 49 239 36 q 196 69 208 61 q 181 78 183 78 q 160 69 168 78 q 105 163 160 79 q 47 275 50 247 q 46 294 46 282 q 47 316 46 303 q 47 335 47 329 q 39 378 47 358 l 39 565 q 61 638 51 579 q 82 713 71 696 q 539 928 224 928 q 643 900 643 928 l 692 900 q 721 890 693 890 l 731 886 q 755 877 742 883 q 775 865 768 871 q 775 864 775 864 l 774 861 q 780 852 774 856 q 786 817 786 849 q 760 754 786 754 q 638 772 718 754 q 518 789 558 789 q 390 754 474 789 q 183 393 183 671 q 199 264 183 325 q 256 153 215 203 q 357 93 297 103 q 569 76 511 76 q 609 77 576 76 q 647 78 642 78 q 671 154 671 93 q 656 265 671 183 q 615 296 649 296 q 606 295 613 296 q 596 294 600 294 q 557 310 571 294 q 543 376 543 326 q 568 429 543 429 q 578 428 574 429 l 733 428 q 801 411 801 428 l 801 69 q 758 -4 801 18 q 660 -26 715 -26 q 643 -22 653 -26 q 629 -17 633 -17 q 493 -40 600 -40 q 466 -40 489 -40 q 436 -40 443 -40 q 409 -40 429 -40 q 380 -37 389 -39 q 354 -34 371 -36 q 328 -28 338 -32 q 308 -20 319 -25 q 288 -8 296 -15 m 425 17 l 424 15 q 476 6 424 6 q 435 44 476 44 q 428 34 432 44 q 425 17 425 24 m 482 35 q 507 8 482 8 q 544 17 533 8 l 638 17 l 647 26 q 501 33 543 33 q 492 34 500 33 q 482 35 483 35 m 296 33 q 336 17 307 17 q 354 28 349 17 q 364 43 360 39 q 343 51 361 51 q 296 33 303 51 m 418 50 q 381 42 392 50 q 371 11 371 33 q 408 19 397 11 q 418 50 418 26 m 664 33 q 693 25 674 25 q 750 43 742 25 q 706 51 732 51 q 664 33 678 51 m 132 172 q 174 126 144 161 q 229 71 203 92 q 285 50 256 50 q 304 60 288 50 q 300 65 303 61 l 296 69 q 276 89 276 79 q 271 103 275 99 q 242 119 256 118 q 218 138 228 121 q 174 228 207 156 q 142 317 142 301 q 146 322 142 318 q 150 329 150 325 q 132 368 150 343 l 150 378 l 150 438 q 106 447 150 447 l 115 453 l 106 464 l 150 464 l 150 483 l 142 506 q 122 535 122 518 q 64 524 64 535 l 64 453 q 76 438 76 451 q 75 424 76 433 q 74 410 74 414 q 97 392 74 392 q 115 393 108 392 q 91 380 111 386 q 71 360 71 374 q 77 339 71 353 q 83 311 83 325 q 83 280 83 300 q 82 258 82 260 q 91 246 88 256 q 96 226 94 236 q 99 215 97 217 q 117 194 101 210 q 133 176 133 178 l 132 172 m 706 82 q 725 69 706 79 q 750 60 744 60 q 763 96 763 60 q 706 82 706 96 m 715 138 l 715 119 l 758 119 l 758 154 l 715 138 m 707 168 l 707 153 q 758 199 751 153 q 715 181 729 199 l 733 182 l 725 171 l 707 168 m 732 232 q 716 219 729 226 q 703 200 703 213 q 767 364 768 200 q 767 378 767 376 l 758 386 l 692 386 l 656 344 l 660 344 l 664 343 q 693 351 675 343 q 722 358 711 358 q 709 331 722 349 q 696 300 696 313 l 747 300 q 726 265 747 285 q 704 232 704 244 l 732 232 m 729 292 q 692 258 692 292 l 707 258 l 732 292 l 729 292 m 651 360 q 613 335 633 360 l 617 333 q 656 360 621 333 l 651 360 m 578 351 q 592 344 578 344 q 631 362 600 344 q 671 386 663 379 l 596 386 l 578 351 m 71 575 q 90 550 71 550 l 151 550 q 125 592 151 572 l 129 592 l 136 589 q 149 585 142 588 q 160 583 156 583 q 153 601 153 596 q 165 610 153 607 q 176 619 176 613 q 171 638 176 628 q 165 656 165 649 l 167 661 q 167 669 167 668 l 193 643 q 218 685 199 646 q 193 703 199 694 q 203 722 203 704 q 202 731 203 726 q 201 738 201 735 q 200 743 201 740 l 200 746 q 235 719 218 719 q 247 724 242 719 q 256 736 251 728 q 262 751 260 744 q 267 768 264 758 q 271 781 269 778 q 288 754 276 760 q 296 771 296 758 q 276 810 296 794 q 277 813 276 811 q 278 815 278 814 l 304 797 l 314 806 l 304 849 q 282 833 290 843 q 270 815 274 824 q 261 789 267 807 q 244 815 257 806 q 197 772 197 781 q 213 767 197 771 q 228 761 228 763 l 225 758 q 224 754 224 756 l 175 754 q 151 734 171 754 q 125 703 132 714 q 106 665 119 697 q 81 604 92 633 q 71 575 69 575 m 329 833 q 342 788 329 788 q 372 806 360 788 q 329 833 350 833 m 407 875 q 390 804 390 822 q 414 813 403 804 q 425 835 425 822 q 411 876 425 876 l 407 875 m 692 815 q 746 804 700 804 q 734 828 746 814 q 719 843 722 843 q 713 839 719 844 q 700 826 707 833 q 692 815 693 819 m 338 857 q 349 847 342 853 q 363 837 356 842 q 372 831 369 832 q 390 883 390 861 q 338 857 349 872 m 604 857 q 593 831 593 853 l 614 831 q 604 857 614 847 m 501 875 q 492 840 492 861 l 519 840 q 501 875 510 869 m 431 883 q 441 860 431 874 q 456 847 451 847 q 468 883 468 847 l 431 883 m 544 875 l 553 857 q 563 875 563 860 l 544 875 z "},"H":{"ha":985,"x_min":82,"x_max":900,"o":"m 101 17 q 93 719 93 203 q 82 825 82 757 q 83 863 82 832 q 83 900 83 894 l 93 907 l 196 907 l 215 890 q 210 883 215 889 q 204 874 204 878 q 213 807 204 853 q 222 746 222 761 q 223 710 222 742 q 224 656 224 678 q 224 627 224 642 q 223 601 224 613 q 222 580 222 589 q 222 565 222 571 l 222 560 q 232 547 222 547 q 238 548 233 547 q 244 549 242 549 q 299 544 261 549 q 375 539 336 539 q 431 544 397 539 q 469 549 465 549 q 533 544 492 549 q 594 539 574 539 q 753 567 667 539 q 753 610 753 572 q 754 656 754 647 q 749 756 754 689 q 743 857 743 822 q 744 881 743 874 q 750 894 744 889 q 760 901 756 900 q 781 908 764 903 q 813 917 799 913 q 840 903 825 917 q 865 889 854 889 q 854 874 865 879 l 854 832 q 867 743 854 801 q 881 660 881 685 q 876 646 881 658 l 872 633 q 877 579 872 613 q 882 531 882 546 q 881 510 882 522 q 881 497 881 499 q 894 424 889 496 q 900 315 900 351 q 890 282 900 283 l 890 0 q 871 -10 890 -10 q 801 3 851 -10 q 744 17 751 15 q 731 100 731 18 q 731 163 731 118 q 732 232 732 208 q 732 249 732 238 q 731 308 732 290 q 726 350 731 326 q 713 381 721 374 q 685 397 704 388 q 640 408 665 406 q 572 410 614 410 q 558 422 567 422 q 551 416 556 422 q 547 406 547 410 l 435 406 l 222 421 l 204 410 q 203 351 203 367 q 213 167 203 290 q 222 -19 222 43 q 196 -35 222 -35 q 101 17 144 -35 m 128 76 l 128 28 q 181 139 181 28 l 169 133 q 146 118 158 126 q 133 104 133 110 q 135 103 133 103 l 143 86 l 128 76 m 769 92 q 792 50 769 50 q 824 69 806 50 q 847 103 843 88 q 810 97 835 103 q 769 92 785 92 m 849 71 q 831 50 833 71 q 849 71 849 50 m 847 164 q 788 110 790 115 l 804 110 q 847 119 847 110 l 847 164 m 172 193 q 131 185 138 193 q 124 142 124 176 q 124 128 124 133 q 172 193 172 128 m 769 168 q 778 129 769 154 q 815 149 794 129 q 847 189 835 168 l 838 189 q 769 168 769 189 m 854 257 q 778 197 822 244 q 856 239 856 197 q 856 249 856 240 l 854 257 m 128 282 l 128 222 q 144 209 128 214 q 168 204 160 204 l 168 239 l 153 232 q 174 270 169 257 q 179 313 179 283 q 167 361 179 342 q 188 394 167 374 q 118 361 139 388 q 135 297 135 317 q 131 289 135 294 q 128 282 128 283 m 850 283 q 764 219 764 283 q 817 241 785 219 q 850 283 850 263 m 854 376 q 821 333 854 374 l 788 292 l 788 281 q 840 299 814 281 q 865 342 865 318 q 854 376 865 364 m 753 342 q 758 322 753 336 q 763 304 763 308 q 821 376 788 304 q 813 377 819 376 q 804 378 806 378 q 770 368 788 378 q 753 342 753 358 m 133 406 l 143 394 q 198 431 175 394 q 247 469 221 468 l 247 451 q 324 469 289 451 l 324 461 q 375 481 356 461 q 365 451 365 461 q 400 469 376 451 q 410 454 400 454 q 424 458 414 454 q 435 461 433 461 l 435 442 q 589 514 528 442 q 564 524 579 524 q 503 469 507 515 l 496 469 l 496 506 q 461 481 482 486 l 478 514 q 469 524 478 517 q 454 531 460 531 q 449 519 453 525 q 440 509 446 514 q 430 501 435 504 q 418 493 425 497 q 410 488 411 489 q 367 506 403 506 l 367 515 q 349 510 360 515 q 333 506 339 506 q 322 510 325 506 q 315 514 318 514 q 217 479 274 514 q 135 410 160 444 q 133 406 133 407 m 794 403 q 815 393 799 393 q 865 433 865 393 q 862 440 865 436 q 854 444 858 444 q 794 403 836 444 m 178 489 q 140 474 154 488 q 126 450 126 461 q 127 439 126 447 q 128 429 128 431 l 178 481 l 178 489 m 606 497 q 539 444 567 482 q 600 457 590 444 q 607 481 607 465 l 606 489 q 606 497 606 496 m 718 514 q 690 481 714 506 q 665 444 665 457 l 708 444 q 720 467 711 444 q 729 499 729 489 q 718 514 729 510 m 649 524 q 632 467 632 492 q 633 454 633 456 q 704 525 704 488 q 685 519 696 525 q 667 513 674 513 q 649 524 654 513 m 800 531 q 744 464 744 531 q 765 482 754 471 q 784 503 776 493 q 797 522 792 514 l 804 531 l 800 531 m 847 524 q 794 461 794 488 q 849 500 849 461 q 848 513 849 503 q 847 524 847 522 m 128 506 q 135 497 128 504 q 142 498 136 497 q 153 499 149 499 q 165 501 158 500 q 174 506 171 503 q 178 514 178 510 q 168 567 178 544 q 128 506 136 539 m 118 592 q 128 549 118 564 q 142 559 132 551 q 156 569 153 567 q 165 578 158 572 q 174 592 171 585 q 178 608 176 599 q 168 609 176 608 q 158 610 160 610 q 118 592 118 610 m 804 574 q 821 565 806 565 q 842 573 835 565 q 849 588 849 581 q 850 611 850 596 q 804 574 835 611 m 788 617 q 790 612 788 615 q 794 608 793 608 q 808 613 800 608 q 822 626 815 618 q 831 633 829 633 l 824 633 l 817 635 q 788 617 794 635 m 178 675 q 143 633 153 639 l 178 633 l 188 675 l 178 675 m 118 668 q 132 651 118 651 q 144 659 136 651 q 159 676 153 667 q 172 693 165 685 l 178 701 q 168 711 178 711 q 133 699 149 711 q 118 668 118 688 m 831 729 q 792 656 792 697 q 814 656 808 656 q 827 658 819 656 q 837 667 835 661 q 839 685 839 674 q 831 729 839 707 m 168 779 q 143 725 143 733 q 150 725 144 725 q 158 725 156 725 q 164 725 160 725 q 169 726 168 725 q 174 727 171 726 q 179 729 178 728 q 183 733 181 731 q 185 738 185 735 q 187 744 186 740 q 188 751 188 747 q 168 779 188 772 m 788 746 l 786 743 q 794 729 786 733 q 831 818 831 732 q 831 828 831 822 q 824 869 831 863 q 778 876 817 876 l 778 806 q 790 785 782 804 q 804 767 797 767 q 813 771 808 767 q 799 760 808 769 q 788 746 789 750 m 153 797 q 118 746 118 785 q 153 797 153 776 m 135 822 q 153 813 139 813 q 178 833 178 813 q 168 865 178 858 q 157 848 165 858 q 142 831 149 838 l 135 822 m 110 865 q 115 847 110 858 q 128 832 121 835 l 153 865 q 132 875 153 875 q 110 865 110 875 z "},"I":{"ha":386,"x_min":79,"x_max":240,"o":"m 190 -11 l 182 -19 l 113 -19 l 104 -11 l 104 92 q 100 110 104 94 q 96 126 96 125 q 100 177 96 131 q 104 229 104 224 q 100 450 104 279 q 96 631 96 621 q 97 644 96 635 q 97 661 97 654 l 89 756 q 79 897 79 849 q 182 914 79 914 q 233 889 233 914 q 215 863 233 881 q 228 721 215 817 q 240 579 240 625 q 237 559 240 571 q 233 538 233 547 q 240 442 240 468 l 240 -19 q 233 -37 240 -31 q 190 -11 208 -37 m 131 57 q 144 35 136 40 q 169 31 151 31 l 200 31 q 208 85 208 57 q 204 103 208 93 q 200 117 200 113 q 204 131 200 119 q 208 161 208 143 q 194 196 208 196 q 181 188 193 196 q 165 176 168 181 q 178 192 168 181 q 196 215 188 203 q 207 236 204 228 l 140 236 q 135 175 140 215 q 129 113 129 135 q 130 85 129 108 q 131 57 131 61 m 182 143 q 186 142 183 143 q 190 142 189 142 q 172 138 185 142 q 156 133 158 133 q 182 143 168 143 m 194 307 q 167 286 181 307 q 153 251 153 265 q 196 259 185 251 q 207 297 207 267 l 203 303 q 194 307 199 307 m 200 340 q 156 330 167 340 q 144 289 144 319 l 156 289 l 200 332 l 200 340 m 146 358 l 156 349 l 200 358 l 200 407 q 146 358 165 393 m 146 442 q 139 413 139 435 q 151 390 139 390 q 181 408 165 390 q 196 442 196 426 l 146 442 m 146 467 q 203 457 146 457 q 190 511 203 511 l 146 467 m 182 572 q 155 567 169 572 q 139 554 140 563 l 131 485 q 177 516 154 492 q 200 564 200 540 q 182 572 200 572 m 190 639 q 146 589 150 604 l 165 589 q 201 613 201 589 q 190 639 201 638 m 131 674 l 131 665 q 135 638 131 654 q 143 622 139 622 q 176 647 161 622 q 190 692 190 671 q 169 700 190 700 q 136 694 142 700 q 131 674 131 689 m 182 751 q 162 736 179 749 q 144 717 144 724 l 182 717 l 182 751 m 129 747 q 133 739 129 744 q 139 733 136 733 q 164 749 153 733 q 175 778 175 765 q 146 768 163 778 q 129 747 129 758 m 146 829 l 146 819 q 131 786 146 817 q 139 785 136 785 q 183 822 183 785 q 147 864 183 864 q 122 854 122 864 q 131 819 122 836 l 146 829 z "},"J":{"ha":390,"x_min":10,"x_max":275,"o":"m 10 -232 l 10 -154 l 36 -147 q 92 -126 61 -142 q 131 -86 122 -110 q 131 -49 131 -81 q 132 -12 132 -18 q 126 78 132 18 q 119 167 119 138 q 131 265 119 225 l 121 890 q 139 917 121 906 q 181 915 144 915 q 226 921 208 915 q 254 926 244 926 q 268 917 261 926 q 275 900 275 907 q 271 882 275 897 q 267 865 267 867 l 267 792 q 275 668 267 724 q 267 640 267 658 q 267 631 267 638 q 268 621 268 625 q 267 610 268 613 q 258 574 267 606 q 250 539 250 543 q 256 520 250 533 q 261 490 261 507 q 256 469 261 475 q 250 463 250 464 l 256 456 q 260 446 260 447 q 254 420 260 440 q 249 369 249 400 q 267 283 249 288 l 267 138 l 260 128 l 267 118 q 265 106 267 117 q 262 83 264 96 q 260 68 260 71 l 260 60 q 267 0 267 25 q 249 -124 267 -75 q 204 -192 231 -174 q 152 -217 178 -210 q 107 -226 126 -225 q 88 -232 88 -228 l 10 -232 m 169 -146 q 119 -174 119 -146 q 121 -175 119 -175 q 137 -169 125 -175 q 165 -157 149 -164 q 190 -147 181 -150 q 179 -147 188 -147 q 169 -146 171 -146 m 215 -103 q 190 -119 200 -103 l 203 -122 q 225 -107 225 -122 q 215 -103 225 -103 m 225 -49 q 190 -69 200 -49 q 218 -66 211 -69 q 225 -49 225 -62 m 165 -17 q 172 -35 165 -21 q 181 -51 178 -49 q 208 -35 190 -49 q 225 -12 225 -22 q 209 -3 225 -8 q 190 8 193 3 q 206 6 201 6 q 222 13 217 6 q 227 28 226 19 q 228 53 228 36 q 208 42 217 53 q 196 31 199 31 l 190 33 q 210 60 193 44 q 226 89 226 75 q 172 78 172 89 q 173 63 172 76 q 174 42 174 50 q 169 6 174 21 q 165 -17 165 -10 m 228 156 q 197 140 221 156 q 172 118 172 125 l 172 99 q 220 107 213 99 q 228 156 228 115 m 196 174 q 168 167 175 174 q 161 142 161 161 q 215 172 192 142 q 206 173 214 172 q 196 174 197 174 m 165 197 l 172 188 q 207 194 181 188 q 233 206 233 201 l 233 250 q 165 197 207 250 m 192 283 q 181 253 192 253 q 176 254 179 253 q 171 256 172 256 q 163 236 163 256 q 219 267 200 236 q 238 339 238 299 q 199 322 217 339 q 181 283 181 306 l 192 283 m 207 385 q 161 314 161 385 q 208 358 196 314 q 221 449 221 403 q 204 443 213 449 q 191 431 196 438 q 180 415 186 425 q 172 403 174 406 q 207 385 179 390 m 172 479 l 172 444 q 203 455 188 444 q 218 479 218 465 q 215 489 218 486 l 172 479 m 172 514 q 200 504 172 504 q 225 514 225 504 l 225 575 q 213 563 221 571 q 198 549 204 554 q 185 536 192 543 q 176 524 179 529 q 172 514 172 518 m 215 599 q 182 594 192 597 q 167 583 172 592 q 161 553 161 574 q 196 567 175 553 q 217 594 217 582 l 215 599 m 233 685 q 171 613 171 629 q 172 610 171 610 q 228 621 214 611 q 242 668 242 631 l 233 685 m 207 685 q 164 656 164 682 l 164 650 q 165 643 165 644 l 207 685 m 165 711 l 165 693 q 243 744 243 693 q 234 816 243 765 q 225 875 225 867 l 147 890 q 147 882 147 889 l 146 875 q 165 836 146 836 q 181 840 172 836 q 174 824 179 835 q 166 806 169 814 q 163 797 163 799 l 186 797 q 172 775 186 790 q 156 744 158 760 l 165 744 l 215 797 l 215 781 l 165 711 z "},"K":{"ha":835,"x_min":88,"x_max":750,"o":"m 522 140 q 493 164 514 140 q 469 188 472 188 q 408 292 421 256 q 358 364 394 314 q 301 447 322 414 q 279 496 281 481 q 326 553 283 496 q 390 643 369 611 q 389 646 389 644 q 494 804 389 674 q 622 935 600 935 q 645 933 629 935 q 672 931 661 931 q 708 935 688 931 q 750 900 731 935 q 656 781 696 814 l 443 506 q 442 499 443 504 q 442 492 442 494 q 450 442 442 468 q 468 398 458 415 q 495 351 478 381 q 519 308 513 321 q 547 281 522 303 q 571 240 571 258 l 579 240 l 588 233 q 611 211 596 225 q 644 180 626 197 q 681 142 663 163 q 715 100 700 121 q 740 57 731 79 q 750 17 750 35 q 743 0 750 14 q 718 1 735 1 q 649 -33 671 1 q 574 53 626 -15 q 522 140 522 122 m 519 199 q 544 165 519 182 q 572 146 569 149 l 572 142 q 571 133 571 136 q 616 72 571 115 q 682 28 661 28 l 682 51 q 664 78 678 54 q 633 121 650 101 q 601 140 617 140 q 589 138 593 140 q 597 163 597 151 q 597 170 597 168 q 594 172 596 172 q 589 174 593 172 q 579 181 585 176 q 529 245 565 193 q 460 340 493 297 q 414 383 428 383 q 399 438 414 432 q 390 439 394 439 q 374 424 374 439 q 388 398 374 415 q 420 361 401 381 q 443 335 439 342 q 469 283 453 321 q 494 232 486 244 q 529 206 497 226 l 519 199 m 340 464 q 357 447 346 453 q 385 464 385 447 l 340 464 m 357 506 l 331 489 l 383 489 q 393 514 385 496 q 401 542 401 532 q 389 557 401 557 q 361 544 375 557 q 347 518 347 532 q 357 506 347 510 m 390 575 q 403 562 393 568 q 421 556 414 556 q 440 571 426 556 q 454 593 454 586 q 390 575 422 593 m 435 626 q 417 599 417 626 l 460 610 q 435 626 450 626 m 443 647 q 461 633 443 640 q 485 625 479 625 q 519 678 488 625 l 511 678 q 468 670 493 678 q 443 647 443 663 m 494 738 q 460 685 475 722 q 467 683 461 685 l 472 683 q 508 690 485 683 q 531 707 531 696 q 494 738 531 719 m 519 746 q 550 728 529 728 q 568 740 560 728 q 579 763 576 751 q 575 763 578 763 q 572 764 572 764 q 548 758 568 764 q 519 746 528 753 m 563 794 q 533 788 549 794 q 518 767 518 781 l 519 765 q 519 763 519 764 l 563 781 l 563 794 m 554 815 q 596 797 561 797 q 643 833 604 797 q 682 875 682 869 l 682 890 q 596 857 607 890 q 622 861 604 857 q 649 865 639 865 q 601 840 640 850 q 554 815 563 831 m 104 0 q 106 86 106 29 q 97 348 106 174 q 88 608 88 522 q 92 763 88 660 q 97 917 97 865 l 199 917 q 215 896 215 917 q 215 890 215 893 q 214 886 214 888 l 215 883 q 213 827 215 875 q 208 771 210 779 q 233 615 233 742 q 242 374 233 528 q 250 150 250 219 q 249 75 250 139 q 249 0 249 11 q 192 -17 246 -17 q 104 0 121 -17 m 190 86 q 147 76 158 86 q 135 33 135 65 l 154 33 l 208 86 l 190 86 m 208 51 l 190 33 l 194 32 q 203 38 197 32 q 210 49 210 44 l 208 51 m 213 139 q 195 135 204 139 q 181 126 186 131 q 167 114 176 122 q 154 103 157 106 q 194 112 175 103 q 213 139 213 121 m 147 154 l 147 128 q 190 154 167 128 l 147 154 m 208 215 q 164 181 190 210 q 172 180 165 181 q 181 179 179 179 q 210 201 210 179 q 209 208 210 203 q 208 215 208 214 m 136 232 q 147 188 136 200 q 172 208 150 193 q 194 232 194 224 l 136 232 m 164 258 q 181 249 168 249 q 214 285 214 249 q 187 272 201 285 q 164 258 172 260 m 131 308 l 139 250 l 199 308 q 146 317 157 317 q 131 308 131 317 m 208 397 q 169 378 193 397 q 144 344 144 360 l 208 344 l 208 397 m 139 419 l 139 375 q 199 419 158 375 l 139 419 m 203 483 q 174 471 188 483 q 161 443 161 458 q 195 451 188 443 q 203 483 203 458 m 139 514 l 139 464 q 190 514 188 496 l 139 514 m 138 544 l 139 542 q 141 535 139 539 q 147 532 143 532 q 186 544 178 532 q 194 585 194 556 q 174 578 185 585 q 151 561 163 571 q 139 550 140 551 q 139 547 139 549 l 138 544 m 164 617 l 161 617 l 158 618 q 133 612 140 618 q 126 588 126 606 q 131 565 126 578 q 190 667 190 596 q 178 686 190 686 l 174 685 l 131 643 q 129 639 129 640 q 145 627 129 628 q 164 617 161 626 m 154 719 q 146 721 151 721 q 127 708 133 721 q 121 682 121 694 q 161 699 147 682 q 175 742 175 715 q 165 763 175 750 q 154 781 154 776 q 159 792 154 782 q 169 820 164 801 q 174 861 174 839 q 160 876 174 869 q 139 883 146 883 q 134 880 138 883 q 131 875 131 876 l 131 781 q 139 749 139 772 q 154 719 139 726 z "},"L":{"ha":663,"x_min":83,"x_max":651,"o":"m 90 197 l 83 197 q 88 240 83 201 q 99 335 92 278 q 113 428 106 393 q 94 643 94 482 q 95 720 94 668 q 96 796 96 772 q 83 879 83 806 q 86 900 83 897 l 104 917 l 215 917 l 225 908 l 240 822 q 250 656 250 760 q 236 446 250 585 q 222 236 222 307 q 223 213 222 228 q 224 185 224 197 q 225 171 225 172 l 240 153 q 232 140 232 150 q 234 128 232 136 q 236 118 236 119 q 331 115 246 117 q 431 113 417 113 q 481 101 444 101 q 567 111 518 101 q 642 121 615 121 q 647 83 642 107 q 651 47 651 60 q 638 22 651 35 q 618 8 624 8 q 567 17 585 17 q 444 -15 521 -15 q 390 -13 425 -15 q 342 -11 356 -11 q 307 -12 335 -11 q 261 -12 279 -12 q 90 58 90 -12 l 90 197 m 204 47 q 267 33 257 47 q 310 68 275 33 q 267 58 281 68 l 267 74 q 204 47 204 74 m 424 74 q 315 31 315 74 q 369 51 356 31 q 378 40 371 46 q 389 33 386 33 q 412 48 400 33 q 424 74 424 63 m 438 58 l 413 33 l 419 33 q 426 32 425 32 q 444 38 431 32 q 464 43 457 43 l 468 39 l 472 33 q 556 44 501 33 q 611 69 611 54 q 526 64 582 69 q 438 58 469 58 m 138 51 q 157 42 139 42 q 193 47 182 42 q 215 76 204 53 q 211 77 214 76 q 207 78 208 78 q 138 51 149 78 m 181 113 l 138 76 q 190 93 190 76 q 181 113 190 106 m 121 179 q 126 161 121 175 q 131 146 131 147 q 138 93 131 135 q 181 128 164 107 q 156 146 161 136 q 173 150 164 146 q 182 157 182 154 q 171 171 182 163 q 178 189 171 175 q 185 214 185 203 l 146 214 q 183 235 174 218 q 192 283 192 251 q 131 263 142 283 q 121 179 121 243 m 167 364 q 151 329 167 353 q 136 289 136 306 q 189 313 178 289 q 200 385 200 338 q 199 410 200 388 q 199 446 199 432 q 188 438 196 443 q 177 431 181 433 q 167 423 174 428 q 158 414 161 418 q 152 405 156 410 q 147 394 149 400 q 146 381 146 388 q 156 372 146 375 q 167 364 167 368 m 146 453 l 146 433 q 171 453 151 433 l 146 453 m 199 517 q 156 479 193 517 l 199 479 l 199 517 m 138 522 l 138 513 q 172 526 172 513 l 171 531 l 138 522 m 199 617 l 138 550 q 165 547 146 547 q 204 563 196 547 q 213 617 213 579 l 199 617 m 171 643 q 143 638 150 643 q 136 614 136 632 q 138 590 136 594 q 190 639 172 601 q 208 715 208 676 q 190 710 200 715 q 174 701 181 706 q 158 688 168 697 q 146 678 147 679 q 159 661 146 667 q 172 647 172 656 l 171 643 m 161 719 q 138 711 146 719 l 146 710 q 165 719 161 710 l 161 719 m 171 815 q 151 776 167 804 q 136 731 136 747 q 164 731 156 731 q 185 735 172 732 q 203 748 197 739 q 208 772 208 757 q 182 883 208 883 q 131 874 176 883 q 149 822 133 822 q 156 824 151 822 q 161 825 160 825 q 171 815 167 825 z "},"M":{"ha":1096,"x_min":51,"x_max":969,"o":"m 60 13 q 56 25 58 14 l 51 38 q 86 307 86 199 q 85 331 86 314 q 85 354 85 347 l 138 664 q 154 817 138 717 q 155 834 154 819 q 157 862 156 849 q 162 890 158 875 q 173 913 165 904 q 192 921 181 921 l 206 917 q 224 911 218 911 l 235 917 q 247 921 246 921 q 382 722 279 911 q 514 508 485 532 q 547 549 531 521 q 578 610 563 576 q 600 656 593 644 q 631 703 603 661 q 660 749 658 746 q 738 903 706 825 q 801 929 749 929 q 844 919 822 929 q 865 885 865 908 q 865 880 865 883 q 864 874 864 876 q 865 868 864 872 q 865 861 865 864 q 907 594 874 782 q 950 218 940 407 q 960 139 951 194 q 969 54 969 83 q 967 22 969 33 q 953 7 964 11 q 937 2 943 3 q 911 1 931 1 q 822 33 822 1 l 831 89 q 822 278 822 167 q 814 351 822 296 q 797 452 806 406 q 788 500 789 499 l 779 508 q 763 671 779 671 l 744 671 l 744 638 q 716 571 744 635 q 650 424 688 507 q 590 294 613 340 q 581 275 588 290 q 571 251 575 260 q 558 233 567 242 q 538 225 549 225 q 472 286 475 225 q 283 656 324 535 q 274 664 282 656 q 257 569 271 642 q 243 449 257 533 q 229 324 229 364 q 231 294 229 304 l 188 3 q 150 -17 185 -17 q 60 13 101 -17 m 103 54 q 138 29 103 29 q 156 74 156 29 q 155 92 156 81 q 154 106 154 103 l 139 106 l 138 114 q 144 132 143 131 q 103 54 103 132 m 885 151 q 880 148 885 151 q 875 136 875 144 q 883 88 875 128 q 892 46 892 47 q 919 53 913 49 q 926 71 926 58 q 921 126 926 94 q 904 158 915 158 q 885 151 896 158 m 118 147 q 160 172 147 147 q 174 226 174 196 q 173 240 174 229 q 172 251 172 250 l 154 243 l 154 254 q 124 231 129 254 q 118 147 118 207 m 875 174 l 875 164 q 900 174 896 164 l 875 174 m 908 228 q 882 217 894 228 q 869 192 869 206 l 908 192 l 908 228 m 875 251 l 875 226 l 900 251 l 875 251 m 154 294 q 147 280 154 290 q 138 269 140 269 q 189 333 189 269 q 176 377 189 369 q 118 385 164 385 q 128 319 118 358 q 140 308 128 318 q 154 294 153 297 m 865 282 q 900 267 865 267 l 900 319 q 865 282 865 308 m 543 321 q 519 290 519 311 q 528 292 524 290 q 535 298 532 294 q 541 304 539 301 q 546 313 543 307 q 549 319 549 318 l 543 321 m 522 336 q 510 333 517 336 q 503 326 503 329 l 504 325 q 506 319 506 322 q 517 326 510 319 q 524 333 524 332 l 522 336 m 865 331 l 865 319 q 882 331 878 319 l 865 331 m 539 397 q 485 343 485 367 q 574 372 540 343 q 608 457 608 401 q 582 450 594 450 q 592 456 585 450 q 600 467 600 463 q 595 478 600 469 q 590 492 590 486 l 619 483 q 636 518 636 483 l 608 518 q 621 529 610 519 q 638 544 632 539 q 654 562 643 550 q 671 582 665 574 q 681 601 676 590 q 686 622 686 613 q 633 607 657 622 q 608 565 608 592 q 625 551 608 560 q 595 535 610 549 q 574 510 581 521 q 553 476 567 500 q 539 450 540 453 l 557 439 q 508 427 547 431 q 463 406 468 424 l 472 397 q 483 400 474 399 q 502 403 492 401 q 514 406 513 406 q 526 405 517 406 q 539 404 536 404 l 539 397 m 856 369 q 892 339 856 339 l 892 390 q 856 369 876 390 m 492 390 q 471 375 471 390 l 472 372 q 492 390 492 372 m 188 414 q 149 390 149 414 q 197 410 197 390 q 188 414 197 414 m 856 424 l 856 396 q 892 414 879 396 q 876 419 890 414 q 856 424 863 424 m 172 439 q 138 432 138 439 l 138 414 q 163 422 142 414 q 188 432 183 431 q 172 439 185 439 m 444 439 l 444 419 q 478 439 472 419 l 444 439 m 849 439 q 882 432 858 432 q 894 468 894 432 q 847 444 847 468 l 847 442 l 849 439 m 144 457 l 197 450 q 207 467 207 450 q 197 483 207 479 q 144 457 153 472 m 478 467 q 470 476 478 469 q 458 485 463 483 q 444 474 454 485 q 429 457 433 464 q 438 456 431 457 l 444 456 q 478 467 469 456 m 840 500 l 840 474 q 875 486 875 479 q 849 501 875 501 l 840 500 m 144 500 l 144 482 q 179 492 163 482 q 164 501 178 501 q 156 501 163 501 q 144 500 149 500 m 393 500 l 392 497 l 392 494 q 415 481 392 481 q 453 500 449 481 l 393 500 m 154 525 q 174 517 156 517 q 215 533 215 517 q 213 543 215 535 l 163 569 l 154 547 l 179 547 q 154 525 175 533 m 429 543 q 402 535 414 543 q 390 515 390 528 q 444 536 432 515 q 429 543 442 543 m 829 536 q 865 514 829 514 l 865 561 q 841 554 853 561 q 829 536 829 547 m 375 561 q 385 543 375 543 q 414 561 414 543 l 375 561 m 822 569 l 831 561 q 842 579 842 567 q 822 569 831 579 m 169 596 q 218 567 169 567 q 208 616 218 601 q 168 631 199 631 q 188 611 168 617 q 169 596 169 611 m 411 597 q 383 578 383 597 l 411 578 l 411 597 m 821 599 q 822 596 821 596 l 856 585 l 856 614 q 821 599 821 614 m 360 603 l 360 593 q 372 598 364 593 q 385 603 381 603 l 360 603 m 369 656 q 340 619 340 636 q 385 629 367 619 q 369 656 379 646 m 794 646 q 803 630 794 639 q 817 621 811 621 q 849 638 835 621 q 794 646 807 646 m 668 664 q 649 651 656 664 q 642 625 642 639 q 694 644 658 625 q 668 664 682 661 m 179 656 q 194 645 182 654 q 208 636 206 636 q 238 686 238 636 q 203 693 217 686 q 179 700 189 700 l 179 656 m 683 671 q 704 663 689 663 q 728 671 715 663 q 724 677 728 674 q 719 681 721 681 q 683 671 708 681 m 763 706 q 776 692 771 700 q 782 678 781 685 q 790 667 783 672 q 808 663 796 663 q 849 671 849 663 q 840 697 849 681 l 822 876 l 814 878 q 744 835 778 878 q 774 818 749 822 q 806 810 800 814 q 769 786 797 796 q 738 763 740 776 l 806 763 l 814 749 q 768 738 806 744 q 703 719 731 731 q 675 693 675 708 q 675 692 675 692 l 676 689 l 710 697 l 704 706 q 763 714 738 714 l 771 714 l 763 706 m 283 681 l 304 669 q 326 689 307 669 q 317 689 325 689 l 308 690 q 283 681 285 690 m 206 714 q 219 706 207 706 q 235 706 232 706 q 246 708 239 706 q 257 717 253 711 q 265 732 261 722 q 206 714 250 732 m 317 740 q 274 706 286 718 l 286 706 q 335 719 335 706 q 317 740 335 722 m 814 732 l 814 724 l 788 724 l 814 732 m 719 750 q 704 740 706 750 l 744 740 q 719 750 735 750 m 231 774 q 237 767 231 772 q 243 760 243 763 q 242 756 243 757 q 272 767 251 756 q 292 788 292 779 q 278 803 292 797 q 253 810 264 810 q 210 800 233 810 q 186 772 186 790 q 215 781 196 772 q 240 790 233 789 q 235 783 239 790 q 231 774 231 776 m 744 810 q 728 790 728 810 q 763 801 751 790 q 744 810 760 810 m 188 876 l 188 833 q 203 838 190 833 q 224 843 215 843 q 258 832 225 832 q 240 851 258 851 l 240 869 q 188 876 231 876 z "},"N":{"ha":919,"x_min":92,"x_max":843,"o":"m 103 -17 q 93 96 93 42 q 102 349 93 179 q 111 610 111 518 q 92 726 92 690 q 98 810 92 756 q 104 894 104 864 q 103 910 104 899 q 103 926 103 921 q 175 935 135 935 q 257 926 219 935 q 321 830 272 903 q 400 705 369 757 q 453 601 431 653 q 553 452 453 588 q 674 317 654 317 q 686 511 686 317 q 685 586 686 517 q 685 696 685 656 q 682 706 685 697 q 678 721 679 714 q 676 729 676 728 q 681 800 676 754 q 685 869 685 846 q 744 913 685 913 q 817 893 817 913 q 814 874 817 888 q 811 857 811 861 q 816 830 811 850 q 821 799 821 810 q 831 652 821 749 q 840 504 840 556 q 831 373 840 460 q 822 244 822 286 q 831 26 822 88 q 837 6 831 25 q 843 -25 843 -12 q 738 -7 792 -25 q 699 31 726 10 q 653 73 672 51 q 635 122 635 94 q 620 125 622 122 q 618 140 618 128 q 581 160 596 140 q 553 213 567 179 q 531 258 539 247 q 507 269 517 258 q 489 302 497 281 q 479 326 481 324 q 450 361 474 336 q 419 404 426 386 q 338 539 406 442 q 253 636 269 636 q 239 583 246 636 q 249 378 239 514 q 258 174 258 242 q 249 90 258 144 q 239 8 239 36 q 144 -25 239 -25 q 103 -17 131 -25 m 197 88 q 161 85 174 88 q 140 70 149 82 q 131 36 131 58 l 153 36 l 197 78 l 197 88 m 738 43 l 771 36 q 776 38 774 35 q 778 48 778 42 q 779 58 779 54 q 779 65 779 61 l 779 78 l 738 60 l 738 43 m 771 129 l 728 86 q 765 97 750 86 q 781 129 781 108 l 771 129 m 718 113 q 689 90 689 110 q 718 113 718 90 m 136 169 q 135 156 136 165 q 135 142 135 147 q 163 103 135 103 q 208 125 208 103 q 206 139 208 136 q 153 113 175 113 q 163 135 163 121 q 162 147 163 139 q 161 161 161 156 q 174 196 161 164 q 188 232 188 228 q 146 215 156 228 q 136 169 136 201 m 718 189 q 654 126 654 168 q 695 147 671 126 q 719 183 719 168 l 718 189 m 751 214 q 742 189 751 206 q 719 153 732 172 q 703 129 706 135 q 789 275 789 129 q 779 292 789 292 q 728 249 747 292 q 676 207 708 207 q 678 211 676 208 q 669 225 678 219 q 658 219 668 224 q 638 209 647 214 q 625 199 629 204 l 658 164 q 751 214 731 214 m 219 217 q 189 199 201 218 q 176 161 176 179 q 208 180 196 161 q 219 217 219 199 m 615 242 l 615 214 q 658 232 635 214 q 651 256 658 256 q 644 254 650 256 q 635 253 639 253 l 635 276 q 606 266 622 276 q 590 244 590 256 q 599 232 590 236 q 615 242 611 232 m 206 301 q 169 244 169 274 q 214 275 214 244 q 206 301 214 289 m 565 275 q 582 267 565 267 q 617 288 617 267 q 609 301 617 293 q 594 314 601 308 l 586 319 l 582 318 l 539 404 q 535 406 538 406 q 513 361 513 406 q 543 329 513 329 q 541 317 543 326 q 539 304 539 308 q 551 292 539 292 q 574 301 564 292 q 565 275 565 276 m 158 305 q 151 302 158 305 q 144 292 144 300 q 153 275 144 283 l 188 310 l 178 310 q 158 305 171 310 m 728 351 l 728 282 q 761 293 743 282 q 788 318 779 304 l 754 318 q 772 335 763 324 q 781 351 781 347 l 728 351 m 206 386 q 163 335 168 354 q 208 371 208 335 q 206 386 208 383 m 197 413 q 187 410 194 411 q 177 408 179 408 q 169 405 175 407 q 163 401 164 403 q 158 395 161 399 q 155 388 156 392 q 153 376 154 383 q 153 361 153 369 l 197 404 l 197 413 m 738 386 q 735 377 739 383 q 728 371 731 371 l 788 371 l 788 406 q 754 394 769 406 q 783 438 765 407 q 800 482 800 468 q 772 461 785 482 q 744 439 760 440 l 744 454 q 796 540 796 497 l 763 540 q 781 554 765 546 q 797 576 797 563 q 792 587 797 581 q 783 593 786 593 q 751 574 768 593 q 733 540 733 556 l 743 540 q 744 536 743 539 q 744 533 744 533 q 728 515 743 531 q 718 426 718 489 q 727 397 718 404 q 738 386 736 390 m 490 411 q 484 408 490 411 q 478 400 478 406 q 483 385 478 394 q 492 376 488 376 q 514 419 514 376 q 504 455 514 436 q 479 474 494 474 q 467 458 476 474 q 453 439 458 442 q 481 417 453 417 q 492 417 486 417 q 501 419 497 418 l 506 419 q 490 411 503 417 m 197 464 q 176 426 176 443 q 207 446 207 426 q 197 464 207 460 m 153 476 q 163 446 153 475 q 203 503 203 475 q 153 476 153 503 m 426 479 q 444 454 426 464 q 464 501 464 468 q 426 479 426 501 m 393 538 q 401 513 393 521 q 418 506 410 506 q 446 524 446 506 q 415 558 446 540 q 393 538 393 550 m 199 551 q 172 540 185 551 q 160 514 160 528 q 188 524 178 514 q 199 551 199 535 m 197 585 q 151 546 151 585 q 176 559 154 546 q 197 576 197 572 l 197 585 m 360 583 q 381 557 375 557 q 400 569 393 557 q 407 596 407 582 q 360 583 372 596 m 718 610 q 722 590 718 603 q 728 576 725 576 l 738 576 l 779 618 q 738 636 774 636 q 731 631 735 636 q 723 618 726 625 q 718 610 719 611 m 144 610 l 153 601 q 171 615 160 606 q 194 640 182 625 q 206 665 206 654 q 193 724 193 685 l 194 724 q 185 718 194 722 q 163 707 175 714 q 144 696 150 700 l 144 610 m 351 651 q 346 627 351 643 q 340 600 340 611 q 394 613 394 600 q 333 729 394 647 l 292 772 q 247 746 285 771 q 258 725 251 739 q 268 708 265 711 q 278 701 271 706 q 296 697 285 697 q 301 656 296 669 q 325 626 306 643 l 350 661 q 351 651 351 654 m 744 656 q 782 642 744 642 q 771 704 782 704 q 744 656 744 672 m 718 696 l 718 667 q 753 703 725 667 q 781 746 781 740 l 771 746 l 718 696 m 265 815 q 201 781 246 815 q 138 721 157 746 l 144 721 l 282 789 q 265 815 274 815 m 718 776 l 718 729 l 728 729 l 771 772 l 763 781 l 779 789 q 784 811 781 790 q 788 842 788 832 q 784 851 788 844 q 779 857 781 857 l 728 857 q 718 824 721 833 q 744 776 718 786 l 718 776 m 206 799 q 160 787 183 799 q 138 756 138 775 l 144 756 l 214 799 l 206 799 m 138 807 q 140 802 138 806 q 144 799 143 799 l 214 875 l 211 875 q 206 876 207 876 q 162 851 186 876 q 138 807 138 826 m 236 868 q 197 824 219 868 q 201 822 200 822 l 211 828 q 247 850 242 844 q 243 861 247 854 q 236 868 239 868 m 138 883 q 144 867 138 881 l 172 883 l 153 893 q 138 883 138 893 z "},"O":{"ha":989,"x_min":36,"x_max":928,"o":"m 344 0 l 215 60 l 208 60 q 147 103 200 60 q 78 226 114 129 q 43 379 43 324 q 44 393 43 389 q 39 397 42 393 q 36 404 36 401 q 44 463 36 422 q 53 514 51 503 q 118 731 68 651 q 285 883 168 810 q 286 883 286 883 l 289 882 q 371 899 300 882 q 463 917 442 917 l 499 917 l 542 908 q 634 890 585 900 q 694 875 683 879 q 747 849 740 856 q 890 668 851 743 q 928 468 928 593 q 922 381 928 424 q 902 278 915 339 q 885 199 889 217 q 867 163 882 182 q 851 122 851 144 q 850 113 851 114 q 507 -17 778 -17 l 344 0 m 542 33 l 542 17 l 575 33 l 542 33 m 344 51 q 349 47 344 50 q 354 43 353 43 q 383 63 383 43 l 375 63 q 344 51 347 63 m 815 154 q 776 149 783 153 q 764 131 768 146 q 747 103 760 117 q 635 43 713 64 q 790 108 719 43 q 860 260 860 174 q 806 215 806 260 l 833 215 q 810 202 829 208 q 789 183 790 196 q 815 154 789 181 m 288 135 q 308 131 303 135 q 318 118 313 126 q 335 103 324 110 q 386 91 351 94 q 438 78 421 88 q 467 77 443 78 q 493 76 490 76 q 682 112 622 76 q 772 258 742 147 q 773 311 772 267 q 774 364 774 356 q 774 443 774 426 q 769 519 774 460 q 756 606 765 578 q 728 674 747 635 q 679 738 708 713 q 674 736 678 736 q 600 759 668 736 q 524 782 532 782 q 490 772 511 782 q 457 763 468 763 q 441 767 449 763 q 426 772 433 772 q 242 671 321 772 q 164 464 164 569 q 183 318 164 431 q 218 206 201 206 q 226 206 219 206 q 236 207 233 207 q 246 198 242 207 q 250 181 250 189 q 262 164 253 175 q 279 144 271 153 q 288 135 288 136 m 232 113 l 232 101 q 250 113 246 101 l 232 113 m 163 163 q 175 136 163 154 q 193 118 188 118 q 208 163 208 118 l 163 163 m 172 215 q 153 196 153 213 q 174 210 174 196 q 173 213 174 211 q 172 215 172 214 m 113 222 q 122 206 122 217 l 139 222 q 135 228 139 225 q 129 232 131 232 q 113 222 122 232 m 157 283 q 139 275 144 283 l 157 275 l 157 283 m 825 300 q 819 287 825 296 q 814 272 814 278 q 840 283 838 272 q 844 278 840 282 q 850 275 849 275 q 894 399 894 275 q 894 410 894 401 q 893 419 893 418 l 801 399 l 833 368 q 816 364 826 368 q 806 356 806 360 q 825 344 806 344 q 844 348 831 344 q 867 351 858 351 q 838 338 863 343 q 814 318 814 332 q 819 306 814 311 q 825 300 825 301 m 129 378 q 96 344 115 378 l 103 344 q 113 343 111 343 q 139 360 139 343 q 129 378 139 378 m 115 426 q 78 383 78 425 q 106 396 96 383 q 115 426 115 408 m 815 447 q 846 436 825 436 l 860 436 q 901 453 901 436 q 890 489 901 489 q 850 474 875 489 q 815 447 825 460 m 867 511 l 806 511 q 819 479 806 479 q 865 496 838 479 q 893 532 893 513 q 885 575 893 558 q 799 532 851 575 l 867 511 m 90 533 q 79 489 90 501 q 83 488 81 489 q 88 488 86 488 q 110 494 97 488 q 124 511 124 500 q 111 526 124 519 q 90 533 99 533 m 113 565 l 129 557 q 140 576 140 557 q 113 565 117 576 m 790 565 l 807 557 q 850 575 818 557 q 790 565 797 575 m 797 600 q 803 594 799 599 l 807 592 l 876 592 q 858 667 876 621 q 813 713 840 713 q 788 694 804 713 q 772 669 772 675 q 782 658 772 665 q 794 650 792 650 q 799 651 797 650 q 789 622 789 635 q 808 631 797 622 q 829 639 819 639 l 822 631 q 806 614 814 624 q 797 600 797 604 m 122 635 q 110 607 110 635 q 147 617 132 607 q 135 628 144 622 q 122 635 125 635 m 164 719 q 152 709 158 719 q 146 693 146 699 q 190 703 167 693 q 178 713 189 707 q 164 719 167 719 m 747 738 q 753 715 747 726 q 769 703 760 703 q 790 711 781 703 q 799 729 799 719 q 772 744 799 744 q 689 831 714 806 q 584 864 667 853 q 446 875 501 875 q 388 849 388 875 q 367 865 378 865 q 338 853 363 865 q 291 828 314 840 q 268 815 268 817 l 285 801 l 232 801 l 232 799 q 279 763 242 763 q 311 781 299 763 q 300 788 307 782 q 293 797 293 794 q 301 815 293 807 q 319 810 310 815 q 343 804 329 804 q 365 806 358 804 q 381 815 372 807 q 396 840 389 824 q 417 829 397 829 q 490 857 490 829 l 499 840 l 497 839 q 528 850 506 839 q 601 813 556 813 q 626 824 621 813 q 747 738 643 778 m 190 746 q 206 734 196 740 q 223 724 215 728 q 232 719 231 721 q 243 727 236 719 q 250 738 250 735 q 190 746 224 746 z "},"P":{"ha":792,"x_min":92,"x_max":764,"o":"m 138 0 q 128 194 138 65 q 119 386 119 322 q 124 454 119 411 q 129 508 129 497 q 124 544 129 529 q 119 565 119 560 q 124 581 119 569 q 129 614 129 592 q 124 640 129 626 q 118 658 118 654 q 124 697 118 672 q 129 735 129 722 q 120 760 129 753 q 101 769 111 768 q 92 775 92 769 q 100 795 92 786 q 119 806 108 804 l 119 890 q 134 906 119 894 q 153 917 149 917 l 343 917 l 360 925 l 513 925 q 565 898 528 921 q 643 865 603 875 q 674 828 647 860 q 705 790 700 797 q 727 756 710 782 q 749 715 744 731 q 758 673 753 699 q 764 619 764 647 q 703 421 764 514 q 539 308 642 328 q 394 290 454 290 q 327 293 375 290 q 274 296 279 296 q 274 288 274 293 q 271 275 274 279 l 265 265 l 265 -25 l 257 -33 q 138 0 182 -33 m 144 33 q 163 17 160 17 q 201 42 178 17 q 225 86 225 67 l 197 86 q 233 151 233 99 q 181 97 206 151 q 144 33 157 42 m 222 51 q 206 17 214 47 q 215 18 211 17 q 221 25 219 19 q 222 33 222 31 q 222 42 222 35 q 222 51 222 50 m 222 181 q 208 176 217 179 q 194 171 199 172 q 185 167 190 169 q 177 160 179 164 q 173 151 175 157 q 171 138 171 146 q 172 128 171 136 q 172 119 172 121 q 186 132 174 121 q 209 156 199 143 q 222 181 219 169 m 172 188 l 172 179 q 215 190 204 179 q 226 232 226 200 l 214 232 l 172 188 m 201 240 q 169 222 169 240 q 172 215 169 218 q 206 240 196 226 l 201 240 m 222 317 q 206 302 217 317 q 186 272 194 288 l 178 258 q 197 262 186 258 q 215 269 208 265 q 222 275 222 274 l 222 317 m 163 317 q 162 313 163 315 q 161 307 161 310 q 172 292 161 292 l 239 360 l 239 368 q 216 363 232 367 q 194 357 200 360 q 178 349 188 354 q 166 337 169 344 q 163 317 163 329 m 257 344 q 343 335 282 335 l 317 360 l 333 368 q 317 378 333 378 q 257 344 257 371 m 368 344 q 399 333 378 333 l 410 335 q 368 344 406 344 m 471 368 q 467 364 467 367 q 488 354 467 358 q 518 350 510 350 q 569 368 569 350 l 522 368 q 557 386 536 382 l 574 386 q 600 385 590 385 q 663 429 622 385 q 704 510 704 474 q 646 493 672 510 q 619 447 619 476 l 629 447 q 511 406 629 429 q 347 383 393 383 q 360 360 347 360 l 419 360 l 404 378 l 410 378 q 471 368 450 372 m 232 419 l 178 368 q 247 393 197 368 l 238 419 l 232 419 m 206 439 q 165 430 178 439 q 153 392 153 421 q 222 438 182 392 q 214 438 221 438 q 206 439 207 439 m 257 754 l 257 685 q 261 596 258 668 q 269 476 264 524 q 282 428 274 428 l 404 428 l 410 438 l 410 428 q 440 439 421 435 q 481 445 460 443 q 506 447 503 447 q 576 486 551 450 q 615 583 600 522 q 625 625 625 617 q 597 701 625 650 q 549 763 569 751 q 464 772 529 772 q 431 772 460 772 q 393 771 401 771 q 265 763 269 767 l 257 754 m 222 550 q 163 451 163 500 q 216 460 199 451 q 233 501 233 469 q 222 550 233 532 m 197 565 q 160 513 160 565 q 197 545 181 513 q 222 583 214 578 q 223 606 222 592 q 224 628 224 621 q 214 669 224 656 q 184 631 197 657 q 171 585 171 606 q 186 564 171 564 q 197 565 193 564 m 729 583 l 718 583 q 674 562 704 578 q 643 540 643 546 l 643 524 l 703 524 q 721 548 713 524 q 729 583 729 572 m 679 593 q 647 574 647 593 q 694 592 682 574 l 688 592 q 679 593 681 593 m 717 661 q 679 642 694 661 q 664 603 664 624 q 699 603 688 603 q 724 612 710 604 q 738 636 738 619 q 717 661 738 661 m 188 669 q 178 671 183 671 q 160 647 160 671 l 161 642 q 163 635 163 636 q 188 669 182 650 m 615 713 q 624 708 618 711 q 633 704 631 706 q 640 700 635 703 q 646 695 644 697 q 651 690 647 693 q 655 684 654 688 q 657 676 656 681 q 659 667 658 672 q 660 656 660 663 q 658 643 660 644 q 711 699 711 675 q 699 729 711 729 q 669 713 686 729 q 668 718 668 717 q 677 735 668 721 q 686 754 686 750 q 676 773 686 757 q 647 806 665 789 q 610 824 628 824 l 625 840 q 410 890 533 890 q 356 876 378 890 q 308 831 335 863 q 329 835 315 831 q 355 845 343 840 q 368 849 367 850 q 333 824 356 831 q 348 815 342 821 q 360 807 354 810 q 376 804 367 804 q 386 806 378 804 l 393 806 l 376 815 q 432 825 396 825 q 449 824 439 825 q 464 824 460 824 l 479 840 q 476 835 476 838 q 519 819 476 826 q 565 806 561 813 l 557 797 q 599 763 592 769 q 610 746 600 761 q 635 729 621 731 l 615 713 m 222 747 q 181 726 204 747 q 157 685 157 704 l 214 685 l 218 714 q 222 747 222 743 m 163 754 q 172 738 163 744 q 197 765 197 746 q 163 754 163 765 m 153 815 q 160 788 156 794 q 178 781 165 781 q 245 809 201 781 q 308 857 289 838 q 188 806 275 857 l 178 806 q 274 875 197 829 l 274 886 q 158 857 158 886 l 185 857 q 186 853 185 856 q 188 849 188 850 q 172 833 188 847 q 153 815 157 818 z "},"Q":{"ha":986,"x_min":40,"x_max":917,"o":"m 146 113 l 135 113 q 101 163 132 113 q 56 279 72 210 q 40 410 40 349 q 60 604 40 515 q 124 767 81 693 q 243 884 167 842 q 422 926 319 926 q 490 921 449 926 q 547 915 531 915 l 547 906 q 737 844 650 906 q 872 685 824 783 q 898 603 879 674 q 917 511 917 532 q 910 451 917 485 q 904 394 904 418 q 906 368 904 378 l 899 360 l 906 351 q 888 298 889 343 q 872 240 888 253 l 882 232 q 860 190 875 221 q 846 147 846 160 q 881 109 846 129 q 917 74 917 89 q 899 47 917 63 q 882 17 882 31 q 876 22 881 17 q 868 28 871 28 q 856 10 863 28 q 833 -8 849 -8 q 796 10 822 -8 q 757 28 769 28 q 718 0 733 28 q 667 -15 708 -3 q 602 -33 625 -28 q 544 -45 579 -39 q 482 -51 508 -51 q 169 86 336 -51 q 157 93 164 90 q 148 99 150 96 q 146 113 146 103 m 340 17 q 388 12 357 17 q 438 8 419 7 q 418 28 438 28 q 404 26 414 28 q 389 25 394 25 q 362 43 374 25 q 342 61 350 61 q 307 43 322 61 l 340 26 l 340 17 m 554 22 q 558 15 554 19 q 565 10 563 10 q 610 27 574 10 q 651 44 646 44 q 665 44 656 44 q 678 43 674 43 q 726 81 692 43 q 761 147 761 119 q 740 133 758 146 q 709 110 722 121 q 694 93 696 100 q 619 50 683 67 q 554 22 554 33 m 868 78 q 850 65 860 78 q 839 43 840 51 q 872 78 863 53 l 868 78 m 796 74 l 794 72 q 801 65 794 69 q 813 60 808 60 q 820 66 815 60 q 828 79 825 72 l 831 86 l 826 86 q 821 88 822 88 q 796 74 796 88 m 321 172 q 313 150 321 169 q 306 124 306 131 q 386 91 306 113 q 494 69 467 69 q 625 93 549 69 q 573 170 625 119 q 521 253 521 221 q 551 309 521 267 q 594 351 582 351 q 646 324 618 351 q 697 268 674 296 q 732 240 719 240 q 756 255 746 240 q 769 294 765 269 q 775 339 774 319 q 778 386 776 358 l 778 413 q 788 481 788 451 q 785 485 788 482 q 781 492 783 489 q 778 497 778 496 q 769 548 778 511 q 753 616 761 585 q 744 649 744 647 l 710 649 q 729 683 729 660 q 650 767 729 736 q 506 799 571 799 q 492 798 501 799 q 475 797 483 797 l 468 797 l 317 746 q 282 716 306 733 q 247 685 258 699 q 186 429 186 608 q 203 249 186 279 q 221 231 206 246 q 238 215 236 217 q 247 172 238 172 l 321 172 m 151 168 q 187 109 151 136 q 256 78 222 82 q 257 90 257 79 q 245 109 257 103 q 219 118 233 115 q 194 137 206 121 q 182 182 182 153 q 151 168 151 182 m 788 157 q 753 93 788 136 l 769 93 q 813 107 813 93 q 808 128 813 114 q 803 151 803 143 q 817 188 803 164 q 831 222 831 211 q 821 240 831 238 q 863 347 844 244 q 882 497 882 449 q 862 632 882 551 q 804 713 842 713 l 821 719 q 808 737 819 722 q 796 754 797 751 q 776 772 794 757 q 758 794 758 788 q 708 819 736 794 q 667 849 679 844 q 529 872 592 872 l 529 883 l 475 883 q 505 850 475 858 q 576 842 535 842 q 625 840 617 843 q 638 823 628 840 q 664 806 647 806 q 681 808 669 806 q 699 810 693 810 q 699 805 699 808 q 700 799 700 801 q 694 789 696 790 q 700 760 694 760 l 753 760 q 735 746 738 753 q 744 732 735 735 q 753 724 753 729 q 752 713 753 721 q 751 701 751 706 q 765 682 751 682 q 778 685 772 682 l 769 669 l 788 610 l 799 610 q 810 536 799 583 q 822 464 822 489 q 817 438 822 456 q 813 413 813 419 q 817 406 813 411 q 822 389 822 401 q 812 342 822 374 q 801 293 801 311 q 804 265 801 268 l 821 258 q 806 251 818 257 q 785 242 793 246 q 767 230 776 238 q 753 215 757 222 l 778 215 l 718 147 l 718 138 q 788 163 724 142 l 788 157 m 658 147 q 667 119 658 136 q 728 172 693 150 l 728 181 q 709 174 722 179 q 682 162 696 168 q 667 154 668 156 l 658 147 m 572 240 q 586 235 582 239 q 590 228 590 232 q 592 217 590 224 q 599 206 594 210 q 640 163 604 199 q 679 179 647 179 q 711 193 711 179 q 699 209 711 196 q 685 222 688 222 q 662 214 682 222 q 640 206 642 206 l 635 207 q 628 208 629 208 q 644 235 628 218 q 660 267 660 253 q 636 292 660 292 q 627 288 635 292 q 615 283 619 283 q 611 293 614 285 q 603 301 608 301 q 588 292 599 301 q 572 283 576 283 l 572 240 m 674 240 q 650 222 658 240 q 685 240 672 222 l 674 240 m 108 275 q 118 232 108 243 q 153 275 147 251 l 108 275 m 93 360 l 93 332 q 112 341 103 332 q 121 360 121 350 l 93 360 m 144 414 q 128 404 133 414 l 144 368 l 144 414 m 118 464 q 108 465 114 465 q 82 454 92 465 q 72 426 72 443 q 100 433 92 426 q 119 458 108 439 q 118 464 118 463 m 144 524 l 108 507 l 144 507 l 144 524 m 144 592 q 163 582 150 582 l 163 592 l 144 592 m 128 669 q 115 624 115 656 q 144 643 144 624 q 128 669 144 658 m 163 685 q 188 669 171 674 l 196 685 q 178 694 189 694 q 163 685 165 694 m 188 763 q 185 763 186 763 q 182 764 183 764 q 166 749 172 764 q 160 724 160 735 q 214 738 214 724 q 188 763 190 761 m 203 806 q 285 779 203 779 q 273 814 285 796 q 247 832 261 832 q 222 824 236 832 q 203 806 207 815 m 354 883 q 400 861 354 874 q 458 849 446 849 l 468 849 l 453 883 l 354 883 z "},"R":{"ha":810,"x_min":82,"x_max":763,"o":"m 614 28 l 554 122 q 537 165 554 138 q 492 228 519 193 q 460 269 464 264 q 408 346 431 310 q 313 356 361 356 q 252 343 268 356 q 236 288 236 331 q 242 181 236 251 q 247 71 247 110 q 221 -6 247 15 q 133 -14 175 -14 q 112 -8 117 -14 q 107 15 107 -1 q 117 148 107 60 q 126 282 126 236 q 117 354 126 317 l 117 646 q 108 674 117 656 q 100 697 100 693 q 104 719 100 704 q 108 742 108 733 q 95 801 108 756 q 82 851 82 847 q 99 907 82 893 q 167 921 117 921 q 214 916 185 921 q 258 911 243 911 q 313 916 267 911 q 393 921 360 921 q 413 921 396 921 q 436 921 431 921 q 460 920 442 921 q 486 919 478 919 q 511 917 494 918 q 538 913 528 915 q 561 908 547 911 q 585 900 575 904 q 605 890 594 896 q 624 878 615 885 l 683 818 l 683 800 l 692 800 q 701 747 693 786 q 710 679 710 708 q 658 483 710 553 q 624 446 647 469 q 599 422 601 422 q 593 423 596 422 q 589 424 590 424 q 572 415 578 424 q 563 406 567 406 q 550 410 557 406 q 543 417 543 414 l 546 422 l 588 465 q 571 468 585 468 q 541 447 553 468 q 519 422 529 425 q 468 406 515 422 q 490 392 472 396 q 511 381 507 389 l 494 363 l 532 363 q 530 372 532 364 q 528 385 528 381 q 538 399 528 394 q 569 346 544 378 q 599 303 593 314 q 763 4 638 190 q 674 -22 763 -22 q 644 -15 654 -22 q 633 3 635 -7 q 628 20 632 13 q 614 28 624 28 m 590 188 q 624 88 590 143 q 638 65 628 79 q 657 39 649 50 l 665 28 l 692 28 q 656 103 682 60 q 624 157 629 146 q 606 196 618 165 q 583 251 594 226 q 563 278 572 276 l 556 275 q 542 267 547 271 q 538 260 538 264 q 553 256 544 260 q 563 249 563 253 q 558 238 563 243 q 553 225 553 232 q 571 208 553 208 q 575 209 572 208 q 581 210 578 210 l 563 200 q 569 182 563 182 q 579 185 572 182 q 590 188 586 188 m 160 54 q 189 38 160 38 q 206 77 200 38 q 211 144 211 117 q 199 175 211 175 q 172 161 183 175 q 160 132 160 147 q 167 114 160 117 q 151 81 157 110 q 178 98 160 81 q 199 115 196 115 q 203 114 201 114 q 180 85 200 101 q 160 54 160 68 m 186 201 q 165 197 169 201 q 160 178 160 193 q 161 167 161 168 q 203 200 188 181 q 194 200 201 200 l 186 201 m 203 253 q 177 240 189 253 q 165 213 165 228 q 197 220 189 213 q 211 253 206 228 l 203 253 m 161 253 q 167 243 161 243 q 196 278 196 258 q 194 286 194 285 q 161 253 161 271 m 511 286 l 511 275 q 546 286 540 275 l 511 286 m 203 328 q 175 301 175 318 q 203 328 193 301 m 486 311 q 557 301 525 301 q 549 321 557 314 q 534 328 542 328 q 510 329 526 329 q 485 317 485 329 l 486 314 l 486 311 m 151 354 q 161 319 151 332 q 186 358 186 344 q 167 374 186 374 q 151 354 151 374 m 460 346 l 460 339 l 476 339 l 476 346 l 460 346 m 432 400 q 438 376 432 383 q 463 369 444 369 q 453 390 463 381 q 432 400 443 400 m 476 443 q 442 414 442 443 q 494 442 488 425 l 486 442 q 476 443 478 443 m 158 461 l 161 422 l 168 435 l 158 461 m 236 432 q 250 422 242 422 q 263 432 263 422 l 236 432 m 410 442 l 299 438 q 322 431 299 433 q 371 426 346 428 q 399 422 396 424 q 410 442 410 428 m 228 500 q 292 481 240 481 q 399 492 365 481 q 444 497 415 494 q 486 502 472 500 q 520 510 500 504 q 549 526 540 517 q 565 554 558 536 q 572 599 572 572 q 538 749 572 671 q 461 780 506 769 q 388 792 417 790 q 306 793 358 793 q 232 779 249 793 q 221 765 225 774 q 229 593 229 697 q 228 537 229 569 q 228 500 228 504 m 588 500 q 571 492 579 500 l 599 492 q 594 497 599 493 q 588 500 590 500 m 632 538 q 603 514 603 538 q 632 538 632 514 m 610 622 q 643 569 610 569 q 675 679 675 569 l 653 679 q 650 684 653 681 q 647 689 647 688 q 665 697 664 696 q 592 710 644 710 q 611 660 592 690 q 647 619 631 631 q 640 611 647 611 q 626 617 635 611 q 610 622 617 622 m 176 749 q 158 742 164 750 q 151 721 151 733 q 158 685 151 707 q 169 649 164 664 q 175 631 175 633 q 190 672 190 649 l 176 749 m 632 724 l 674 714 l 675 717 q 675 719 675 718 q 646 802 675 749 q 588 860 617 856 q 546 869 553 867 q 533 810 533 857 l 533 799 q 560 803 544 799 q 586 807 576 807 q 587 804 586 806 q 588 801 588 803 q 577 789 588 800 q 563 775 567 778 l 571 765 l 647 749 q 649 744 649 746 q 632 729 649 729 l 632 724 m 581 757 q 574 749 574 757 q 581 740 574 740 q 586 749 586 740 q 581 757 586 757 m 436 878 q 494 818 436 818 q 501 838 499 825 q 511 860 504 851 l 519 851 q 526 856 524 853 q 528 861 528 858 l 529 864 q 519 878 529 878 l 436 878 m 246 860 q 310 835 256 835 q 349 843 349 835 l 332 878 l 263 878 l 246 860 m 349 878 q 365 855 351 875 q 388 835 379 835 q 408 840 394 835 q 429 844 421 844 q 417 885 429 885 l 349 878 m 167 869 q 225 842 206 842 l 231 842 l 236 843 l 211 869 l 221 878 q 164 886 185 886 q 133 878 144 886 q 156 858 149 858 q 167 869 167 858 z "},"S":{"ha":778,"x_min":46,"x_max":724,"o":"m 167 -7 q 161 -4 164 -4 q 154 -6 158 -4 q 149 -7 150 -7 q 85 19 113 -7 q 46 78 58 44 q 79 101 68 78 q 95 149 90 125 q 106 172 100 172 l 225 103 q 250 106 238 106 q 268 97 267 106 q 281 98 269 97 q 301 99 293 99 q 338 93 325 99 q 354 88 350 88 q 424 93 388 88 q 501 112 461 99 q 568 153 542 125 q 594 219 594 181 q 576 288 594 250 q 533 335 558 325 l 157 499 q 54 683 54 543 q 57 712 54 699 q 68 742 60 725 q 81 765 76 758 q 98 793 85 772 q 113 815 111 814 q 403 919 189 919 q 436 915 411 919 q 500 910 461 910 q 629 885 624 890 l 654 858 l 654 756 q 642 730 654 749 q 624 711 629 711 q 547 749 601 721 q 449 794 492 778 q 367 810 406 810 q 228 777 290 810 q 167 674 167 744 q 212 600 167 642 q 285 558 257 558 q 296 558 289 558 l 303 560 q 367 527 335 550 q 434 489 400 504 q 517 474 468 474 q 658 399 592 458 q 724 268 724 339 q 713 211 724 244 q 699 164 701 178 q 663 61 675 79 q 560 18 640 31 q 555 15 558 18 q 551 10 551 11 q 381 -26 457 -26 q 167 -7 261 -26 m 344 61 q 307 52 315 61 q 299 18 299 43 l 371 18 q 379 28 375 18 q 344 61 379 61 m 388 53 q 401 27 388 38 q 431 17 415 17 q 457 28 454 17 q 513 37 494 33 q 568 51 532 40 q 623 83 604 63 q 644 131 642 103 q 618 139 635 139 q 596 103 614 139 q 556 68 578 68 l 547 72 q 533 78 539 78 q 481 73 515 78 q 435 68 447 68 q 406 69 410 68 q 388 53 390 61 m 218 36 q 253 26 243 26 q 278 40 268 26 q 288 71 288 54 q 218 36 218 71 m 121 58 q 149 35 121 35 q 175 67 175 35 l 175 68 l 174 69 q 139 53 169 68 l 136 54 q 132 56 133 56 l 132 61 l 142 67 q 162 76 153 71 q 174 88 171 82 q 150 97 171 97 q 128 83 136 97 q 121 58 121 69 m 218 78 q 181 36 181 78 l 200 36 l 192 43 q 218 78 218 61 m 432 43 q 436 44 435 44 q 447 36 439 44 l 432 36 l 432 43 m 644 172 q 625 151 625 169 q 674 218 674 151 q 650 210 664 218 q 636 194 636 203 q 644 172 636 186 m 636 254 q 656 240 636 240 q 682 249 674 240 q 691 265 690 257 q 692 296 692 272 q 657 281 678 296 q 636 254 636 267 m 644 301 q 625 279 625 299 q 651 288 638 279 q 672 306 665 297 q 679 317 679 314 q 644 344 679 344 q 622 338 640 344 q 603 328 603 332 l 603 318 l 644 301 m 599 379 q 574 363 574 379 l 633 363 q 599 379 633 379 m 500 413 q 560 375 531 375 l 560 388 l 551 388 q 560 401 560 392 q 529 422 560 422 q 500 413 501 422 m 472 431 l 483 421 l 490 431 l 472 431 m 388 464 q 424 446 406 446 q 428 447 425 446 q 432 447 431 447 q 388 464 396 464 m 301 508 q 302 501 301 504 q 304 497 303 499 q 308 492 306 494 q 312 490 310 490 q 317 488 314 489 q 324 487 321 488 q 330 486 326 486 q 336 486 333 486 q 343 486 339 486 q 349 486 347 486 q 301 508 349 508 m 242 515 q 259 505 246 511 q 278 499 272 499 q 288 505 281 499 q 294 515 294 511 l 285 524 l 242 515 m 213 551 q 200 535 208 551 l 238 535 q 229 547 238 542 q 213 551 221 551 m 156 554 l 154 553 q 158 549 154 551 q 166 545 161 547 q 174 540 171 543 q 194 568 194 540 q 169 564 182 568 q 156 554 156 560 m 153 594 q 139 575 144 594 l 143 575 q 149 574 147 574 q 167 583 163 574 q 153 594 160 594 m 113 601 l 113 593 l 132 593 l 132 601 l 113 601 m 132 635 l 106 619 l 113 618 q 133 632 133 618 l 132 635 m 94 663 q 110 635 94 635 q 125 663 125 635 l 94 663 m 96 713 q 113 685 96 685 q 133 713 133 685 l 96 713 m 139 742 q 106 729 108 742 l 139 729 l 139 742 m 174 807 q 144 785 157 801 q 131 753 131 769 q 162 768 150 753 q 174 807 174 783 m 585 799 q 611 772 585 779 l 629 840 q 534 868 629 851 q 397 885 439 885 q 392 879 396 885 q 388 871 388 874 q 408 857 388 857 q 439 868 438 857 q 472 839 446 839 q 490 850 489 839 l 517 825 l 543 850 l 543 822 l 550 825 q 566 831 556 826 q 585 840 576 836 q 590 840 586 840 q 594 839 593 839 q 590 818 594 832 q 585 799 585 804 m 572 825 q 563 819 568 824 q 558 810 558 814 q 560 807 560 808 l 576 825 l 572 825 m 263 860 q 218 849 244 860 q 192 826 192 839 q 203 824 192 824 q 240 835 217 824 q 263 860 263 847 m 328 868 q 344 858 338 858 q 364 863 353 858 q 375 875 375 868 q 328 868 353 875 z "},"T":{"ha":750,"x_min":18,"x_max":706,"o":"m 285 15 l 289 726 l 289 778 q 167 799 289 799 q 139 798 158 799 q 110 797 119 797 q 18 813 18 797 q 32 852 18 828 q 46 897 46 876 l 47 900 q 52 905 50 903 q 59 910 54 907 q 70 914 64 913 q 88 917 76 915 q 113 918 99 918 l 113 906 q 359 901 194 906 q 607 896 524 896 q 689 897 661 896 q 706 858 706 892 q 697 804 706 817 q 641 799 688 803 q 585 794 594 794 q 508 782 557 793 q 431 769 460 771 q 421 661 421 733 q 426 474 421 597 q 432 286 432 350 q 428 149 432 219 q 424 40 424 79 q 423 30 424 38 q 422 19 422 22 q 419 10 421 15 q 416 1 418 4 q 410 -5 414 -1 q 401 -10 407 -8 q 388 -11 394 -11 q 372 -6 382 -11 q 357 -1 363 -1 l 350 -3 q 333 -8 343 -6 q 319 -10 324 -10 q 299 1 314 -10 q 285 15 285 13 m 369 67 q 344 33 349 46 q 371 57 371 39 q 369 63 371 58 l 369 67 m 319 57 q 333 50 326 50 q 363 86 342 50 q 383 136 383 122 l 369 136 l 369 160 l 328 144 l 319 57 m 364 118 l 364 111 l 353 111 l 364 118 m 311 190 q 320 176 311 185 q 332 167 329 167 q 354 204 332 185 q 379 239 376 224 l 375 239 q 336 224 361 239 q 311 190 311 210 m 383 214 q 363 199 374 210 q 351 176 351 188 q 377 184 369 176 q 388 213 385 192 q 383 214 385 214 m 379 299 l 336 239 l 388 264 q 389 275 389 271 q 379 299 389 296 m 336 282 q 328 264 328 278 q 333 267 331 264 q 336 272 335 269 l 338 276 l 336 282 m 328 317 l 328 299 q 369 321 357 308 q 382 358 382 333 q 379 385 382 379 l 328 317 m 318 367 q 328 350 318 353 q 379 410 369 388 q 338 398 357 410 q 318 367 318 386 m 369 478 q 336 417 336 456 q 381 443 381 417 q 369 478 381 461 m 318 478 q 328 453 318 454 q 369 504 353 475 l 364 513 q 318 478 318 513 m 364 572 l 344 538 l 364 538 l 364 572 m 353 597 q 328 547 328 596 q 354 589 354 569 l 353 597 m 369 676 q 344 617 346 621 l 353 614 q 371 647 371 614 l 369 653 q 369 665 369 658 q 369 676 369 672 m 388 794 q 378 765 386 790 q 369 736 371 740 q 360 717 368 729 q 353 701 353 706 q 367 708 361 704 q 377 720 374 713 q 383 733 381 728 q 387 748 386 738 q 388 763 388 758 q 388 779 388 767 q 388 794 388 792 m 344 761 q 338 742 344 757 q 328 718 331 726 q 355 738 339 718 q 371 775 371 757 q 365 782 371 778 q 353 786 358 786 q 357 820 353 806 q 365 842 361 835 l 369 849 l 369 818 q 404 835 385 818 q 424 868 424 851 q 336 815 336 868 q 340 782 336 796 q 344 761 344 768 m 285 849 q 303 838 288 838 q 328 842 321 838 q 344 864 336 847 q 334 865 343 864 q 322 867 325 867 q 285 849 292 867 m 439 854 l 439 838 l 447 838 l 447 854 l 439 854 m 465 864 l 465 838 l 525 838 q 531 843 526 838 q 535 851 535 849 q 500 865 535 865 q 485 865 497 865 q 465 864 472 864 m 88 882 l 88 842 q 174 864 158 842 q 130 873 168 864 q 88 882 92 882 m 242 872 q 174 849 207 872 q 199 848 182 849 q 225 847 215 847 q 269 860 269 847 q 242 872 269 872 m 551 854 l 558 849 l 658 849 q 618 864 658 864 q 551 854 553 854 z "},"U":{"ha":926,"x_min":79,"x_max":851,"o":"m 483 7 q 456 6 474 7 q 432 6 439 6 q 292 21 339 6 q 192 97 244 36 q 113 226 132 165 l 111 242 q 106 269 110 256 q 96 286 103 283 q 106 294 97 286 q 92 592 106 392 q 79 889 79 792 q 154 914 79 914 q 207 889 207 914 q 182 647 182 813 q 199 569 182 589 q 199 539 199 564 q 200 510 200 514 q 196 449 200 474 q 192 415 192 424 q 205 350 192 394 q 218 285 218 306 q 217 269 218 274 l 294 167 q 318 153 299 163 q 344 133 338 144 q 449 119 375 133 q 556 104 522 104 q 603 109 588 104 q 629 133 619 114 q 706 273 689 206 q 724 444 724 340 q 718 629 724 511 q 713 808 713 747 q 749 906 713 906 q 833 894 761 894 l 842 886 q 846 808 842 858 q 850 733 850 758 q 842 604 846 642 q 851 556 851 586 q 847 525 851 544 q 842 493 842 506 q 846 458 842 481 q 850 424 850 436 q 799 122 838 200 q 784 96 793 111 q 766 68 775 81 q 757 54 757 56 q 731 47 744 61 q 703 31 719 32 q 678 13 686 29 l 542 -7 q 524 -1 532 -7 q 507 4 515 4 q 483 -6 493 4 l 483 7 m 294 63 q 444 29 332 29 q 479 34 461 29 q 507 39 497 39 q 553 33 522 39 q 601 28 585 28 q 658 43 626 28 q 704 63 690 58 q 677 78 701 67 q 640 89 653 89 q 592 74 633 89 q 543 54 550 58 q 544 58 543 56 q 539 69 544 64 q 529 74 533 74 q 511 68 522 74 q 490 63 500 63 l 499 74 l 490 74 q 458 63 486 74 q 424 47 431 53 q 408 74 424 74 q 386 69 401 74 q 363 65 371 65 l 363 92 q 319 85 344 92 q 293 68 293 79 q 294 63 294 64 m 164 200 q 196 135 164 182 q 263 89 228 89 q 284 95 272 89 q 296 111 296 101 q 275 124 296 124 q 261 122 269 124 l 251 121 l 251 163 l 207 163 q 232 174 222 163 q 242 200 242 185 l 225 200 q 203 235 221 217 q 182 261 186 253 q 177 281 178 268 q 171 299 176 293 q 147 304 165 304 q 129 286 129 304 q 138 259 129 276 q 147 226 147 242 q 173 222 150 226 q 199 218 196 218 l 164 200 m 668 101 q 706 94 693 101 q 731 88 719 88 q 749 94 740 88 q 758 111 758 101 q 735 128 758 122 q 696 133 711 133 q 679 121 690 133 q 668 101 668 108 m 704 150 q 734 145 717 150 q 763 140 751 140 q 780 152 774 140 q 786 175 786 164 l 713 175 q 722 157 713 163 l 704 150 m 731 200 l 790 193 q 801 204 794 193 q 807 226 807 215 l 796 228 q 761 220 792 228 q 731 210 731 213 l 731 200 m 764 235 q 751 239 764 239 q 738 235 738 239 q 751 231 742 231 q 764 235 761 231 m 807 313 q 744 251 744 271 l 807 251 l 807 313 m 790 333 l 743 333 l 744 322 q 749 303 746 313 q 757 294 751 294 q 825 399 796 294 q 781 407 808 407 q 756 388 756 407 q 790 399 779 388 l 792 393 l 793 393 q 780 376 793 390 q 757 354 767 361 q 790 333 760 349 m 129 369 q 139 329 129 342 q 175 317 149 317 q 169 340 175 325 q 164 364 164 356 q 169 404 164 378 q 174 443 174 431 q 169 468 174 457 q 164 490 164 479 q 172 586 164 517 l 122 533 q 147 510 122 517 q 126 494 131 503 q 122 464 122 486 q 132 449 122 449 q 139 450 136 449 q 135 444 136 447 q 133 438 133 442 q 131 433 132 435 q 131 429 131 431 l 129 428 q 147 407 129 417 q 129 369 129 400 m 756 436 q 782 424 756 424 q 801 424 794 424 q 813 431 807 425 q 818 449 818 438 q 803 475 818 475 l 792 469 q 767 454 779 464 q 756 436 756 444 m 756 492 q 768 474 756 474 q 794 491 772 474 q 817 510 817 508 l 817 594 q 756 540 756 551 q 767 524 756 533 q 779 507 779 514 q 772 507 778 507 q 765 507 767 507 q 760 506 764 507 q 756 501 757 504 q 756 492 756 497 m 139 613 q 134 599 139 608 q 129 582 129 589 q 131 575 129 581 l 131 569 q 164 629 164 594 q 157 655 164 636 q 143 674 150 674 q 131 660 139 674 q 122 638 122 646 q 131 625 122 636 q 139 613 139 614 m 811 621 q 805 621 810 621 q 798 621 800 621 q 791 621 796 621 q 783 620 786 621 q 777 618 781 619 q 772 615 774 617 q 767 612 769 614 q 763 606 764 610 q 763 599 763 603 q 764 586 763 588 q 811 621 811 607 m 817 699 q 774 647 789 675 q 783 647 775 647 l 790 646 q 813 651 808 646 q 818 676 818 657 q 817 687 818 678 q 817 699 817 696 m 796 732 q 772 709 796 718 q 747 671 747 700 q 798 703 771 671 q 825 758 825 735 l 817 851 q 774 869 817 858 l 790 878 q 782 879 783 879 q 763 865 763 879 q 782 851 763 861 q 751 813 751 833 q 807 800 807 813 l 789 772 q 772 732 772 743 l 796 732 m 122 800 l 122 699 q 127 691 122 694 q 135 688 132 688 q 164 763 164 714 q 157 775 164 775 l 157 860 q 151 867 157 863 q 138 875 144 872 l 131 878 q 111 850 111 878 q 113 818 111 818 l 131 810 l 122 800 m 774 792 q 758 787 761 792 q 756 771 756 782 q 757 758 756 760 l 782 783 q 778 788 782 785 q 774 792 775 792 z "},"V":{"ha":875,"x_min":7,"x_max":832,"o":"m 18 861 q 7 879 7 865 q 16 897 7 888 q 35 906 25 906 l 128 906 q 136 885 136 906 q 140 855 136 871 q 146 828 143 839 q 157 797 149 817 q 169 769 165 776 q 183 740 172 761 q 196 715 194 718 q 252 553 203 701 q 352 278 301 406 q 425 150 403 150 q 473 258 431 150 q 515 376 515 365 q 515 379 515 378 q 514 382 514 381 q 599 625 538 451 q 693 894 661 799 q 761 914 700 914 q 771 914 764 914 q 782 914 778 914 q 792 914 786 914 q 803 913 799 914 q 812 912 807 913 q 820 910 817 911 q 826 906 824 908 q 831 901 829 904 q 832 894 832 899 q 728 604 772 697 q 733 601 729 604 q 736 594 736 597 q 714 523 736 576 q 692 444 692 469 q 693 432 692 436 q 653 336 682 410 q 600 226 625 263 q 581 173 592 214 q 558 100 569 132 q 538 68 547 68 q 513 12 538 28 q 463 -6 489 -4 q 436 -12 438 -8 l 372 -12 q 351 5 372 -3 q 325 21 329 13 q 306 86 318 51 q 284 140 293 121 q 252 205 275 160 q 224 261 229 250 q 172 428 197 314 q 121 594 146 542 q 103 617 111 604 q 89 649 96 631 q 78 678 82 667 q 67 713 74 689 q 60 742 61 736 q 38 803 57 751 q 18 861 19 856 m 367 43 q 381 31 367 31 q 446 90 401 31 q 428 81 440 86 q 407 70 417 75 q 388 60 397 65 q 372 50 378 54 q 367 43 367 46 m 489 49 l 454 38 l 489 38 l 489 49 m 446 74 l 446 63 q 484 82 461 63 q 507 117 507 101 l 504 119 q 494 113 501 119 q 474 94 488 106 q 446 74 461 82 m 300 183 q 316 150 306 171 q 334 115 326 129 q 342 100 342 101 q 363 74 342 74 q 401 82 392 74 q 342 183 374 97 l 300 183 m 506 90 l 489 74 q 500 78 493 74 q 507 85 507 82 q 506 88 507 86 q 506 90 506 89 m 522 158 q 502 149 510 158 q 494 126 494 139 q 531 157 524 126 q 522 158 525 158 m 497 193 l 497 167 l 531 183 l 531 193 l 497 193 m 272 240 q 335 199 272 199 q 326 234 335 215 q 306 253 318 253 q 272 240 272 253 m 565 236 l 514 218 q 529 217 519 218 q 543 217 539 217 q 565 236 565 217 m 514 243 l 514 233 q 531 243 521 233 l 514 243 m 531 269 l 531 256 q 601 303 601 256 q 600 308 601 304 l 600 314 l 531 269 m 236 347 q 242 311 236 328 q 249 281 249 294 l 249 269 q 263 278 253 278 q 287 272 271 278 q 308 267 303 267 l 308 314 l 274 314 q 288 347 288 317 l 236 347 m 540 347 q 529 319 529 338 q 530 307 529 315 q 531 296 531 299 q 635 389 635 340 l 633 393 q 633 399 633 397 q 557 360 557 365 q 566 348 557 356 q 583 339 575 340 q 540 347 550 339 m 231 378 q 256 363 231 363 q 269 363 260 363 q 283 364 278 364 q 265 424 279 404 q 231 378 231 397 m 590 424 q 570 413 578 424 q 563 386 563 401 q 633 415 585 386 q 590 424 600 424 m 196 475 q 210 441 204 464 q 224 407 215 418 q 250 446 250 407 q 244 471 250 465 q 225 476 238 476 q 214 476 224 476 q 196 475 204 475 m 592 450 q 611 439 592 439 q 654 445 646 439 q 663 478 663 451 q 592 450 624 478 m 592 501 q 583 458 583 485 l 574 458 q 643 492 643 488 q 592 501 601 501 m 179 544 q 190 506 179 522 q 224 490 201 490 l 231 492 q 240 492 238 492 q 210 544 210 522 l 179 544 m 618 518 q 635 508 618 508 q 667 514 658 508 q 678 533 675 519 q 686 553 681 546 q 656 540 682 553 q 618 518 631 528 m 607 535 q 601 526 601 535 q 607 518 601 518 q 615 526 615 518 q 607 535 615 535 m 638 594 q 624 585 629 594 q 615 562 619 575 q 607 544 611 549 q 650 554 624 544 q 686 579 676 564 q 667 584 679 581 q 647 592 656 588 l 638 594 m 181 594 q 171 561 171 585 l 207 561 q 200 589 207 576 q 186 608 193 601 q 179 617 179 615 l 181 621 q 185 631 183 625 q 188 639 186 636 l 163 689 q 136 650 136 669 q 140 641 136 644 q 153 633 144 638 l 163 629 q 153 623 160 629 q 146 614 146 617 q 169 593 146 593 q 181 594 178 593 m 643 614 q 666 604 649 614 q 689 594 683 594 q 705 614 697 594 q 717 653 713 633 l 719 674 q 643 614 676 653 m 678 699 q 654 663 654 699 q 703 689 679 663 q 678 699 688 699 m 101 699 q 108 690 103 696 q 119 681 114 685 q 124 679 124 678 q 151 710 151 679 q 101 699 113 710 m 686 715 q 721 706 708 706 q 740 718 733 706 q 747 744 747 731 q 747 753 747 746 l 746 758 q 686 715 699 728 m 136 767 q 101 719 101 754 l 110 719 q 146 738 146 719 q 136 767 143 754 m 731 869 q 711 810 731 849 q 692 749 692 772 q 731 761 707 749 q 754 788 754 774 q 736 801 754 790 q 754 811 740 811 q 758 810 756 811 q 763 810 761 810 q 783 869 783 851 l 731 869 m 60 861 q 68 826 60 851 q 85 779 76 800 l 93 758 q 111 765 100 758 q 122 781 122 772 q 101 801 110 799 q 111 818 111 804 q 101 849 111 833 q 76 864 90 864 q 60 861 63 864 z "},"W":{"ha":1275,"x_min":13,"x_max":1249,"o":"m 874 14 q 866 28 874 19 q 854 38 858 36 l 811 175 q 813 183 813 178 q 790 246 813 200 q 767 311 767 292 q 768 321 767 318 l 699 544 q 708 560 699 550 l 692 569 q 686 587 692 571 q 674 620 681 603 q 660 657 668 638 q 646 688 653 676 q 635 700 639 700 q 597 560 626 700 q 573 472 596 554 q 530 325 550 390 q 483 178 510 260 q 435 51 457 97 q 400 4 414 4 q 360 10 389 4 q 331 22 331 17 l 325 19 q 310 14 319 17 q 293 11 301 11 q 244 92 275 11 q 193 243 213 172 l 151 399 l 153 401 q 153 406 153 404 q 129 479 153 421 q 106 561 106 538 q 106 565 106 563 q 107 569 107 568 q 57 732 78 657 q 34 797 56 735 q 13 886 13 858 q 96 914 13 914 q 168 894 168 914 l 167 886 q 165 865 167 876 q 157 850 163 854 l 160 847 q 165 839 163 844 q 168 825 168 833 q 231 594 185 731 q 289 415 278 457 l 289 407 l 358 193 q 360 190 358 190 q 372 202 363 190 q 382 218 382 214 l 494 619 l 494 654 q 536 800 494 665 q 564 894 551 853 q 636 914 583 914 q 751 894 751 914 q 738 871 751 883 q 725 846 725 858 q 753 749 725 818 q 785 664 781 679 q 863 440 863 504 l 914 303 q 913 296 913 300 q 925 260 913 281 q 949 235 938 240 q 1009 453 978 282 q 1066 770 1040 625 q 1110 919 1092 915 q 1133 915 1119 919 q 1163 911 1146 911 q 1193 920 1175 911 q 1218 929 1211 929 q 1239 914 1229 929 q 1249 889 1249 899 q 1240 865 1249 883 q 1231 844 1231 846 q 1203 643 1203 731 q 1204 613 1203 621 q 1154 440 1176 524 q 1133 365 1151 433 q 1099 245 1114 297 q 1063 129 1083 193 q 1024 29 1042 65 q 996 -7 1007 -7 q 934 3 975 -7 q 874 14 893 14 m 322 74 q 382 54 331 54 q 400 97 400 65 q 322 74 367 97 m 888 96 q 894 71 888 89 q 910 53 901 53 q 914 54 913 53 l 964 97 l 964 108 q 925 102 950 108 q 888 96 900 96 m 1000 101 q 967 83 981 101 q 954 43 954 64 q 992 58 983 43 q 1000 101 1000 72 m 322 115 l 306 89 q 314 88 313 88 q 407 122 344 88 q 503 388 478 315 l 503 407 q 445 291 472 397 q 407 167 418 185 q 383 139 400 156 q 353 122 365 122 q 331 136 339 122 q 313 150 322 150 q 271 138 271 150 q 289 107 271 125 q 322 115 297 107 m 863 150 q 870 120 863 126 q 897 114 878 114 l 906 114 q 914 115 913 115 l 897 122 q 915 158 915 154 q 863 150 889 158 m 1033 193 q 1016 180 1028 190 q 989 155 1004 169 q 964 133 974 140 q 1033 193 1019 133 m 297 218 q 256 156 256 193 l 271 156 q 298 163 290 156 q 306 200 306 171 q 297 218 306 217 m 897 218 q 865 174 865 200 q 906 196 906 174 q 897 218 906 217 m 983 193 q 990 183 983 183 q 1040 217 1021 183 q 1060 279 1060 250 q 997 221 997 229 q 1005 214 997 218 q 1017 210 1013 210 q 983 193 990 206 m 235 221 l 235 214 q 246 193 235 193 q 275 209 260 193 q 290 238 290 225 q 289 242 290 239 l 289 243 l 236 235 q 235 221 235 235 m 838 232 q 854 193 838 200 q 889 251 889 228 q 872 247 885 250 q 848 240 858 243 q 838 232 838 236 m 213 313 q 222 286 218 304 q 233 259 225 268 q 258 250 240 250 q 289 269 289 250 q 271 303 289 296 q 261 287 269 296 q 250 278 253 278 l 249 278 q 246 279 247 279 q 264 339 264 329 q 249 382 264 382 q 227 364 238 375 q 212 345 217 353 q 207 335 207 338 l 207 333 l 246 333 l 213 313 m 828 264 q 838 251 828 256 q 844 251 839 251 q 851 251 849 251 q 857 251 853 251 q 863 252 861 251 q 869 253 865 253 q 874 256 872 254 q 877 260 875 258 q 880 265 879 263 q 881 272 881 268 q 863 313 881 300 q 828 264 828 269 m 1007 303 l 1007 263 q 1060 303 1029 263 l 1007 303 m 801 313 q 806 295 801 306 q 815 285 811 285 q 845 304 831 285 q 860 340 860 324 q 801 313 801 340 m 1026 328 q 1047 319 1026 319 q 1094 388 1094 319 q 1051 364 1076 383 q 1026 328 1026 344 m 854 383 q 847 383 850 383 q 840 381 843 382 q 833 378 836 379 q 828 375 831 378 q 823 371 825 372 q 817 365 821 369 q 813 360 814 361 q 807 353 811 358 q 801 346 803 347 q 842 353 829 346 q 854 383 854 360 m 221 510 q 211 545 221 519 q 197 571 201 571 q 157 506 174 571 l 201 506 q 192 501 200 504 q 180 494 183 497 q 172 487 176 492 q 168 475 168 482 q 201 364 168 418 q 226 378 214 364 q 243 403 238 392 q 249 418 249 415 l 193 418 l 193 432 l 236 432 l 236 469 q 220 460 229 469 q 206 451 211 451 q 213 481 206 463 q 221 510 221 499 m 801 399 q 783 369 783 383 q 809 383 800 369 q 838 399 818 397 l 818 458 q 776 415 801 458 q 801 399 785 406 m 1063 399 q 1033 372 1044 399 l 1038 371 q 1053 381 1044 371 q 1063 399 1063 390 m 531 493 q 485 415 485 493 q 520 446 510 429 q 531 493 531 463 m 1050 424 q 1054 419 1050 422 q 1060 415 1058 415 q 1113 433 1097 415 q 1129 492 1129 451 q 1050 424 1103 481 m 750 469 l 749 469 q 756 460 747 469 q 776 440 765 451 q 803 474 803 456 q 794 492 803 489 q 801 506 801 499 q 796 524 801 514 q 781 535 790 535 q 762 522 774 535 q 750 506 750 508 q 755 496 750 504 q 760 483 760 488 q 756 479 758 482 q 751 474 753 476 q 750 469 750 472 m 1110 510 q 1069 501 1079 510 q 1060 458 1060 492 q 1089 483 1068 468 q 1119 510 1110 499 l 1110 510 m 501 514 q 511 500 501 504 q 553 560 543 525 q 518 544 518 560 q 528 526 518 529 q 512 522 522 526 q 501 514 501 517 m 1154 604 q 1133 588 1149 600 q 1109 569 1118 576 q 1089 553 1100 563 q 1072 535 1078 543 q 1067 524 1067 528 q 1135 538 1117 524 q 1154 604 1154 551 m 733 544 q 740 537 733 540 q 751 533 747 533 q 776 560 775 557 q 760 563 771 563 q 733 544 733 563 m 142 564 l 140 563 q 142 558 140 561 q 147 551 144 556 q 151 544 150 547 q 193 608 193 574 q 176 647 193 619 q 158 717 167 661 q 133 817 150 774 q 82 860 117 860 l 82 869 q 47 860 63 869 q 69 813 57 847 q 82 775 81 779 q 99 715 92 758 q 133 732 118 717 q 117 716 132 731 q 99 699 101 701 l 99 694 q 109 654 99 679 q 133 629 119 629 q 146 633 136 629 q 160 638 156 638 q 142 608 142 628 q 161 593 142 593 q 168 594 165 593 q 142 564 142 574 m 581 650 q 536 624 554 650 q 518 569 518 597 q 564 594 564 569 l 546 604 q 554 601 551 601 q 581 650 581 601 m 764 621 q 742 605 753 621 q 732 578 732 589 l 778 578 l 776 586 q 772 606 775 596 q 764 621 769 617 m 1119 621 q 1081 606 1094 621 q 1068 575 1068 592 q 1096 582 1083 575 q 1123 602 1108 589 q 1144 619 1138 615 q 1133 620 1143 619 q 1119 621 1122 621 m 708 629 q 725 618 713 618 q 744 630 736 618 q 753 654 753 642 q 733 706 753 675 q 697 668 697 669 q 722 653 697 653 q 742 654 739 653 q 708 629 718 642 m 1085 647 q 1101 638 1093 642 q 1156 653 1140 638 q 1172 706 1172 668 l 1163 706 l 1085 647 m 564 682 q 542 677 547 682 q 536 654 536 672 q 579 676 579 654 q 564 682 579 682 m 1154 715 l 1094 715 q 1081 702 1088 715 q 1075 681 1075 689 l 1075 676 l 1076 672 q 1122 695 1094 679 q 1154 715 1150 711 m 683 699 q 692 689 683 689 q 705 695 696 689 q 717 706 714 701 l 713 706 l 708 707 q 683 699 694 707 m 589 717 q 553 699 568 717 l 589 699 l 589 717 m 579 750 q 553 722 564 750 q 597 742 556 722 q 579 750 593 750 m 665 732 q 726 719 665 719 q 706 802 726 751 q 661 853 686 853 q 613 835 632 853 l 631 851 q 624 856 631 853 q 613 860 617 860 q 585 800 585 860 l 606 800 q 578 764 578 778 q 613 783 604 764 q 631 760 615 772 q 657 749 646 749 q 683 775 672 749 q 693 763 693 765 q 683 748 693 760 q 665 732 672 736 m 1179 800 q 1154 783 1175 796 q 1122 758 1133 771 q 1110 731 1110 746 q 1189 788 1189 731 q 1185 795 1189 790 q 1179 800 1182 800 m 1167 818 q 1100 783 1100 818 l 1100 775 q 1101 765 1101 768 q 1171 818 1156 799 l 1167 818 m 1119 844 q 1110 825 1119 832 q 1179 835 1165 825 l 1179 868 q 1119 878 1151 868 q 1110 860 1110 875 q 1115 849 1110 851 q 1119 844 1119 846 z "},"X":{"ha":840,"x_min":1,"x_max":758,"o":"m 360 364 l 354 364 q 293 237 339 317 q 236 157 247 157 q 133 3 175 3 q 48 13 94 3 q 1 43 1 22 q 22 78 1 57 q 47 107 43 100 q 117 208 60 128 q 219 360 174 288 q 269 467 265 433 q 253 508 269 482 q 213 564 238 533 q 183 604 189 594 q 142 672 182 608 q 81 781 146 683 q 4 886 17 878 q 86 914 17 914 q 117 913 97 914 q 142 913 136 913 q 261 742 192 799 l 261 719 q 279 707 271 719 q 296 694 288 694 l 296 681 q 336 631 300 678 q 378 583 372 585 q 395 601 381 583 q 415 629 410 619 q 432 666 418 633 q 468 706 446 699 q 550 818 486 722 q 629 919 614 914 q 713 929 664 929 q 750 900 750 929 q 639 722 750 889 l 638 722 q 635 724 636 724 q 603 690 624 724 q 579 654 582 656 l 569 664 q 556 631 564 654 q 536 594 547 607 q 504 564 532 590 q 463 518 476 538 q 450 479 450 499 q 488 394 450 447 q 561 313 526 342 l 554 303 q 699 115 586 299 q 758 29 710 99 q 753 -1 758 6 q 732 -7 747 -7 q 647 7 681 -7 q 599 37 613 21 q 561 90 585 53 q 518 150 538 128 q 473 195 510 158 q 424 251 436 232 q 401 294 415 264 q 376 344 388 324 q 360 364 365 364 m 639 99 l 639 54 q 668 46 639 46 q 675 47 669 46 q 682 47 681 47 q 676 58 681 50 q 669 72 672 67 q 660 85 665 78 q 650 95 656 92 q 639 99 644 99 m 89 74 q 110 63 90 63 q 148 84 129 63 q 167 129 167 106 q 165 134 167 131 q 162 142 164 138 q 158 150 160 147 q 180 165 164 150 q 196 186 196 181 q 167 175 171 186 q 163 180 167 176 q 158 183 160 183 q 124 150 135 183 l 142 140 q 112 119 122 136 q 97 88 101 101 q 89 74 93 74 m 132 115 l 138 117 q 150 107 140 117 l 149 106 q 146 106 147 106 q 132 115 142 106 m 118 124 q 124 133 118 133 q 129 124 129 133 q 124 115 129 115 q 118 124 118 115 m 579 175 l 579 167 l 603 167 q 579 175 594 175 m 269 354 q 253 339 264 354 q 164 200 164 206 l 210 200 q 203 217 203 203 l 203 226 q 208 220 203 222 q 219 218 214 218 l 226 218 q 238 222 231 218 q 244 226 244 225 l 244 279 q 247 272 244 275 q 253 269 250 269 l 257 268 q 305 338 279 292 q 331 417 331 385 q 304 432 331 432 q 290 408 303 432 q 278 382 278 383 q 283 365 278 375 q 288 346 288 354 q 269 354 285 354 m 526 243 q 517 224 517 239 q 536 235 529 224 l 526 243 m 485 328 q 474 303 474 317 l 475 299 q 476 294 475 294 q 493 303 490 294 q 485 328 493 319 m 422 358 q 438 344 429 344 q 445 349 440 344 q 450 354 450 353 q 442 372 450 356 q 428 367 435 372 q 422 358 422 363 m 397 388 l 415 372 q 426 400 426 375 q 397 388 403 400 m 403 450 q 372 435 390 450 q 354 407 354 419 l 363 407 q 415 424 410 407 q 403 450 413 450 m 397 467 q 393 468 394 468 q 383 463 392 468 q 365 451 375 458 q 354 440 356 444 l 360 440 q 381 451 365 440 q 397 467 397 461 m 314 483 q 304 450 314 458 q 343 477 318 450 q 368 518 368 504 q 329 510 338 518 l 349 526 l 321 578 l 304 578 l 313 597 q 288 633 313 607 q 261 664 263 660 q 260 679 261 665 q 254 704 258 693 q 243 715 250 715 q 233 713 242 715 q 222 710 224 710 q 222 719 222 715 q 218 726 221 722 q 213 731 215 729 q 206 734 211 732 q 199 737 201 736 q 188 739 196 738 q 176 742 181 740 q 203 763 203 747 q 185 778 203 774 q 167 783 168 782 q 142 826 150 799 q 122 867 135 853 q 72 881 110 881 q 99 826 72 858 q 125 771 125 793 q 148 758 140 771 q 156 729 156 744 q 163 701 157 714 q 181 688 168 688 q 210 706 204 700 q 189 654 189 678 l 236 654 q 208 629 208 646 q 221 607 208 619 q 253 594 233 594 q 269 604 260 594 q 261 578 269 594 l 279 569 q 272 563 276 569 q 268 556 268 557 q 291 528 268 553 q 314 483 314 503 m 493 664 q 519 654 504 654 q 543 672 535 654 q 540 677 543 674 q 536 681 538 681 q 493 664 499 681 m 599 742 q 579 732 586 742 q 588 731 585 731 q 603 742 600 731 l 599 742 m 674 888 q 629 874 649 888 q 610 835 610 860 q 658 854 625 835 q 699 886 690 874 q 685 887 696 886 q 674 888 675 888 z "},"Y":{"ha":803,"x_min":-14,"x_max":735,"o":"m 408 -7 q 384 -3 399 -7 q 353 1 369 1 q 289 36 289 1 l 289 326 q 271 350 271 344 q 281 380 271 358 q 290 417 290 401 q 283 461 290 446 q 254 497 276 476 q 221 532 232 518 q 174 599 203 554 q 144 656 144 644 q 122 667 131 656 q 105 697 113 678 q 92 722 97 715 q 58 758 82 735 q 32 782 33 782 l -14 782 q 1 798 -14 792 q 15 811 15 804 q 1 845 15 825 q -12 876 -12 865 q 31 892 -12 883 q 97 901 74 901 q 160 817 108 901 q 276 650 213 733 q 378 567 340 567 q 435 630 394 567 q 518 767 475 693 q 581 858 561 842 q 592 843 586 854 q 610 832 597 832 q 647 858 636 832 q 627 876 643 867 q 611 901 611 885 l 726 901 q 735 879 735 901 q 711 860 735 872 q 683 842 688 847 q 521 576 542 628 q 487 533 511 561 q 449 479 463 504 q 435 425 435 454 q 442 414 435 421 l 435 404 l 435 122 q 424 51 424 96 q 426 3 424 25 q 408 -7 417 -7 m 339 114 l 339 88 l 367 114 l 339 114 m 400 172 q 375 156 383 169 q 401 169 401 156 l 400 172 m 361 190 q 339 172 339 190 q 361 190 361 176 m 363 276 q 334 268 342 276 q 326 238 326 260 q 375 275 363 238 q 368 275 374 275 l 363 276 m 404 417 q 387 406 392 417 q 381 381 382 396 q 373 349 381 367 q 349 319 365 331 l 393 319 q 404 417 404 331 m 296 542 q 306 525 296 526 q 315 542 315 526 l 296 542 m 472 588 q 446 572 458 588 q 433 542 433 556 l 442 542 q 469 576 444 542 l 472 588 m 275 588 q 263 567 263 588 q 264 558 264 560 q 281 563 271 558 q 290 571 290 568 q 285 581 290 575 q 275 588 281 588 m 168 671 q 195 647 174 664 q 230 615 217 631 q 243 582 243 599 q 264 601 264 582 q 254 621 264 608 q 244 640 244 633 q 246 646 244 644 q 188 722 197 681 l 174 722 q 176 729 176 726 q 170 735 176 731 q 161 739 164 739 q 153 733 157 739 q 146 719 149 726 l 143 714 q 158 694 143 701 q 172 681 172 686 q 168 671 172 678 m 478 619 l 478 599 q 501 626 483 599 q 539 690 518 654 q 564 731 560 725 q 599 782 583 763 q 566 772 576 782 q 549 742 556 763 q 539 714 543 721 q 478 619 501 650 m 135 753 l 126 731 q 131 729 129 729 q 149 742 136 729 q 168 756 161 754 q 151 774 164 765 q 135 782 139 782 q 108 753 126 771 l 135 753 m 74 790 q 97 772 92 772 q 126 807 111 772 l 117 807 q 74 790 82 807 m 67 833 l 57 818 q 64 817 58 818 q 71 817 69 817 q 110 828 110 817 q 49 858 110 858 q 22 851 43 858 l 21 847 q 39 822 21 822 q 67 833 54 822 z "},"Z":{"ha":753,"x_min":33,"x_max":693,"o":"m 672 913 q 693 881 682 913 l 692 876 q 655 836 672 857 q 619 788 638 815 q 592 747 601 761 q 560 694 582 732 q 531 646 538 657 q 510 603 522 633 q 484 551 497 574 q 453 517 471 528 l 358 344 q 284 247 347 344 q 221 135 221 149 q 364 111 221 111 q 486 114 414 111 q 547 104 494 104 q 556 114 551 104 l 658 114 q 678 56 678 114 q 649 -7 678 -7 q 557 1 617 -7 q 471 10 497 10 q 370 6 438 10 q 246 1 303 1 q 218 2 236 1 q 186 3 200 3 l 171 3 l 161 10 l 85 10 q 74 -1 83 4 q 60 -7 64 -7 q 42 2 51 -7 q 33 21 33 11 q 56 67 33 33 q 109 138 79 100 q 146 190 139 176 q 289 426 188 265 q 438 679 390 588 q 472 781 472 744 q 394 831 472 831 q 237 824 333 831 q 90 818 140 818 q 76 824 76 818 l 76 892 q 83 898 76 894 q 93 901 89 901 q 133 896 106 901 q 182 890 160 890 q 256 901 229 890 l 617 900 l 672 913 m 210 71 q 146 46 181 71 q 232 69 215 46 q 220 70 229 69 q 210 71 211 71 m 263 71 q 221 46 232 71 q 244 49 226 47 q 276 53 261 50 q 299 61 292 56 q 263 71 290 71 m 471 69 l 325 69 q 312 60 318 69 q 306 43 306 50 q 471 69 453 43 m 557 71 q 543 72 554 71 q 525 72 532 72 q 479 54 482 72 l 547 54 q 557 71 557 54 m 590 65 q 565 54 567 65 l 590 54 l 590 65 m 149 79 q 115 61 115 79 q 161 69 131 61 q 149 79 161 79 m 136 114 l 146 106 l 171 129 l 161 139 l 136 114 m 179 165 l 171 156 l 179 156 l 179 165 m 201 200 q 192 194 197 200 q 188 182 188 189 l 206 199 l 201 200 m 232 235 q 211 215 211 235 l 232 215 l 232 235 m 251 286 q 238 268 238 286 q 239 263 238 267 l 239 258 q 256 286 247 264 l 251 286 m 285 321 q 264 306 264 321 q 265 301 265 303 q 285 321 285 304 m 282 354 l 282 336 q 376 449 304 342 q 447 579 447 557 q 325 414 426 579 q 282 354 297 369 m 472 622 q 443 601 443 622 q 444 596 443 600 l 444 592 q 472 622 472 604 m 497 681 q 476 665 483 681 q 468 632 468 650 q 492 654 488 632 q 504 679 497 676 l 497 681 m 525 714 q 503 692 503 714 q 528 707 528 692 q 525 714 528 711 m 550 756 q 507 728 507 756 q 535 735 521 728 q 550 756 550 743 m 572 818 l 539 782 q 546 781 540 782 l 551 781 q 574 803 574 781 l 572 810 q 572 818 572 817 m 556 842 q 565 824 565 836 l 599 842 l 599 851 l 583 842 l 590 858 l 583 860 q 556 842 564 860 m 461 858 q 488 856 465 858 q 514 851 510 853 q 547 858 536 851 q 532 868 546 868 q 461 858 507 868 z "},"[":{"ha":472,"x_min":63,"x_max":410,"o":"m 310 -35 l 114 -35 l 100 -28 q 97 1 99 -26 q 94 64 96 28 q 92 121 92 100 q 85 478 85 388 q 96 606 85 521 q 107 736 107 692 q 99 756 107 739 q 92 778 92 772 l 100 803 q 63 858 63 833 l 92 858 l 92 918 q 226 924 138 918 q 360 931 315 931 l 360 921 l 400 921 q 405 905 400 910 q 410 899 410 900 q 404 889 408 899 q 397 863 400 879 q 394 836 394 847 l 208 836 l 208 690 q 189 164 189 371 q 208 71 189 71 q 304 64 228 71 q 340 53 325 63 q 360 43 354 43 l 367 57 q 401 -14 401 29 q 350 -42 401 -42 q 310 -35 325 -42 m 318 0 q 338 -6 329 -6 q 346 7 346 -6 q 338 21 346 19 l 318 0 m 135 14 l 135 0 l 143 0 q 135 14 143 11 m 221 24 q 185 0 197 24 q 197 -1 186 -1 q 221 24 221 -1 m 311 18 q 308 24 311 19 l 304 28 l 256 28 q 250 24 253 28 q 246 15 247 19 q 242 6 244 10 l 240 0 l 247 -1 q 282 14 258 -1 l 282 -1 q 301 5 290 -1 q 311 18 311 11 m 156 274 q 147 264 147 274 q 156 254 147 254 l 156 274 m 139 331 q 156 304 139 321 l 156 331 l 139 331 m 119 390 q 136 363 119 363 q 119 390 136 390 m 147 479 q 164 450 147 460 q 169 469 169 456 q 147 479 169 479 m 128 521 q 119 507 119 514 l 136 507 q 128 521 136 515 m 135 613 q 169 583 144 596 q 169 592 169 585 l 171 597 q 158 618 171 618 q 135 613 146 618 m 154 690 q 162 673 154 681 q 176 665 169 665 l 176 690 l 154 690 m 142 767 q 169 731 153 746 l 169 767 l 142 767 m 142 822 q 169 806 153 806 l 169 871 q 142 822 169 839 m 318 879 l 318 871 l 367 871 l 367 879 l 318 879 z "},"\\":{"ha":747,"x_min":36,"x_max":578,"o":"m 464 71 q 492 67 474 71 q 521 64 510 64 q 500 106 521 89 l 478 83 l 478 94 q 457 99 467 99 q 443 90 444 99 l 458 35 l 436 35 q 401 111 431 35 q 341 231 374 171 q 263 371 308 292 q 199 485 218 450 q 194 488 197 485 q 190 492 192 492 l 57 757 q 42 800 42 771 q 44 814 42 811 l 57 821 q 36 835 36 829 l 40 842 q 44 850 44 849 q 41 854 44 851 q 36 857 38 857 q 113 871 72 871 q 126 863 121 871 l 240 660 l 247 653 q 366 421 289 585 q 507 168 443 257 q 510 152 507 160 q 517 144 514 144 q 522 147 519 144 q 553 92 528 135 q 578 35 578 49 q 554 19 575 19 q 464 71 464 19 m 424 163 q 433 127 424 144 q 464 110 443 110 q 493 125 493 110 q 450 196 493 126 q 433 186 443 196 q 424 163 424 176 m 417 210 q 397 188 397 210 q 423 196 415 188 q 431 225 431 204 l 421 239 q 406 253 411 253 q 394 242 403 253 q 386 228 386 232 q 417 210 386 215 m 388 274 q 369 243 369 263 q 394 276 394 243 q 378 310 394 310 q 379 308 379 310 q 368 298 379 307 q 357 285 357 289 q 375 271 357 271 q 388 274 382 271 m 344 313 l 344 308 l 349 306 q 354 301 353 301 q 368 324 368 315 q 344 313 344 324 m 324 346 q 342 328 324 328 q 361 340 361 328 q 341 384 354 356 q 324 421 328 413 q 319 422 321 422 q 282 400 301 422 q 317 385 288 385 l 304 371 q 313 364 308 364 q 319 371 315 364 q 325 378 324 378 l 329 375 q 326 362 329 371 q 324 346 324 353 m 268 431 l 268 414 q 295 421 281 414 q 310 438 310 428 q 302 467 310 450 q 289 485 294 485 l 261 469 l 275 485 l 231 485 q 242 464 231 476 q 254 442 253 451 l 304 431 l 268 431 m 219 511 q 260 496 228 496 q 275 497 265 496 q 289 497 285 497 q 265 549 281 531 q 242 535 257 549 q 219 511 226 522 m 190 561 l 204 525 l 208 525 q 233 539 217 525 q 250 561 250 553 l 190 561 m 164 611 q 249 572 164 572 q 237 605 249 588 q 213 624 225 622 l 219 632 q 208 653 221 632 q 181 694 196 674 q 164 715 167 715 q 152 710 158 715 q 142 701 146 706 q 136 690 139 696 l 133 685 l 164 685 q 142 667 147 672 q 150 660 144 660 q 169 667 163 660 q 165 658 168 664 q 158 647 161 653 l 154 642 q 199 624 154 624 q 190 623 194 624 q 180 620 185 622 q 172 617 175 618 q 166 614 168 615 q 164 611 164 613 m 121 715 l 121 707 q 144 717 132 707 q 156 736 156 726 q 135 772 156 757 q 107 733 108 756 l 149 733 l 121 715 m 92 772 q 99 757 92 760 l 126 786 q 92 772 92 786 m 69 835 q 86 793 69 819 q 104 797 93 793 q 115 803 115 800 q 69 835 115 835 z "},"]":{"ha":472,"x_min":-10,"x_max":338,"o":"m 82 871 l 82 879 l 33 879 l 33 871 l 82 871 m 258 822 q 231 871 231 839 l 231 806 q 258 822 247 806 m 258 767 l 231 767 l 231 731 q 258 767 247 746 m 246 690 l 224 690 l 224 665 q 238 673 231 665 q 246 690 246 681 m 265 613 q 242 618 254 618 q 229 601 229 618 q 230 594 229 600 q 231 583 231 589 q 265 613 256 596 m 272 563 l 272 576 l 268 578 q 251 563 267 578 l 272 563 m 272 521 q 264 507 264 515 l 281 507 q 272 521 281 514 m 253 479 q 231 469 231 479 q 236 450 231 456 q 253 479 253 460 m 281 390 q 264 363 264 390 q 281 390 281 363 m 261 331 l 244 331 l 244 304 q 261 331 261 321 m 244 254 q 253 264 253 254 q 244 274 253 274 l 244 254 m 89 18 q 99 5 89 11 q 118 -1 110 -1 l 118 14 q 153 -1 140 -1 q 160 0 158 0 l 158 6 q 154 15 156 10 q 150 24 153 19 q 144 28 147 28 l 96 28 l 92 24 q 89 18 89 19 m 179 24 q 203 -1 179 -1 q 215 0 214 -1 q 179 24 203 24 m 265 0 l 275 107 q 265 56 272 106 q 257 0 257 7 l 265 0 m 82 0 l 63 21 q 54 7 54 19 q 63 -6 54 -6 q 82 0 71 -6 m 286 -35 l 90 -35 q 50 -42 75 -42 q -1 -14 -1 -42 q 33 57 -1 29 l 40 43 q 60 53 46 43 q 96 64 75 63 q 192 71 172 71 q 211 164 211 71 q 192 690 211 371 l 192 836 l 6 836 q 4 852 6 843 q 1 869 3 861 q -2 885 0 878 q -6 895 -4 892 q -10 899 -8 899 q -5 905 -10 900 q 0 921 0 910 l 40 921 l 40 931 q 174 924 85 931 q 308 918 263 918 l 308 858 l 338 858 q 300 803 338 833 q 303 796 300 801 q 307 785 306 790 q 308 778 308 779 q 301 756 308 772 q 293 736 293 739 q 304 606 293 692 q 315 478 315 521 q 312 299 315 424 q 308 121 308 174 q 306 64 308 100 q 303 1 304 28 q 300 -28 301 -26 l 286 -35 z "},"^":{"ha":636,"x_min":29,"x_max":478,"o":"m 29 696 q 45 717 35 700 q 64 739 56 735 q 117 780 85 749 q 175 838 150 811 q 204 865 200 864 l 204 858 q 233 892 207 878 q 260 921 260 907 q 268 908 268 918 q 312 856 281 889 q 351 822 343 822 l 428 746 q 455 712 432 746 q 478 675 478 678 q 469 624 478 657 q 450 590 461 590 l 443 592 l 450 597 q 425 613 443 600 q 407 631 407 626 l 408 632 l 351 689 l 351 696 q 313 733 351 708 q 246 758 274 758 q 185 706 240 760 q 99 619 129 651 q 85 601 94 615 q 65 577 75 586 q 42 568 54 568 q 29 576 29 568 l 29 696 m 42 676 q 67 646 64 646 q 92 651 85 646 q 103 669 99 657 q 113 689 107 682 q 144 708 129 693 q 161 739 158 722 q 151 756 161 746 q 136 767 140 767 q 118 756 118 767 q 119 751 118 753 q 100 726 110 735 q 87 715 90 717 q 81 708 83 714 q 79 689 79 703 q 42 676 42 689 m 408 661 q 432 646 417 646 q 436 649 433 646 q 442 657 439 651 q 444 669 444 663 q 408 661 422 669 m 378 696 l 388 689 l 393 701 q 390 703 392 703 q 378 696 378 697 m 388 746 l 374 731 q 383 735 379 731 q 388 746 388 740 m 161 778 q 175 746 161 754 q 194 781 183 756 q 204 822 204 807 q 197 829 204 829 q 178 806 194 819 q 161 778 161 792 m 250 865 q 219 793 219 865 q 246 806 231 793 q 272 833 261 819 l 283 847 q 277 852 283 849 q 263 860 271 856 q 254 865 256 864 l 250 865 m 313 818 q 294 801 297 818 q 313 818 313 803 z "},"_":{"ha":957,"x_min":54,"x_max":828,"o":"m 54 -49 q 140 -14 54 -14 q 675 -3 493 -3 q 747 -3 686 -3 q 817 -4 807 -4 q 828 -64 828 -26 q 785 -125 828 -125 q 526 -121 660 -125 l 268 -125 l 253 -115 l 260 -108 l 253 -100 q 235 -125 240 -107 q 96 -117 113 -121 q 54 -49 56 -99 m 697 -90 l 697 -101 q 722 -90 711 -101 l 697 -90 m 101 -57 q 124 -83 101 -83 l 217 -83 l 243 -65 l 226 -57 l 101 -57 m 299 -57 q 247 -85 247 -57 q 257 -85 249 -85 q 269 -85 265 -85 q 280 -84 272 -85 q 291 -83 288 -83 q 301 -80 294 -82 q 310 -75 307 -78 q 315 -67 313 -72 q 319 -57 318 -62 l 299 -57 m 664 -65 q 782 -83 683 -67 q 803 -56 803 -83 q 788 -60 796 -56 q 774 -64 781 -64 l 774 -57 l 731 -57 l 731 -46 q 693 -53 721 -46 q 664 -65 665 -60 m 356 -56 q 344 -56 351 -56 l 338 -57 l 329 -74 q 346 -75 332 -74 q 368 -76 360 -76 q 389 -65 388 -76 q 356 -56 385 -56 m 442 -47 q 399 -78 399 -47 q 457 -57 443 -78 q 442 -47 453 -47 m 500 -49 q 457 -74 496 -50 q 515 -75 479 -74 q 569 -76 550 -76 q 664 -40 646 -76 q 653 -39 661 -40 l 646 -39 q 603 -57 618 -39 q 599 -52 603 -56 q 594 -49 596 -49 q 585 -53 593 -49 l 576 -57 q 569 -56 575 -57 l 564 -56 l 567 -53 q 568 -49 568 -50 q 543 -40 560 -40 q 507 -57 515 -40 q 500 -49 507 -49 z "}}}
